<?xml version="1.0" encoding="UTF-8" standalone="no"?>
<svg
   width="100%"
   height="100%"
   viewBox="0 0 600 500"
   version="1.1"
   xml:space="preserve"
   style="fill-rule:evenodd;clip-rule:evenodd;stroke-miterlimit:10;"
   id="svg59"
   sodipodi:docname="231018_new graphic.svg"
   inkscape:version="1.2.2 (b0a8486541, 2022-12-01)"
   xmlns:inkscape="http://www.inkscape.org/namespaces/inkscape"
   xmlns:sodipodi="http://sodipodi.sourceforge.net/DTD/sodipodi-0.dtd"
   xmlns="http://www.w3.org/2000/svg"
   xmlns:svg="http://www.w3.org/2000/svg"
   xmlns:serif="http://www.serif.com/"><defs
   id="defs59" /><sodipodi:namedview
   id="namedview59"
   pagecolor="#ffffff"
   bordercolor="#000000"
   borderopacity="0.25"
   inkscape:showpageshadow="2"
   inkscape:pageopacity="0.0"
   inkscape:pagecheckerboard="0"
   inkscape:deskcolor="#d1d1d1"
   inkscape:zoom="2.8678686"
   inkscape:cx="307.37113"
   inkscape:cy="184.2832"
   inkscape:window-width="1920"
   inkscape:window-height="2123"
   inkscape:window-x="20"
   inkscape:window-y="20"
   inkscape:window-maximized="0"
   inkscape:current-layer="g59"
   showgrid="false" />
    <g
   transform="matrix(1,0,0,0.454709,-4.58662,199.771)"
   id="g8">
        <g
   id="line20"
   transform="matrix(3.57628e-17,0.58405,0.58405,-3.57628e-17,156.684,69.0387)">
            <g
   transform="matrix(1.04841e-16,1.71218,3.76545,-2.30567e-16,-870.433,-260.418)"
   id="g2">
                <path
   d="M305.939,350.995L301.439,355.495L296.939,350.995"
   style="fill:none;fill-rule:nonzero;stroke:rgb(46,46,46);stroke-width:3px;"
   id="path1" />
                <path
   d="M301.439,335.463L301.439,355.495"
   style="fill:none;fill-rule:nonzero;stroke:rgb(46,46,46);stroke-width:3px;stroke-linecap:square;stroke-dasharray:6,6,0,0;"
   id="path2" />
            </g>
        </g>
        <g
   transform="matrix(7.95462e-17,1.29909,1,-6.12323e-17,50.3253,-200.58)"
   id="g5">
            <g
   transform="matrix(4.71348e-17,1,1.69289,-1.34663e-16,-183.789,-45.7386)"
   id="g4">
                <path
   d="M219.49,391.692L222.765,397.149L217.308,400.424"
   style="fill:none;stroke:black;stroke-width:3px;"
   id="path3" />
                <path
   d="M125.249,340.472C125.249,340.472 145.759,377.628 222.765,397.149"
   style="fill:none;stroke:black;stroke-width:3px;stroke-linejoin:bevel;stroke-miterlimit:1.5;stroke-dasharray:6,6,0,0;"
   id="path4" />
            </g>
        </g>
        <g
   transform="matrix(7.95462e-17,1.29909,-1,6.12323e-17,560.747,-200.58)"
   id="g7">
            <g
   transform="matrix(4.71348e-17,-1,1.69289,1.34663e-16,-183.789,556.16)"
   id="g6">
                <path
   d="M384.591,400.424L379.134,397.149L382.409,391.692"
   style="fill:none;stroke:black;stroke-width:3px;"
   id="path5" />
                <path
   d="M476.65,340.472C476.65,340.472 456.14,377.628 379.134,397.149"
   style="fill:none;stroke:black;stroke-width:3px;stroke-linejoin:bevel;stroke-miterlimit:1.5;stroke-dasharray:6,6,0,0;"
   id="path6" />
            </g>
        </g>
    </g>
    <g
   transform="matrix(1,0,0,0.437959,490.755,59.0975)"
   id="g14">
        <g
   id="line22"
   transform="matrix(6.12323e-17,1,-1,6.12323e-17,66.4581,69.178)">
            <g
   transform="matrix(6.12323e-17,-1,2.28332,1.39813e-16,-204.116,557.213)"
   id="g9">
                <path
   d="M305.615,162.683L301.513,158.58L297.411,162.683"
   style="fill:none;fill-rule:nonzero;stroke:rgb(46,46,46);stroke-width:2.73px;"
   id="path8" />
                <path
   d="M301.513,158.58L301.513,192.177"
   style="fill:none;fill-rule:nonzero;stroke:rgb(46,46,46);stroke-width:2.73px;stroke-linecap:square;stroke-dasharray:5.47,5.47,0,0;"
   id="path9" />
            </g>
        </g>
        <g
   id="line26"
   transform="matrix(6.12323e-17,1,-1,6.12323e-17,66.4581,69.178)">
            <g
   transform="matrix(6.12323e-17,-1,2.28332,1.39813e-16,-204.116,557.213)"
   id="g11">
                <path
   d="M479.957,163.09L475.855,158.988L471.753,163.09"
   style="fill:none;fill-rule:nonzero;stroke:rgb(46,46,46);stroke-width:2.73px;"
   id="path10" />
                <path
   d="M475.855,158.988L475.855,191.973"
   style="fill:none;fill-rule:nonzero;stroke:rgb(46,46,46);stroke-width:2.73px;stroke-linecap:square;stroke-linejoin:round;stroke-miterlimit:4;stroke-dasharray:5.47,5.47,0,0;"
   id="path11" />
            </g>
        </g>
        <g
   id="line30"
   transform="matrix(6.12323e-17,1,-1,6.12323e-17,66.4581,69.178)">
            <g
   transform="matrix(6.12323e-17,-1,2.28332,1.39813e-16,-204.116,557.213)"
   id="g13">
                <path
   d="M131.273,163.09L127.171,158.988L123.069,163.09"
   style="fill:none;fill-rule:nonzero;stroke:rgb(46,46,46);stroke-width:2.73px;"
   id="path12" />
                <path
   d="M127.171,158.988L127.171,191.81"
   style="fill:none;fill-rule:nonzero;stroke:rgb(46,46,46);stroke-width:2.73px;stroke-linecap:square;stroke-linejoin:round;stroke-miterlimit:4;stroke-dasharray:5.47,5.47,0,0;"
   id="path13" />
            </g>
        </g>
    </g>
    <g
   transform="matrix(1,0,0,1,-238.046,165.015)"
   id="g16">
        <path
   id="path1074"
   d="M511.482,216.582C511.482,212.959 514.463,209.978 518.086,209.978L551.046,209.978C552.797,209.979 554.478,210.675 555.715,211.913L568.983,225.181C570.221,226.418 570.917,228.099 570.918,229.85L570.918,276.018C570.918,279.641 567.937,282.622 564.314,282.622L517.261,282.622C515.904,282.619 514.789,281.502 514.789,280.145C514.789,278.788 515.904,277.671 517.261,277.669L564.314,277.669C565.22,277.669 565.965,276.924 565.965,276.018L565.965,234.743L552.757,234.743C549.134,234.743 546.153,231.762 546.153,228.139L546.153,214.931L518.086,214.931C517.18,214.931 516.435,215.676 516.435,216.582L516.435,237.22C516.433,238.577 515.316,239.693 513.959,239.693C512.601,239.693 511.484,238.577 511.482,237.22L511.482,216.582ZM551.106,214.931L551.106,228.139C551.106,229.045 551.851,229.79 552.757,229.79L565.965,229.79C565.95,229.373 565.778,228.976 565.483,228.681L552.215,215.413C551.92,215.118 551.523,214.946 551.106,214.931Z"
   style="fill:rgb(46,46,46);fill-rule:nonzero;" />
        <path
   id="path1076"
   d="M516.534,247.092C516.96,247.55 517.196,248.153 517.196,248.778C517.196,249.466 516.91,250.124 516.405,250.593L507.692,258.682L516.409,266.772C516.913,267.241 517.201,267.9 517.201,268.589C517.201,269.949 516.082,271.068 514.722,271.068C514.096,271.068 513.493,270.831 513.034,270.404L502.369,260.499C501.863,260.03 501.576,259.371 501.576,258.682C501.576,257.993 501.863,257.335 502.369,256.866L513.034,246.96C513.492,246.536 514.094,246.3 514.718,246.3C515.407,246.3 516.066,246.587 516.534,247.092ZM529.673,250.593C529.165,250.124 528.876,249.464 528.876,248.773C528.876,247.414 529.994,246.296 531.353,246.296C531.979,246.296 532.583,246.534 533.041,246.96L543.71,256.866C544.215,257.335 544.502,257.993 544.502,258.682C544.502,259.371 544.215,260.03 543.71,260.499L533.044,270.404C532.586,270.831 531.982,271.068 531.356,271.068C529.997,271.068 528.878,269.95 528.878,268.591C528.878,267.901 529.166,267.241 529.673,266.772L538.387,258.682L529.669,250.593L529.673,250.593Z"
   style="fill:rgb(46,46,46);fill-rule:nonzero;" />
        <g
   transform="matrix(1,0,0,1,512.372,310.143)"
   id="g15">
            <text
   x="0px"
   y="0px"
   style="font-family:'LucidaGrande-Bold', 'Lucida Grande', sans-serif;font-weight:600;font-size:24px;fill:rgb(46,46,46);"
   id="text14">LCAx</text>
        </g>
    </g>
    <g
   id="text1140">
    </g>
    <g
   transform="matrix(0.142603,0,0,0.142603,92.7122,63.7233)"
   id="g22">
        <g
   id="oneclick">
            <g
   id="g21">
                <g
   id="path796"
   transform="matrix(1,0,0,1,2804.6,0)">
                    <path
   d="M152.946,59.745L111.196,60.565L-7.716,340.993L46.06,342.778L81.853,263.208L184.622,262.956L220.64,340.208L276.757,341.69L152.946,59.745ZM130.847,146.708L162.315,212.897L103.294,212.387L130.847,146.708Z"
   style="fill:rgb(46,46,46);fill-rule:nonzero;"
   id="path16" />
                </g>
                <g
   id="path800"
   transform="matrix(1,0,0,1,2804.6,0)">
                    <path
   d="M-31.651,140.648L-31.998,81.536C-65.944,65.382 -99.367,58.915 -132.423,59.238C-170.593,58.68 -207.579,69.538 -242.295,102.283C-268.88,128.406 -283.886,160.557 -282.46,201.264C-282.19,233.783 -275.53,266.988 -241.429,303.139C-207.326,335.839 -169.992,344.448 -131.349,343.29C-95.837,343.745 -61.497,336.656 -28.613,320.197L-30.379,258.926C-58.488,281.111 -91.749,291.739 -129.272,292.805C-161.291,294.793 -183.41,282.846 -202.345,266.418C-218.021,246.363 -230.069,225.444 -228.415,201.264C-228.713,178.902 -222.436,157.555 -204.438,138.016C-181.054,117.836 -155.516,109.273 -128.439,109.007C-97.989,109.042 -65.509,120.848 -31.651,140.648Z"
   style="fill:rgb(46,46,46);fill-rule:nonzero;"
   id="path17" />
                </g>
                <g
   id="path802"
   transform="matrix(1,0,0,1,2804.6,0)">
                    <path
   d="M-405.661,59.238L-458.615,59.238L-458.979,343.81L-287.688,343.81L-287.75,293.921L-406.67,292.441L-405.661,59.238Z"
   style="fill:rgb(46,46,46);fill-rule:nonzero;"
   id="path18" />
                </g>
                <g
   id="path804"
   transform="matrix(1,0,0,1,2804.6,0)">
                    <path
   d="M-411.961,390.48L-367.214,373.269C-307.255,446.169 -231.793,494.824 -126.012,496.067C-31.082,496.104 48.075,455.477 111.687,374.772L157.77,394.061C88.593,489.853 -5.997,541.374 -128.282,544.653C-252.105,540.942 -344.724,486.388 -411.961,390.48Z"
   style="fill:rgb(46,46,46);fill-rule:nonzero;"
   id="path19" />
                </g>
                <g
   id="path806"
   transform="matrix(1,0,0,1,2804.6,0)">
                    <path
   d="M-401.065,9.144C-339.939,-72.645 -260.628,-115.697 -166.267,-126.686L-166.336,-178.679L-40.659,-107.03L-166.298,-34.319L-167.046,-79.022C-243.982,-66.823 -308.004,-30.781 -357.475,32.125L-401.065,9.144Z"
   style="fill:rgb(46,46,46);fill-rule:nonzero;"
   id="path20" />
                </g>
                <g
   id="path808"
   transform="matrix(1,0,0,1,2804.6,0)">
                    <path
   d="M145.563,4.216L102.544,26.825C63.353,-20.693 14.711,-51.975 -39.655,-73.422L13.094,-102.835C73.726,-73.062 115.303,-36.453 145.563,4.216Z"
   style="fill:rgb(46,46,46);fill-rule:nonzero;"
   id="path21" />
                </g>
            </g>
        </g>
    </g>
    <g
   transform="matrix(1.32496,0,0,1.32496,74.1431,-176.293)"
   id="g24">
        <g
   id="realtime">
            <g
   id="g23">
                <path
   id="path1140"
   d="M30.416,221.818L30.416,202.108L39.501,192.805L48.585,202.108L48.585,241.026L39.501,241.026C31.775,241.026 24.224,238.735 17.8,234.443C11.375,230.151 6.369,224.05 3.41,216.912C0.455,209.774 -0.321,201.92 1.188,194.342C2.697,186.765 6.414,179.804 11.877,174.341C17.34,168.878 24.302,165.158 31.879,163.651C39.455,162.143 47.313,162.917 54.45,165.874C61.587,168.83 67.688,173.837 71.982,180.261C76.271,186.685 78.563,194.237 78.563,201.963L61.334,201.963C61.334,197.645 60.053,193.423 57.654,189.832C55.254,186.242 51.847,183.443 47.856,181.79C43.865,180.138 39.476,179.705 35.24,180.548C31.004,181.39 27.112,183.47 24.062,186.523C21.007,189.577 18.927,193.468 18.086,197.703C17.244,201.939 17.675,206.329 19.329,210.319C20.978,214.309 23.78,217.719 27.369,220.118C28.343,220.768 29.359,221.335 30.416,221.818Z"
   style="fill:rgb(46,46,46);" />
            </g>
        </g>
    </g>
    <g
   transform="matrix(0.401364,0,0,0.401364,321.02,-59.4249)"
   id="g26">
        <g
   id="lcabyg">
            <g
   id="g25">
                <g
   id="path866"
   transform="matrix(1.06906,0,0,1.07344,28.8353,-44.594)">
                    <path
   d="M-30.443,374.935L29.561,414.73L60.831,349.327L33.991,331.527L26.182,347.832C19.255,332.332 9.056,318.512 -3.711,307.322C-78.835,241.185 -198.916,295.636 -198.59,395.843C-198.59,460.639 -145.868,513.351 -81.072,513.351C-40.489,513.65 -1.211,491.384 19.533,456.59L-7.743,440.085C-53.461,514.302 -165.154,481.574 -166.73,395.2C-166.912,374.093 -160.181,357.941 -145.723,344.752C-134.563,334.561 -81.072,293.39 -81.072,293.39C-60.69,307.186 -37.808,320.991 -19.129,337.451C-9.518,346.011 -3.73,350.83 0.356,357.117L-16.548,345.894L-30.443,374.935Z"
   style="fill:rgb(46,46,46);fill-rule:nonzero;"
   id="path24" />
                </g>
                <g
   id="path868"
   transform="matrix(1.06906,0,0,1.07344,28.8353,-44.594)">
                    <path
   d="M-39.285,377.381L-22.372,342.053L-81.072,301.706L-149.166,358.249C-149.166,358.249 -149.284,434.586 -149.166,434.759C-135.243,459.217 -107.496,475.522 -78.835,474.481C-51.418,473.799 -26.282,458.769 -12.707,434.94L-12.707,394.991L-39.285,377.381Z"
   style="fill:rgb(46,46,46);fill-rule:nonzero;"
   id="path25" />
                </g>
            </g>
        </g>
    </g>
    <g
   transform="matrix(0.697518,0,0,0.697518,397.287,209.462)"
   id="g36">
        <g
   id="Layer-1"
   serif:id="Layer 1">
            <g
   id="g35">
                <g
   transform="matrix(0.77856,0,0,0.77856,30.1266,26.0272)"
   id="g28">
                    <path
   id="path414"
   d="M8.073,28.703L105.833,84.901L105.833,179.155L8.073,122.713L8.073,28.703Z"
   style="fill:#973342;fill-rule:nonzero;stroke:white;stroke-width:2.15px;stroke-miterlimit:4;fill-opacity:1"
   inkscape:label="path414" />
                    <path
   id="path416"
   d="M105.833,85.11L203.594,28.596L203.594,122.713L105.833,179.155L105.833,85.11Z"
   style="fill:#d68e98;fill-opacity:1;fill-rule:nonzero;stroke:white;stroke-width:2.15px;stroke-miterlimit:4" />
                    <g
   id="path424"
   transform="matrix(1,0,0,1,0,-60.1712)"
   style="fill:#973342;fill-opacity:1">
                        <path
   d="M105.833,70.034L138.42,88.848L109.092,105.78L105.833,103.899L105.833,70.034Z"
   style="fill:#973342;fill-rule:nonzero;stroke:white;stroke-width:2.15px;stroke-miterlimit:4;fill-opacity:1"
   id="path26" />
                    </g>
                    <g
   id="path438"
   transform="matrix(1,0,0,1,0,-60.1712)"
   style="fill:#d68e98;fill-opacity:1">
                        <path
   d="M105.833,70.034L105.833,103.899L102.575,105.78L73.247,88.848L105.833,70.034Z"
   style="fill:#d68e98;fill-opacity:1;fill-rule:nonzero;stroke:white;stroke-width:2.15px;stroke-miterlimit:4"
   id="path27" />
                    </g>
                    <g
   id="path420"
   transform="matrix(1,0,0,1,0,-60.1712)"
   style="fill:#c15665;fill-opacity:1">
                        <path
   d="M105.833,32.406L8.073,88.848L105.833,145.289L203.594,88.848L105.833,32.406ZM105.833,70.033L138.42,88.848L105.833,107.662L73.247,88.848L105.833,70.033Z"
   style="fill:#c15665;fill-opacity:1;fill-rule:nonzero;stroke:white;stroke-width:2.15px;stroke-miterlimit:4"
   id="path28" />
                    </g>
                </g>
                <g
   transform="matrix(1.43365,0,0,1.43365,-344.43,-316.775)"
   id="g29">
                    <path
   d="M318.449,312.501L371.625,281.532"
   style="fill:none;stroke:white;stroke-width:0.5px;stroke-linejoin:bevel;stroke-miterlimit:1.5;stroke-dasharray:1.5,1.5,0,0;"
   id="path29" />
                </g>
                <g
   transform="matrix(1.43365,0,0,1.43365,-344.43,-334.881)"
   id="g30">
                    <path
   d="M318.449,312.501L371.625,281.532"
   style="fill:none;stroke:white;stroke-width:0.5px;stroke-linejoin:bevel;stroke-miterlimit:1.5;stroke-dasharray:1.5,1.5,0,0;"
   id="path30" />
                </g>
                <g
   transform="matrix(1.43365,0,0,1.43365,-344.43,-299.516)"
   id="g31">
                    <path
   d="M318.449,312.501L371.625,281.532"
   style="fill:none;stroke:white;stroke-width:0.5px;stroke-linejoin:bevel;stroke-miterlimit:1.5;stroke-dasharray:1.5,1.5,0,0;"
   id="path31" />
                </g>
                <g
   transform="matrix(-1.43365,0,0,1.43365,568.879,-316.775)"
   id="g32">
                    <path
   d="M318.449,312.501L371.625,281.532"
   style="fill:none;stroke:white;stroke-width:0.5px;stroke-linejoin:bevel;stroke-miterlimit:1.5;stroke-dasharray:1.5,1.5,0,0;"
   id="path32" />
                </g>
                <g
   transform="matrix(-1.43365,0,0,1.43365,568.879,-334.881)"
   id="g33">
                    <path
   d="M318.449,312.501L371.625,281.532"
   style="fill:none;stroke:white;stroke-width:0.5px;stroke-linejoin:bevel;stroke-miterlimit:1.5;stroke-dasharray:1.5,1.5,0,0;"
   id="path33" />
                </g>
                <g
   transform="matrix(-1.43365,0,0,1.43365,568.879,-299.516)"
   id="g34">
                    <path
   d="M318.449,312.501L371.625,281.532"
   style="fill:none;stroke:white;stroke-width:0.5px;stroke-linejoin:bevel;stroke-miterlimit:1.5;stroke-dasharray:1.5,1.5,0,0;"
   id="path34" />
                </g>
            </g>
        </g>
    </g>
    <g
   transform="matrix(0.585193,0,0,0.585193,79.8413,213.549)"
   id="g47">
        <g
   id="Layer-11"
   serif:id="Layer 1">
            <g
   id="g46">
                <g
   id="path422"
   transform="matrix(1,0,0,1,0,-13.3482)"
   style="fill:#8d98d6;fill-opacity:1">
                    <path
   d="M139.007,35.358L139.007,88.152L78.045,123.348L78.045,70.554L139.007,35.358Z"
   style="fill:#8d98d6;fill-opacity:1;fill-rule:nonzero;stroke:rgb(242, 242, 242);stroke-width:2.56px;stroke-linejoin:bevel;stroke-miterlimit:4"
   id="path36" />
                </g>
                <g
   id="path436"
   transform="matrix(1,0,0,1,0,-13.3482)"
   style="fill:#8d98d6;fill-opacity:1">
                    <path
   d="M139.007,158.545L139.007,211.339L199.969,176.143L199.969,123.348L139.007,158.545Z"
   style="fill:#8d98d6;fill-opacity:1;fill-rule:nonzero;stroke:rgb(242, 242, 242);stroke-width:2.56px;stroke-linejoin:bevel;stroke-miterlimit:4"
   id="path37" />
                </g>
                <g
   id="path440"
   transform="matrix(1,0,0,1,0,-13.3482)"
   style="fill:#8697b6;fill-opacity:1">
                    <path
   d="M139.007,88.152L199.969,123.348L139.007,158.545L78.045,123.348L139.007,88.152Z"
   style="fill:#8697b6;fill-opacity:1;fill-rule:nonzero;stroke:rgb(242, 242, 242);stroke-width:2.56px;stroke-linejoin:bevel;stroke-miterlimit:4"
   id="path38" />
                </g>
                <g
   id="path442"
   transform="matrix(1,0,0,1,0,-13.3482)"
   style="fill:#334397;fill-opacity:1">
                    <path
   d="M17.084,35.358L17.084,140.947L139.007,211.339L139.007,158.545L78.045,123.348L78.045,70.554L17.084,35.358L78.045,70.554L17.084,35.358Z"
   style="fill:#334397;fill-rule:nonzero;stroke:rgb(242, 242, 242);stroke-width:2.56px;stroke-linejoin:bevel;stroke-miterlimit:4;fill-opacity:1"
   id="path39" />
                </g>
                <g
   id="path440-7"
   transform="matrix(1,0,0,1,0,-13.3482)">
                    <path
   d="M77.758,0.161L138.72,35.357L77.758,70.554L16.796,35.357L77.758,0.161Z"
   style="fill:#8697b6;fill-opacity:1;fill-rule:nonzero;stroke:rgb(242, 242, 242);stroke-width:2.56px;stroke-linejoin:bevel;stroke-miterlimit:4"
   id="path40" />
                </g>
                <g
   transform="matrix(-2.27977,1.89719e-16,1.89719e-16,2.27977,865.043,-540.407)"
   id="g41">
                    <path
   d="M318.449,312.501L371.625,281.532"
   style="fill:none;stroke:white;stroke-width:0.37px;stroke-linejoin:bevel;stroke-miterlimit:1.5;stroke-dasharray:1.12,1.12,0,0;"
   id="path41" />
                </g>
                <g
   transform="matrix(-1.1406,-3.16337e-17,-3.16337e-17,1.1406,441.698,-246.761)"
   id="g42">
                    <path
   d="M318.449,312.501L371.625,281.532"
   style="fill:none;stroke:white;stroke-width:0.75px;stroke-linejoin:bevel;stroke-miterlimit:1.5;stroke-dasharray:2.25,2.25,0,0;"
   id="path42" />
                </g>
                <g
   transform="matrix(-1.1406,-3.16337e-17,-3.16337e-17,1.1406,441.698,-272.826)"
   id="g43">
                    <path
   d="M318.449,312.501L371.625,281.532"
   style="fill:none;stroke:white;stroke-width:0.75px;stroke-linejoin:bevel;stroke-miterlimit:1.5;stroke-dasharray:2.25,2.25,0,0;"
   id="path43" />
                </g>
                <g
   transform="matrix(1.1406,-3.16337e-17,3.16337e-17,1.1406,-285.083,-272.826)"
   id="g44">
                    <path
   d="M318.449,312.501L371.625,281.532"
   style="fill:none;stroke:white;stroke-width:0.75px;stroke-linejoin:bevel;stroke-miterlimit:1.5;stroke-dasharray:2.25,2.25,0,0;"
   id="path44" />
                </g>
                <g
   transform="matrix(1.1406,-3.16337e-17,3.16337e-17,1.1406,-224.228,-184.647)"
   id="g45">
                    <path
   d="M318.449,312.501L371.625,281.532"
   style="fill:none;stroke:white;stroke-width:0.75px;stroke-linejoin:bevel;stroke-miterlimit:1.5;stroke-dasharray:2.25,2.25,0,0;"
   id="path45" />
                </g>
            </g>
        </g>
    </g>
    <g
   transform="matrix(0.68404,0,0,0.68404,223.724,214.278)"
   id="g59">
        <g
   id="Layer-12"
   serif:id="Layer 1">
            <g
   id="g58">
                <g
   transform="matrix(0.76445,0,0,0.76445,32.6142,23.9124)"
   id="g49">
                    <path
   id="path426"
   d="M105.833,22.49L156.06,-5.454L156.06,37.628L206.288,8.809L206.288,120.264L105.833,178.262L105.833,22.49Z"
   style="fill:#d7cc8e;fill-opacity:1;fill-rule:nonzero;stroke:white;stroke-width:2.19px;stroke-linejoin:bevel;stroke-miterlimit:4" />
                    <path
   id="path428"
   d="M55.606,-5.792L105.833,23.079L105.833,178.262L5.379,120.264L5.379,9.056L55.606,37.443L55.606,-5.792Z"
   style="fill:#958732;fill-rule:nonzero;stroke:white;stroke-width:2.19px;stroke-linejoin:bevel;stroke-miterlimit:4;fill-opacity:1" />
                    <g
   id="path430"
   transform="matrix(1,0,0,1,0,-67.9947)"
   style="fill:#c3b357;fill-opacity:1">
                        <path
   d="M68.163,55.017L55.606,47.768L5.379,76.766L55.606,105.765L55.606,62.267L68.163,55.017Z"
   style="fill:#c3b357;fill-opacity:1;fill-rule:nonzero;stroke:white;stroke-width:2.19px;stroke-linejoin:bevel;stroke-miterlimit:4"
   id="path47" />
                    </g>
                    <g
   id="path432"
   transform="matrix(1,0,0,1,0,-67.9947)"
   style="fill:#c3b357;fill-opacity:1">
                        <path
   d="M105.833,33.268L55.606,62.267L105.833,91.266L156.06,62.267L105.833,33.268Z"
   style="fill:#c3b357;fill-opacity:1;fill-rule:nonzero;stroke:white;stroke-width:2.19px;stroke-linejoin:bevel;stroke-miterlimit:4"
   id="path48" />
                    </g>
                    <g
   id="path434"
   transform="matrix(1,0,0,1,0,-67.9947)"
   style="fill:#c3b357;fill-opacity:1">
                        <path
   d="M143.504,55.017L156.06,47.768L206.288,76.766L156.06,105.765L156.06,62.267L143.504,55.017Z"
   style="fill:#c3b357;fill-opacity:1;fill-rule:nonzero;stroke:white;stroke-width:2.19px;stroke-linejoin:bevel;stroke-miterlimit:4"
   id="path49" />
                    </g>
                </g>
                <g
   transform="matrix(1.4619,0,0,1.4619,-352.44,-316.541)"
   id="g50">
                    <path
   d="M318.449,312.501L371.625,281.532"
   style="fill:none;stroke:white;stroke-width:0.5px;stroke-linejoin:bevel;stroke-miterlimit:1.5;stroke-dasharray:1.5,1.5,0,0;"
   id="path50" />
                </g>
                <g
   transform="matrix(-1.4619,0,0,1.4619,579.011,-316.541)"
   id="g51">
                    <path
   d="M318.449,312.501L371.625,281.532"
   style="fill:none;stroke:white;stroke-width:0.5px;stroke-linejoin:bevel;stroke-miterlimit:1.5;stroke-dasharray:1.5,1.5,0,0;"
   id="path51" />
                </g>
                <g
   transform="matrix(1.4619,0,0,1.4619,-352.44,-337.345)"
   id="g52">
                    <path
   d="M318.449,312.501L371.625,281.532"
   style="fill:none;stroke:white;stroke-width:0.5px;stroke-linejoin:bevel;stroke-miterlimit:1.5;stroke-dasharray:1.5,1.5,0,0;"
   id="path52" />
                </g>
                <g
   transform="matrix(-1.4619,0,0,1.4619,579.011,-337.345)"
   id="g53">
                    <path
   d="M318.449,312.501L371.625,281.532"
   style="fill:none;stroke:white;stroke-width:0.5px;stroke-linejoin:bevel;stroke-miterlimit:1.5;stroke-dasharray:1.5,1.5,0,0;"
   id="path53" />
                </g>
                <g
   transform="matrix(1.4619,0,0,1.4619,-352.44,-360.032)"
   id="g54">
                    <path
   d="M318.449,312.501L371.625,281.532"
   style="fill:none;stroke:white;stroke-width:0.5px;stroke-linejoin:bevel;stroke-miterlimit:1.5;stroke-dasharray:1.5,1.5,0,0;"
   id="path54" />
                </g>
                <g
   transform="matrix(-1.4619,0,0,1.4619,579.011,-360.032)"
   id="g55">
                    <path
   d="M318.449,312.501L371.625,281.532"
   style="fill:none;stroke:white;stroke-width:0.5px;stroke-linejoin:bevel;stroke-miterlimit:1.5;stroke-dasharray:1.5,1.5,0,0;"
   id="path55" />
                </g>
                <g
   transform="matrix(0.735374,0,0,0.735374,-121.078,-154.855)"
   id="g56">
                    <path
   d="M318.449,312.501L371.625,281.532"
   style="fill:none;stroke:white;stroke-width:0.99px;stroke-linejoin:bevel;stroke-miterlimit:1.5;stroke-dasharray:2.98,2.98,0,0;"
   id="path56" />
                </g>
                <g
   transform="matrix(-0.735374,0,0,0.735374,347.649,-154.855)"
   id="g57">
                    <path
   d="M318.449,312.501L371.625,281.532"
   style="fill:none;stroke:white;stroke-width:0.99px;stroke-linejoin:bevel;stroke-miterlimit:1.5;stroke-dasharray:2.98,2.98,0,0;"
   id="path57" />
                </g>
            </g>
        </g>
    </g>
</svg>
