<?xml version="1.0" encoding="UTF-8" standalone="no"?>
<!-- Created with Inkscape (http://www.inkscape.org/) -->

<svg
   width="373.78519mm"
   height="268.67728mm"
   viewBox="0 0 373.78518 268.67727"
   version="1.1"
   id="svg5"
   xml:space="preserve"
   inkscape:version="1.2.2 (b0a8486541, 2022-12-01)"
   sodipodi:docname="lcax_data_structure.svg"
   inkscape:export-filename="lcax_data_structure.png"
   inkscape:export-xdpi="96"
   inkscape:export-ydpi="96"
   xmlns:inkscape="http://www.inkscape.org/namespaces/inkscape"
   xmlns:sodipodi="http://sodipodi.sourceforge.net/DTD/sodipodi-0.dtd"
   xmlns="http://www.w3.org/2000/svg"
   xmlns:svg="http://www.w3.org/2000/svg"><sodipodi:namedview
     id="namedview7"
     pagecolor="#ffffff"
     bordercolor="#000000"
     borderopacity="0.25"
     inkscape:showpageshadow="2"
     inkscape:pageopacity="0.0"
     inkscape:pagecheckerboard="0"
     inkscape:deskcolor="#d1d1d1"
     inkscape:document-units="mm"
     showgrid="false"
     inkscape:zoom="0.48400577"
     inkscape:cx="558.87763"
     inkscape:cy="505.15927"
     inkscape:window-width="1374"
     inkscape:window-height="831"
     inkscape:window-x="0"
     inkscape:window-y="0"
     inkscape:window-maximized="1"
     inkscape:current-layer="layer3" /><defs
     id="defs2"><marker
       style="overflow:visible"
       id="marker5626"
       refX="0"
       refY="0"
       orient="auto-start-reverse"
       inkscape:stockid="RoundedArrow"
       markerWidth="6.1347523"
       markerHeight="5.9304948"
       viewBox="0 0 6.1347524 5.9304951"
       inkscape:isstock="true"
       inkscape:collect="always"
       preserveAspectRatio="xMidYMid"><path
         transform="scale(0.7)"
         d="m -0.21114562,-4.1055728 6.42229122,3.21114561 a 1,1 90 0 1 0,1.78885438 L -0.21114562,4.1055728 A 1.236068,1.236068 31.717474 0 1 -2,3 v -6 a 1.236068,1.236068 148.28253 0 1 1.78885438,-1.1055728 z"
         style="fill:context-stroke;fill-rule:evenodd;stroke:none"
         id="path5624" /></marker><marker
       style="overflow:visible"
       id="marker4774"
       refX="0"
       refY="0"
       orient="auto-start-reverse"
       inkscape:stockid="RoundedArrow"
       markerWidth="6.1347523"
       markerHeight="5.9304953"
       viewBox="0 0 6.1347524 5.9304951"
       inkscape:isstock="true"
       inkscape:collect="always"
       preserveAspectRatio="xMidYMid"><path
         transform="scale(0.7)"
         d="m -0.21114562,-4.1055728 6.42229122,3.21114561 a 1,1 90 0 1 0,1.78885438 L -0.21114562,4.1055728 A 1.236068,1.236068 31.717474 0 1 -2,3 v -6 a 1.236068,1.236068 148.28253 0 1 1.78885438,-1.1055728 z"
         style="fill:context-stroke;fill-rule:evenodd;stroke:none"
         id="path4772" /></marker><marker
       style="overflow:visible"
       id="marker4672"
       refX="0"
       refY="0"
       orient="auto-start-reverse"
       inkscape:stockid="RoundedArrow"
       markerWidth="6.1347523"
       markerHeight="5.9304953"
       viewBox="0 0 6.1347524 5.9304951"
       inkscape:isstock="true"
       inkscape:collect="always"
       preserveAspectRatio="xMidYMid"><path
         transform="scale(0.7)"
         d="m -0.21114562,-4.1055728 6.42229122,3.21114561 a 1,1 90 0 1 0,1.78885438 L -0.21114562,4.1055728 A 1.236068,1.236068 31.717474 0 1 -2,3 v -6 a 1.236068,1.236068 148.28253 0 1 1.78885438,-1.1055728 z"
         style="fill:context-stroke;fill-rule:evenodd;stroke:none"
         id="path4670" /></marker><marker
       style="overflow:visible"
       id="marker4588"
       refX="0"
       refY="0"
       orient="auto-start-reverse"
       inkscape:stockid="RoundedArrow"
       markerWidth="6.1347523"
       markerHeight="5.9304953"
       viewBox="0 0 6.1347524 5.9304951"
       inkscape:isstock="true"
       inkscape:collect="always"
       preserveAspectRatio="xMidYMid"><path
         transform="scale(0.7)"
         d="m -0.21114562,-4.1055728 6.42229122,3.21114561 a 1,1 90 0 1 0,1.78885438 L -0.21114562,4.1055728 A 1.236068,1.236068 31.717474 0 1 -2,3 v -6 a 1.236068,1.236068 148.28253 0 1 1.78885438,-1.1055728 z"
         style="fill:context-stroke;fill-rule:evenodd;stroke:none"
         id="path4586" /></marker><marker
       style="overflow:visible"
       id="marker4522"
       refX="0"
       refY="0"
       orient="auto-start-reverse"
       inkscape:stockid="RoundedArrow"
       markerWidth="6.1347523"
       markerHeight="5.9304953"
       viewBox="0 0 6.1347524 5.9304951"
       inkscape:isstock="true"
       inkscape:collect="always"
       preserveAspectRatio="xMidYMid"><path
         transform="scale(0.7)"
         d="m -0.21114562,-4.1055728 6.42229122,3.21114561 a 1,1 90 0 1 0,1.78885438 L -0.21114562,4.1055728 A 1.236068,1.236068 31.717474 0 1 -2,3 v -6 a 1.236068,1.236068 148.28253 0 1 1.78885438,-1.1055728 z"
         style="fill:context-stroke;fill-rule:evenodd;stroke:none"
         id="path4520" /></marker><marker
       style="overflow:visible"
       id="marker4474"
       refX="0"
       refY="0"
       orient="auto-start-reverse"
       inkscape:stockid="RoundedArrow"
       markerWidth="6.1347523"
       markerHeight="5.9304953"
       viewBox="0 0 6.1347524 5.9304951"
       inkscape:isstock="true"
       inkscape:collect="always"
       preserveAspectRatio="xMidYMid"><path
         transform="scale(0.7)"
         d="m -0.21114562,-4.1055728 6.42229122,3.21114561 a 1,1 90 0 1 0,1.78885438 L -0.21114562,4.1055728 A 1.236068,1.236068 31.717474 0 1 -2,3 v -6 a 1.236068,1.236068 148.28253 0 1 1.78885438,-1.1055728 z"
         style="fill:context-stroke;fill-rule:evenodd;stroke:none"
         id="path4472" /></marker><marker
       style="overflow:visible"
       id="RoundedArrow"
       refX="0"
       refY="0"
       orient="auto-start-reverse"
       inkscape:stockid="RoundedArrow"
       markerWidth="6.1347523"
       markerHeight="5.9304953"
       viewBox="0 0 6.1347524 5.9304951"
       inkscape:isstock="true"
       inkscape:collect="always"
       preserveAspectRatio="xMidYMid"><path
         transform="scale(0.7)"
         d="m -0.21114562,-4.1055728 6.42229122,3.21114561 a 1,1 90 0 1 0,1.78885438 L -0.21114562,4.1055728 A 1.236068,1.236068 31.717474 0 1 -2,3 v -6 a 1.236068,1.236068 148.28253 0 1 1.78885438,-1.1055728 z"
         style="fill:context-stroke;fill-rule:evenodd;stroke:none"
         id="path1367" /></marker><rect
       x="49.732611"
       y="893.15909"
       width="548.02783"
       height="92.822451"
       id="rect3741" /><rect
       x="31.111185"
       y="931.27959"
       width="245.46891"
       height="54.116254"
       id="rect2032" /><rect
       x="49.732613"
       y="893.15912"
       width="548.02783"
       height="92.822449"
       id="rect3741-3" /><rect
       x="49.732613"
       y="893.15912"
       width="548.02783"
       height="92.822449"
       id="rect3741-4" /><rect
       x="49.732613"
       y="893.15912"
       width="548.02783"
       height="92.822449"
       id="rect3741-2" /><rect
       x="49.732611"
       y="893.15909"
       width="548.02783"
       height="92.822451"
       id="rect5637" /><rect
       x="49.732613"
       y="893.15912"
       width="548.02783"
       height="92.822449"
       id="rect5639" /><rect
       x="49.732613"
       y="893.15912"
       width="548.02783"
       height="92.822449"
       id="rect5641" /><rect
       x="49.732613"
       y="893.15912"
       width="548.02783"
       height="92.822449"
       id="rect5643" /></defs><g
     inkscape:label="Color"
     inkscape:groupmode="layer"
     id="g5635"
     transform="translate(3.6576461,-86.914568)"><g
       style="fill:none;stroke:currentColor;stroke-width:2;stroke-linecap:round;stroke-linejoin:round"
       id="g5358"
       transform="matrix(2.0833333,0,0,2.0833333,179.65572,285.81291)"
       inkscape:label="Box-5"><path
         stroke="none"
         d="M 0,0 H 24 V 24 H 0 Z"
         fill="none"
         id="path5348"
         sodipodi:insensitive="true" /><path
         d="m 12,3 8,4.5 v 9 L 12,21 4,16.5 v -9 L 12,3"
         id="path5350"
         style="stroke-width:0.96;stroke-dasharray:none;stroke:none;fill:#958732;fill-opacity:1" /><path
         d="M 12,12 20,7.5"
         id="path5352"
         style="stroke-width:0.96;stroke-dasharray:none;stroke:#ffffff;stroke-opacity:1" /><path
         d="m 12,12 v 9"
         id="path5354"
         style="stroke-width:0.96;stroke-dasharray:none;stroke:#ffffff;stroke-opacity:1" /><path
         d="M 12,12 4,7.5"
         id="path5356"
         style="stroke-width:0.96;stroke-dasharray:none;stroke:#ffffff;stroke-opacity:1" /></g><g
       style="fill:none;stroke:currentColor;stroke-width:2;stroke-linecap:round;stroke-linejoin:round"
       id="g5370"
       transform="matrix(2.0833333,0,0,2.0833333,179.65572,239.95276)"
       inkscape:label="Box-4"><path
         stroke="none"
         d="M 0,0 H 24 V 24 H 0 Z"
         fill="none"
         id="path5360"
         sodipodi:insensitive="true" /><path
         d="m 12,3 8,4.5 v 9 L 12,21 4,16.5 v -9 L 12,3"
         id="path5362"
         style="stroke-width:0.96;stroke-dasharray:none;fill:#958732;fill-opacity:1;stroke:none" /><path
         d="M 12,12 20,7.5"
         id="path5364"
         style="stroke-width:0.96;stroke-dasharray:none;stroke:#ffffff;stroke-opacity:1" /><path
         d="m 12,12 v 9"
         id="path5366"
         style="stroke-width:0.96;stroke-dasharray:none;stroke:#ffffff;stroke-opacity:1" /><path
         d="M 12,12 4,7.5"
         id="path5368"
         style="stroke-width:0.96;stroke-dasharray:none;stroke:#ffffff;stroke-opacity:1" /></g><g
       style="fill:none;stroke:currentColor;stroke-width:2;stroke-linecap:round;stroke-linejoin:round"
       id="g5382"
       transform="matrix(2.0833333,0,0,2.0833333,179.65572,194.09261)"
       inkscape:label="Box-3"><path
         stroke="none"
         d="M 0,0 H 24 V 24 H 0 Z"
         fill="none"
         id="path5372"
         sodipodi:insensitive="true" /><path
         d="m 12,3 8,4.5 v 9 L 12,21 4,16.5 v -9 L 12,3"
         id="path5374"
         style="stroke-width:0.96;stroke-dasharray:none;stroke:none;fill:#958732;fill-opacity:1" /><path
         d="M 12,12 20,7.5"
         id="path5376"
         style="stroke-width:0.96;stroke-dasharray:none;stroke:#ffffff;stroke-opacity:1" /><path
         d="m 12,12 v 9"
         id="path5378"
         style="stroke-width:0.96;stroke-dasharray:none;stroke:#ffffff;stroke-opacity:1" /><path
         d="M 12,12 4,7.5"
         id="path5380"
         style="stroke-width:0.96;stroke-dasharray:none;stroke:#ffffff;stroke-opacity:1" /></g><g
       style="fill:none;stroke:currentColor;stroke-width:2;stroke-linecap:round;stroke-linejoin:round"
       id="g5394"
       transform="matrix(2.0833333,0,0,2.0833333,179.65572,129.79905)"
       inkscape:label="Box-2"><path
         stroke="none"
         d="M 0,0 H 24 V 24 H 0 Z"
         fill="none"
         id="path5384"
         sodipodi:insensitive="true" /><path
         d="m 12,3 8,4.5 v 9 L 12,21 4,16.5 v -9 L 12,3"
         id="path5386"
         style="stroke-width:0.96;stroke-dasharray:none;stroke:none;fill:#958732;fill-opacity:1" /><path
         d="M 12,12 20,7.5"
         id="path5388"
         style="stroke-width:0.96;stroke-dasharray:none;stroke:#ffffff;stroke-opacity:1" /><path
         d="m 12,12 v 9"
         id="path5390"
         style="stroke-width:0.96;stroke-dasharray:none;stroke:#ffffff;stroke-opacity:1" /><path
         d="M 12,12 4,7.5"
         id="path5392"
         style="stroke-width:0.96;stroke-dasharray:none;stroke:#ffffff;stroke-opacity:1" /></g><g
       style="fill:none;stroke:currentColor;stroke-width:2;stroke-linecap:round;stroke-linejoin:round"
       id="g5406"
       transform="matrix(2.0833333,0,0,2.0833333,179.65572,83.753072)"
       inkscape:label="Box-1"><path
         stroke="none"
         d="M 0,0 H 24 V 24 H 0 Z"
         fill="none"
         id="path5396" /><path
         d="m 12,3 8,4.5 v 9 L 12,21 4,16.5 v -9 L 12,3"
         id="path5398"
         style="stroke-width:0.96;stroke-dasharray:none;stroke:none;fill:#958732;fill-opacity:1" /><path
         d="M 12,12 20,7.5"
         id="path5400"
         style="stroke-width:0.96;stroke-dasharray:none;stroke:#ffffff;stroke-opacity:1" /><path
         d="m 12,12 v 9"
         id="path5402"
         style="stroke-width:0.96;stroke-dasharray:none;stroke:#ffffff;stroke-opacity:1" /><path
         d="M 12,12 4,7.5"
         id="path5404"
         style="stroke-width:0.96;stroke-dasharray:none;stroke:#ffffff;stroke-opacity:1" /></g><g
       style="fill:none;stroke:currentColor;stroke-width:2;stroke-linecap:round;stroke-linejoin:round"
       id="g5450"
       transform="matrix(2.0833333,0,0,2.0833333,96.116265,236.32776)"
       inkscape:label="Wall-2"><path
         stroke="none"
         d="M 0,0 H 24 V 24 H 0 Z"
         fill="none"
         id="path5430"
         sodipodi:insensitive="true" /><path
         d="M 4,4 M 4,6 A 2,2 0 0 1 6,4 h 12 a 2,2 0 0 1 2,2 v 12 a 2,2 0 0 1 -2,2 H 6 A 2,2 0 0 1 4,18 Z"
         id="path5432"
         style="stroke-width:0.96;stroke-dasharray:none;fill:#334397;fill-opacity:1;stroke:none" /><path
         d="M 4,8 H 20"
         id="path5434"
         style="stroke-width:0.96;stroke-dasharray:none;stroke:#ffffff;stroke-opacity:1" /><path
         d="M 20,12 H 4"
         id="path5436"
         style="stroke-width:0.96;stroke-dasharray:none;stroke:#ffffff;stroke-opacity:1" /><path
         d="M 4,16 H 20"
         id="path5438"
         style="stroke-width:0.96;stroke-dasharray:none;stroke:#ffffff;stroke-opacity:1" /><path
         d="M 9,4 V 8"
         id="path5440"
         style="stroke-width:0.96;stroke-dasharray:none;stroke:#ffffff;stroke-opacity:1" /><path
         d="m 14,8 v 4"
         id="path5442"
         style="stroke-width:0.96;stroke-dasharray:none;stroke:#ffffff;stroke-opacity:1" /><path
         d="m 8,12 v 4"
         id="path5444"
         style="stroke-width:0.96;stroke-dasharray:none;stroke:#ffffff;stroke-opacity:1" /><path
         d="m 16,12 v 4"
         id="path5446"
         style="stroke-width:0.96;stroke-dasharray:none;stroke:#ffffff;stroke-opacity:1" /><path
         d="m 11,16 v 4"
         id="path5448"
         style="stroke-width:0.96;stroke-dasharray:none;stroke:#ffffff;stroke-opacity:1" /></g><g
       style="fill:none;stroke:currentColor;stroke-width:2;stroke-linecap:round;stroke-linejoin:round"
       id="g5428"
       transform="matrix(2.0833333,0,0,2.0833333,97.199598,105.67727)"
       inkscape:label="Wall-1"><path
         stroke="none"
         d="M 0,0 H 24 V 24 H 0 Z"
         fill="none"
         id="path5408"
         sodipodi:insensitive="true" /><path
         d="M 4,4 M 4,6 A 2,2 0 0 1 6,4 h 12 a 2,2 0 0 1 2,2 v 12 a 2,2 0 0 1 -2,2 H 6 A 2,2 0 0 1 4,18 Z"
         id="path5410"
         style="stroke-width:0.96;stroke-dasharray:none;stroke:none;fill:#334397;fill-opacity:1" /><path
         d="M 4,8 H 20"
         id="path5412"
         style="stroke-width:0.96;stroke-dasharray:none;stroke:#fefefe;stroke-opacity:1" /><path
         d="M 20,12 H 4"
         id="path5414"
         style="stroke-width:0.96;stroke-dasharray:none;stroke:#fefefe;stroke-opacity:1" /><path
         d="M 4,16 H 20"
         id="path5416"
         style="stroke-width:0.96;stroke-dasharray:none;stroke:#fefefe;stroke-opacity:1" /><path
         d="M 9,4 V 8"
         id="path5418"
         style="stroke-width:0.96;stroke-dasharray:none;stroke:#fefefe;stroke-opacity:1" /><path
         d="m 14,8 v 4"
         id="path5420"
         style="stroke-width:0.96;stroke-dasharray:none;stroke:#fefefe;stroke-opacity:1" /><path
         d="m 8,12 v 4"
         id="path5422"
         style="stroke-width:0.96;stroke-dasharray:none;stroke:#fefefe;stroke-opacity:1"
         inkscape:label="path5422" /><path
         d="m 16,12 v 4"
         id="path5424"
         style="stroke-width:0.96;stroke-dasharray:none;stroke:#fefefe;stroke-opacity:1" /><path
         d="m 11,16 v 4"
         id="path5426"
         style="stroke-width:0.96;stroke-dasharray:none;stroke:#fefefe;stroke-opacity:1" /></g><g
       style="fill:none;stroke:currentColor;stroke-width:2;stroke-linecap:round;stroke-linejoin:round"
       id="g5464"
       transform="matrix(2.0833333,0,0,2.0833333,284.72477,285.81291)"
       inkscape:label="Doc-7"><path
         stroke="none"
         d="M 0,0 H 24 V 24 H 0 Z"
         fill="none"
         id="path5452" /><path
         d="m 14,3 v 4 a 1,1 0 0 0 1,1 h 4"
         id="path5454"
         style="stroke:#000000;stroke-width:0.96;stroke-dasharray:none;stroke-opacity:1" /><path
         d="M 17,21 H 7 A 2,2 0 0 1 5,19 V 5 A 2,2 0 0 1 7,3 h 7 l 5,5 v 11 a 2,2 0 0 1 -2,2 z"
         id="path5456"
         style="stroke:#000000;stroke-width:0.96;stroke-dasharray:none;stroke-opacity:1" /><path
         d="M 9,17 V 12"
         id="path5458"
         style="stroke:#334397;stroke-width:0.96;stroke-dasharray:none;stroke-opacity:1" /><path
         d="M 12,17 V 16"
         id="path5460"
         style="stroke:#958732;stroke-width:0.96;stroke-dasharray:none;stroke-opacity:1" /><path
         d="M 15,17 V 14"
         id="path5462"
         style="stroke:#973342;stroke-width:0.96;stroke-dasharray:none;stroke-opacity:1" /></g><g
       style="fill:none;stroke:currentColor;stroke-width:2;stroke-linecap:round;stroke-linejoin:round"
       id="g5478"
       transform="matrix(2.0833333,0,0,2.0833333,296.17785,236.82776)"
       inkscape:label="Doc-6"><path
         stroke="none"
         d="M 0,0 H 24 V 24 H 0 Z"
         fill="none"
         id="path5466" /><path
         d="m 14,3 v 4 a 1,1 0 0 0 1,1 h 4"
         id="path5468"
         style="stroke:#000000;stroke-width:0.96;stroke-dasharray:none;stroke-opacity:1" /><path
         d="M 17,21 H 7 A 2,2 0 0 1 5,19 V 5 A 2,2 0 0 1 7,3 h 7 l 5,5 v 11 a 2,2 0 0 1 -2,2 z"
         id="path5470"
         style="stroke:#000000;stroke-width:0.96;stroke-dasharray:none;stroke-opacity:1" /><path
         d="M 9,17 V 12"
         id="path5472"
         style="stroke:#334397;stroke-width:0.96;stroke-dasharray:none;stroke-opacity:1" /><path
         d="M 12,17 V 16"
         id="path5474"
         style="stroke:#958732;stroke-width:0.96;stroke-dasharray:none;stroke-opacity:1" /><path
         d="M 15,17 V 14"
         id="path5476"
         style="stroke:#973342;stroke-width:0.96;stroke-dasharray:none;stroke-opacity:1" /></g><g
       style="fill:none;stroke:currentColor;stroke-width:2;stroke-linecap:round;stroke-linejoin:round"
       id="g5492"
       transform="matrix(2.0833333,0,0,2.0833333,284.72477,239.95276)"
       inkscape:label="Doc-5"><path
         stroke="none"
         d="M 0,0 H 24 V 24 H 0 Z"
         fill="none"
         id="path5480" /><path
         d="M 17,21 H 7 A 2,2 0 0 1 5,19 V 5 A 2,2 0 0 1 7,3 h 7 l 5,5 v 11 a 2,2 0 0 1 -2,2 z"
         id="path5482"
         style="stroke:#000000;stroke-width:0.96;stroke-dasharray:none;stroke-opacity:1;fill:#ffffff;fill-opacity:1" /><path
         d="m 14,3 v 4 a 1,1 0 0 0 1,1 h 4"
         id="path5484"
         style="stroke:#000000;stroke-width:0.96;stroke-dasharray:none;stroke-opacity:1" /><path
         d="M 9,17 V 12"
         id="path5486"
         style="stroke:#334397;stroke-width:0.96;stroke-dasharray:none;stroke-opacity:1" /><path
         d="M 12,17 V 16"
         id="path5488"
         style="stroke:#958732;stroke-width:0.96;stroke-dasharray:none;stroke-opacity:1" /><path
         d="M 15,17 V 14"
         id="path5490"
         style="stroke:#973342;stroke-width:0.96;stroke-dasharray:none;stroke-opacity:1" /></g><g
       style="fill:none;stroke:currentColor;stroke-width:2;stroke-linecap:round;stroke-linejoin:round"
       id="g5506"
       transform="matrix(2.0833333,0,0,2.0833333,284.72477,194.09261)"
       inkscape:label="Doc-4"><path
         stroke="none"
         d="M 0,0 H 24 V 24 H 0 Z"
         fill="none"
         id="path5494" /><path
         d="m 14,3 v 4 a 1,1 0 0 0 1,1 h 4"
         id="path5496"
         style="stroke:#000000;stroke-width:0.96;stroke-dasharray:none;stroke-opacity:1" /><path
         d="M 17,21 H 7 A 2,2 0 0 1 5,19 V 5 A 2,2 0 0 1 7,3 h 7 l 5,5 v 11 a 2,2 0 0 1 -2,2 z"
         id="path5498"
         style="stroke:#000000;stroke-width:0.96;stroke-dasharray:none;stroke-opacity:1" /><path
         d="M 9,17 V 12"
         id="path5500"
         style="stroke:#334397;stroke-width:0.96;stroke-dasharray:none;stroke-opacity:1" /><path
         d="M 12,17 V 16"
         id="path5502"
         style="stroke:#958732;stroke-width:0.96;stroke-dasharray:none;stroke-opacity:1" /><path
         d="M 15,17 V 14"
         id="path5504"
         style="stroke:#973342;stroke-width:0.96;stroke-dasharray:none;stroke-opacity:1" /></g><g
       style="fill:none;stroke:currentColor;stroke-width:2;stroke-linecap:round;stroke-linejoin:round"
       id="g5520"
       transform="matrix(2.0833333,0,0,2.0833333,296.17785,125.81997)"
       inkscape:label="Doc-3"><path
         stroke="none"
         d="M 0,0 H 24 V 24 H 0 Z"
         fill="none"
         id="path5508" /><path
         d="m 14,3 v 4 a 1,1 0 0 0 1,1 h 4"
         id="path5510"
         style="stroke:#000000;stroke-width:0.96;stroke-dasharray:none;stroke-opacity:1" /><path
         d="M 17,21 H 7 A 2,2 0 0 1 5,19 V 5 A 2,2 0 0 1 7,3 h 7 l 5,5 v 11 a 2,2 0 0 1 -2,2 z"
         id="path5512"
         style="stroke:#000000;stroke-width:0.96;stroke-dasharray:none;stroke-opacity:1" /><path
         d="M 9,17 V 12"
         id="path5514"
         style="stroke:#334397;stroke-width:0.96;stroke-dasharray:none;stroke-opacity:1" /><path
         d="M 12,17 V 16"
         id="path5516"
         style="stroke:#958732;stroke-width:0.96;stroke-dasharray:none;stroke-opacity:1" /><path
         d="M 15,17 V 14"
         id="path5518"
         style="stroke:#973342;stroke-width:0.96;stroke-dasharray:none;stroke-opacity:1" /></g><g
       style="fill:none;stroke:currentColor;stroke-width:2;stroke-linecap:round;stroke-linejoin:round"
       id="g5534"
       transform="matrix(2.0833333,0,0,2.0833333,284.72477,129.79905)"
       inkscape:label="Doc-2"><path
         stroke="none"
         d="M 0,0 H 24 V 24 H 0 Z"
         fill="none"
         id="path5522" /><path
         d="M 17,21 H 7 A 2,2 0 0 1 5,19 V 5 A 2,2 0 0 1 7,3 h 7 l 5,5 v 11 a 2,2 0 0 1 -2,2 z"
         id="path5524"
         style="stroke:#000000;stroke-width:0.96;stroke-dasharray:none;stroke-opacity:1;fill:#ffffff;fill-opacity:1" /><path
         d="m 14,3 v 4 a 1,1 0 0 0 1,1 h 4"
         id="path5526"
         style="fill:none;stroke:#000000;stroke-width:0.96;stroke-linecap:round;stroke-linejoin:round;stroke-dasharray:none;stroke-opacity:1"
         transform="translate(1.372e-6)" /><path
         d="M 9,17 V 12"
         id="path5528"
         style="stroke:#334397;stroke-width:0.96;stroke-dasharray:none;stroke-opacity:1" /><path
         d="M 12,17 V 16"
         id="path5530"
         style="stroke:#958732;stroke-width:0.96;stroke-dasharray:none;stroke-opacity:1" /><path
         d="M 15,17 V 14"
         id="path5532"
         style="stroke:#973342;stroke-width:0.96;stroke-dasharray:none;stroke-opacity:1" /></g><g
       style="fill:none;stroke:currentColor;stroke-width:2;stroke-linecap:round;stroke-linejoin:round"
       id="g5548"
       transform="matrix(2.0833333,0,0,2.0833333,284.72477,83.753072)"
       inkscape:label="Doc-1"><path
         stroke="none"
         d="M 0,0 H 24 V 24 H 0 Z"
         fill="none"
         id="path5536" /><path
         d="m 14,3 v 4 a 1,1 0 0 0 1,1 h 4"
         id="path5538"
         style="stroke:#000000;stroke-width:0.96;stroke-dasharray:none;stroke-opacity:1" /><path
         d="M 17,21 H 7 A 2,2 0 0 1 5,19 V 5 A 2,2 0 0 1 7,3 h 7 l 5,5 v 11 a 2,2 0 0 1 -2,2 z"
         id="path5540"
         style="stroke:#000000;stroke-width:0.96;stroke-dasharray:none;stroke-opacity:1" /><path
         d="M 9,17 V 12"
         id="path5542"
         style="stroke:#334397;stroke-width:0.96;stroke-dasharray:none;stroke-opacity:1" /><path
         d="M 12,17 V 16"
         id="path5544"
         style="stroke:#958732;stroke-width:0.96;stroke-dasharray:none;stroke-opacity:1" /><path
         d="M 15,17 V 14"
         id="path5546"
         style="stroke:#973342;stroke-width:0.96;stroke-dasharray:none;stroke-opacity:1" /></g><g
       style="fill:none;stroke:currentColor;stroke-width:2;stroke-linecap:round;stroke-linejoin:round"
       id="g5568"
       transform="matrix(2.0833333,0,0,2.0833333,16.597085,244.91667)"
       inkscape:label="Building-1"><path
         stroke="none"
         d="M -2.8497143,-37.900505 H 21.150286 v 24 H -2.8497143 Z"
         fill="none"
         id="path5550"
         style="display:inline"
         sodipodi:insensitive="true" /><path
         d="m 2.1502857,-16.900505 v -16 a 2,2 0 0 1 2,-2 H 14.150286 a 2,2 0 0 1 2,2 v 16"
         id="path5566"
         style="display:inline;fill:#973342;fill-opacity:1;stroke:none;stroke-width:0.96;stroke-dasharray:none" /><path
         d="M 0.15028568,-16.900505 H 18.150286"
         id="path5552"
         style="display:inline;stroke-width:0.96;stroke-dasharray:none;stroke:#973342;stroke-opacity:1" /><path
         d="m 6.1502857,-29.900505 h 1"
         id="path5554"
         style="stroke-width:0.96;stroke-dasharray:none;stroke:#fdfdfd;stroke-opacity:1" /><path
         d="m 6.1502857,-25.900505 h 1"
         id="path5556"
         style="stroke-width:0.96;stroke-dasharray:none;stroke:#fdfdfd;stroke-opacity:1" /><path
         d="m 6.1502857,-21.900505 h 1"
         id="path5558"
         style="stroke-width:0.96;stroke-dasharray:none;stroke:#fdfdfd;stroke-opacity:1" /><path
         d="m 11.150286,-29.900505 h 1"
         id="path5560"
         style="stroke-width:0.96;stroke-dasharray:none;stroke:#fdfdfd;stroke-opacity:1" /><path
         d="m 11.150286,-25.900505 h 1"
         id="path5562"
         style="stroke-width:0.96;stroke-dasharray:none;stroke:#fdfdfd;stroke-opacity:1" /><path
         d="m 11.150286,-21.900505 h 1"
         id="path5564"
         style="stroke-width:0.96;stroke-dasharray:none;stroke:#fdfdfd;stroke-opacity:1" /></g><g
       inkscape:groupmode="layer"
       id="layer2"
       inkscape:label="Arrows"
       transform="translate(-3.6576461,86.914568)"
       sodipodi:insensitive="true"><path
         style="opacity:1;fill:#000000;fill-opacity:1;stroke:#000000;stroke-width:1;stroke-linecap:round;stroke-dasharray:none;stroke-opacity:1;marker-end:url(#RoundedArrow)"
         d="M 60.66018,190.95728 C 97.199596,130.67727 97.199596,130.67727 97.199596,130.67727"
         id="path5610"
         transform="translate(3.657646,-86.914569)" /><path
         style="opacity:1;fill:#000000;fill-opacity:1;stroke:#000000;stroke-width:1;stroke-dasharray:none;stroke-opacity:1;marker-end:url(#marker4474)"
         d="m 60.66018,190.95728 c 35.456085,70.37048 35.456085,70.37048 35.456085,70.37048"
         id="path5612"
         transform="translate(3.657646,-86.914569)" /><path
         style="opacity:1;fill:#000000;fill-opacity:1;stroke:#000000;stroke-width:1;stroke-linecap:round;stroke-dasharray:none;stroke-opacity:1;marker-end:url(#marker4522)"
         d="m 147.1996,130.67727 32.45612,-21.9242"
         id="path5614"
         transform="translate(3.657646,-86.914569)" /><path
         style="opacity:1;fill:#000000;fill-opacity:1;stroke:#000000;stroke-width:1;stroke-linecap:round;stroke-dasharray:none;stroke-opacity:1;marker-end:url(#marker4588)"
         d="m 147.1996,130.67727 32.45612,24.12178"
         id="path5616"
         transform="translate(3.657646,-86.914569)" /><path
         style="opacity:1;fill:#000000;fill-opacity:1;stroke:#000000;stroke-width:1;stroke-linecap:round;stroke-dasharray:none;stroke-opacity:1;marker-end:url(#marker4672)"
         d="m 229.65572,108.75307 h 55.06905"
         id="path5618"
         transform="translate(3.657646,-86.914569)" /><path
         style="opacity:1;fill:#000000;fill-opacity:1;stroke:#000000;stroke-width:1;stroke-linecap:round;stroke-dasharray:none;stroke-opacity:1;marker-end:url(#marker4774)"
         d="m 229.65572,154.79905 h 55.06905"
         id="path5620"
         transform="translate(3.657646,-86.914569)" /><path
         style="opacity:1;fill:#000000;fill-opacity:1;stroke:#000000;stroke-width:1;stroke-linecap:round;stroke-dasharray:none;stroke-opacity:1;marker-end:url(#marker5626)"
         d="m 229.65572,219.09261 h 55.06905"
         id="path5622"
         transform="translate(3.657646,-86.914569)" /><path
         style="opacity:1;fill:#000000;fill-opacity:1;stroke:#000000;stroke-width:1;stroke-linecap:round;stroke-dasharray:none;stroke-opacity:1;marker-end:url(#marker5626)"
         d="m 229.65572,264.95276 h 55.06905"
         id="path5625"
         transform="translate(3.657646,-86.914569)" /><path
         style="opacity:1;fill:#000000;fill-opacity:1;stroke:#000000;stroke-width:1;stroke-linecap:round;stroke-dasharray:none;stroke-opacity:1;marker-end:url(#marker5626)"
         d="m 229.65572,310.81291 h 55.06905"
         id="path5627"
         sodipodi:nodetypes="cc"
         transform="translate(3.657646,-86.914569)" /><path
         style="opacity:1;fill:#000000;fill-opacity:1;stroke:#000000;stroke-width:1;stroke-linecap:round;stroke-dasharray:none;stroke-opacity:1;marker-end:url(#marker5626)"
         d="m 146.11626,261.32776 33.53946,-42.23515"
         id="path5629"
         transform="translate(3.657646,-86.914569)" /><path
         style="opacity:1;fill:#000000;fill-opacity:1;stroke:#000000;stroke-width:1;stroke-linecap:round;stroke-dasharray:none;stroke-opacity:1;marker-end:url(#marker5626)"
         d="m 146.11626,261.32776 33.53946,3.625"
         id="path5631"
         transform="translate(3.657646,-86.914569)" /><path
         style="opacity:1;fill:#000000;fill-opacity:1;stroke:#000000;stroke-width:1;stroke-linecap:round;stroke-dasharray:none;stroke-opacity:1;marker-end:url(#marker5626)"
         d="m 146.11626,261.32776 33.53946,49.48515"
         id="path5633"
         transform="translate(3.657646,-86.914569)" /></g><g
       inkscape:groupmode="layer"
       id="layer3"
       inkscape:label="Text"
       sodipodi:insensitive="true"><g
         aria-label="Project
Level"
         transform="matrix(0.26458333,0,0,0.26458333,-50.23047,98.891305)"
         id="text5578"
         style="font-weight:500;font-size:32px;font-family:Rubik;-inkscape-font-specification:'Rubik Medium';white-space:pre;shape-inside:url(#rect5637);display:inline;opacity:1;stroke-width:0.755906"><path
           d="m 270.74007,922.40715 q -0.32,0 -0.544,-0.224 -0.224,-0.224 -0.224,-0.544 v -20.832 q 0,-0.352 0.224,-0.576 0.224,-0.224 0.544,-0.224 h 8.576 q 2.496,0 4.352,0.8 1.856,0.768 2.88,2.368 1.024,1.568 1.024,3.936 0,2.4 -1.024,3.968 -1.024,1.536 -2.88,2.304 -1.856,0.768 -4.352,0.768 h -4.768 v 7.488 q 0,0.32 -0.224,0.544 -0.192,0.224 -0.544,0.224 z m 3.744,-11.808 h 4.672 q 1.856,0 2.848,-0.864 0.992,-0.896 0.992,-2.624 0,-1.6 -0.928,-2.56 -0.928,-0.992 -2.912,-0.992 h -4.672 z"
           style="text-align:center;text-anchor:middle"
           id="path1604" /><path
           d="m 291.44409,922.40715 q -0.32,0 -0.544,-0.224 -0.224,-0.224 -0.224,-0.544 v -15.072 q 0,-0.352 0.224,-0.576 0.224,-0.224 0.544,-0.224 h 2.592 q 0.32,0 0.544,0.224 0.256,0.224 0.256,0.576 v 1.312 q 0.736,-1.024 1.888,-1.568 1.184,-0.544 2.72,-0.544 h 1.312 q 0.352,0 0.544,0.224 0.224,0.224 0.224,0.544 v 2.304 q 0,0.32 -0.224,0.544 -0.192,0.224 -0.544,0.224 h -2.496 q -1.536,0 -2.4,0.864 -0.832,0.864 -0.832,2.368 v 8.8 q 0,0.32 -0.224,0.544 -0.224,0.224 -0.576,0.224 z"
           style="text-align:center;text-anchor:middle"
           id="path1606" /><path
           d="m 311.15211,922.72715 q -2.56,0 -4.32,-0.896 -1.728,-0.896 -2.656,-2.528 -0.896,-1.632 -1.024,-3.808 -0.032,-0.576 -0.032,-1.408 0,-0.832 0.032,-1.408 0.128,-2.208 1.056,-3.808 0.96,-1.632 2.688,-2.528 1.76,-0.896 4.256,-0.896 2.496,0 4.224,0.896 1.76,0.896 2.688,2.528 0.96,1.6 1.088,3.808 0.032,0.576 0.032,1.408 0,0.832 -0.032,1.408 -0.128,2.176 -1.056,3.808 -0.896,1.632 -2.656,2.528 -1.728,0.896 -4.288,0.896 z m 0,-3.168 q 1.696,0 2.624,-1.056 0.928,-1.088 1.024,-3.168 0.032,-0.48 0.032,-1.248 0,-0.768 -0.032,-1.248 -0.096,-2.048 -1.024,-3.136 -0.928,-1.088 -2.624,-1.088 -1.696,0 -2.624,1.088 -0.928,1.088 -1.024,3.136 -0.032,0.48 -0.032,1.248 0,0.768 0.032,1.248 0.096,2.08 1.024,3.168 0.928,1.056 2.624,1.056 z"
           style="text-align:center;text-anchor:middle"
           id="path1608" /><path
           d="m 319.98415,928.48715 q -0.32,0 -0.544,-0.224 -0.224,-0.224 -0.224,-0.544 v -1.856 q 0,-0.32 0.224,-0.544 0.224,-0.224 0.544,-0.224 h 0.832 q 0.992,0 1.472,-0.352 0.48,-0.352 0.64,-0.992 0.16,-0.608 0.16,-1.376 v -15.84 q 0,-0.32 0.224,-0.544 0.224,-0.224 0.544,-0.224 h 2.784 q 0.32,0 0.544,0.224 0.224,0.224 0.224,0.544 v 15.904 q 0,1.888 -0.704,3.232 -0.672,1.344 -2.048,2.08 -1.344,0.736 -3.456,0.736 z m 3.744,-25.472 q -0.352,0 -0.576,-0.192 -0.224,-0.224 -0.224,-0.576 v -2.304 q 0,-0.32 0.224,-0.544 0.224,-0.224 0.576,-0.224 h 3.008 q 0.352,0 0.576,0.224 0.224,0.224 0.224,0.544 v 2.304 q 0,0.352 -0.224,0.576 -0.224,0.192 -0.576,0.192 z"
           style="text-align:center;text-anchor:middle"
           id="path1610" /><path
           d="m 338.83212,922.72715 q -3.552,0 -5.632,-2.048 -2.08,-2.048 -2.24,-5.824 -0.032,-0.32 -0.032,-0.8 0,-0.512 0.032,-0.8 0.128,-2.4 1.088,-4.16 0.992,-1.76 2.72,-2.688 1.728,-0.96 4.064,-0.96 2.592,0 4.352,1.088 1.76,1.056 2.656,2.976 0.896,1.888 0.896,4.384 v 0.672 q 0,0.32 -0.224,0.544 -0.224,0.224 -0.576,0.224 h -10.624 q 0,0 0,0.096 0,0.096 0,0.16 0.032,1.12 0.416,2.08 0.416,0.928 1.184,1.504 0.8,0.576 1.888,0.576 0.896,0 1.504,-0.256 0.608,-0.288 0.992,-0.64 0.384,-0.352 0.544,-0.576 0.288,-0.384 0.448,-0.448 0.192,-0.096 0.544,-0.096 h 2.752 q 0.32,0 0.512,0.192 0.224,0.192 0.192,0.48 -0.032,0.512 -0.544,1.248 -0.48,0.736 -1.408,1.44 -0.928,0.704 -2.336,1.184 -1.376,0.448 -3.168,0.448 z m -3.52,-10.08 h 7.072 v -0.096 q 0,-1.248 -0.416,-2.176 -0.416,-0.928 -1.216,-1.472 -0.8,-0.544 -1.92,-0.544 -1.12,0 -1.92,0.544 -0.8,0.544 -1.216,1.472 -0.384,0.928 -0.384,2.176 z"
           style="text-align:center;text-anchor:middle"
           id="path1612" /><path
           d="m 357.32811,922.72715 q -2.304,0 -4.064,-0.864 -1.728,-0.864 -2.72,-2.496 -0.96,-1.664 -1.056,-4 -0.032,-0.48 -0.032,-1.248 0,-0.8 0.032,-1.312 0.096,-2.336 1.056,-3.968 0.992,-1.664 2.72,-2.528 1.76,-0.864 4.064,-0.864 2.048,0 3.488,0.576 1.44,0.576 2.368,1.44 0.928,0.864 1.376,1.824 0.48,0.928 0.512,1.696 0.032,0.352 -0.224,0.576 -0.224,0.192 -0.544,0.192 h -2.816 q -0.32,0 -0.512,-0.16 -0.16,-0.16 -0.32,-0.48 -0.48,-1.28 -1.28,-1.792 -0.768,-0.544 -1.984,-0.544 -1.6,0 -2.56,1.024 -0.928,0.992 -0.992,3.168 -0.064,1.216 0,2.24 0.064,2.208 0.992,3.2 0.96,0.992 2.56,0.992 1.248,0 2.016,-0.512 0.768,-0.544 1.248,-1.824 0.16,-0.32 0.32,-0.48 0.192,-0.16 0.512,-0.16 h 2.816 q 0.32,0 0.544,0.224 0.256,0.192 0.224,0.544 -0.032,0.576 -0.32,1.312 -0.256,0.704 -0.864,1.472 -0.576,0.736 -1.472,1.376 -0.896,0.608 -2.176,0.992 -1.248,0.384 -2.912,0.384 z"
           style="text-align:center;text-anchor:middle"
           id="path1614" /><path
           d="m 375.92009,922.40715 q -1.92,0 -3.232,-0.672 -1.312,-0.672 -1.952,-1.984 -0.64,-1.344 -0.64,-3.328 v -7.264 h -2.528 q -0.32,0 -0.544,-0.224 -0.224,-0.224 -0.224,-0.544 v -1.856 q 0,-0.32 0.224,-0.544 0.224,-0.224 0.544,-0.224 h 2.528 v -5.312 q 0,-0.32 0.192,-0.544 0.224,-0.224 0.576,-0.224 h 2.592 q 0.32,0 0.544,0.224 0.224,0.224 0.224,0.544 v 5.312 h 4 q 0.32,0 0.544,0.224 0.224,0.224 0.224,0.544 v 1.856 q 0,0.32 -0.224,0.544 -0.224,0.224 -0.544,0.224 h -4 v 6.944 q 0,1.312 0.448,2.048 0.48,0.736 1.632,0.736 h 2.208 q 0.32,0 0.544,0.224 0.224,0.224 0.224,0.544 v 1.984 q 0,0.32 -0.224,0.544 -0.224,0.224 -0.544,0.224 z"
           style="text-align:center;text-anchor:middle"
           id="path1616" /><path
           d="m 286.57763,962.40715 q -0.32,0 -0.544,-0.224 -0.224,-0.224 -0.224,-0.544 v -20.864 q 0,-0.32 0.224,-0.544 0.224,-0.224 0.544,-0.224 h 2.976 q 0.32,0 0.544,0.224 0.224,0.224 0.224,0.544 v 17.824 h 10.144 q 0.352,0 0.576,0.224 0.224,0.224 0.224,0.576 v 2.24 q 0,0.32 -0.224,0.544 -0.224,0.224 -0.576,0.224 z"
           style="text-align:center;text-anchor:middle"
           id="path1618" /><path
           d="m 310.90662,962.72715 q -3.552,0 -5.632,-2.048 -2.08,-2.048 -2.24,-5.824 -0.032,-0.32 -0.032,-0.8 0,-0.512 0.032,-0.8 0.128,-2.4 1.088,-4.16 0.992,-1.76 2.72,-2.688 1.728,-0.96 4.064,-0.96 2.592,0 4.352,1.088 1.76,1.056 2.656,2.976 0.896,1.888 0.896,4.384 v 0.672 q 0,0.32 -0.224,0.544 -0.224,0.224 -0.576,0.224 h -10.624 q 0,0 0,0.096 0,0.096 0,0.16 0.032,1.12 0.416,2.08 0.416,0.928 1.184,1.504 0.8,0.576 1.888,0.576 0.896,0 1.504,-0.256 0.608,-0.288 0.992,-0.64 0.384,-0.352 0.544,-0.576 0.288,-0.384 0.448,-0.448 0.192,-0.096 0.544,-0.096 h 2.752 q 0.32,0 0.512,0.192 0.224,0.192 0.192,0.48 -0.032,0.512 -0.544,1.248 -0.48,0.736 -1.408,1.44 -0.928,0.704 -2.336,1.184 -1.376,0.448 -3.168,0.448 z m -3.52,-10.08 h 7.072 v -0.096 q 0,-1.248 -0.416,-2.176 -0.416,-0.928 -1.216,-1.472 -0.8,-0.544 -1.92,-0.544 -1.12,0 -1.92,0.544 -0.8,0.544 -1.216,1.472 -0.384,0.928 -0.384,2.176 z"
           style="text-align:center;text-anchor:middle"
           id="path1620" /><path
           d="m 327.4816,962.40715 q -0.512,0 -0.768,-0.224 -0.224,-0.256 -0.384,-0.576 l -5.984,-14.848 q -0.064,-0.16 -0.064,-0.288 0,-0.288 0.192,-0.48 0.224,-0.224 0.512,-0.224 h 2.592 q 0.384,0 0.576,0.224 0.192,0.192 0.256,0.384 l 4.256,11.232 4.256,-11.232 q 0.064,-0.192 0.256,-0.384 0.192,-0.224 0.576,-0.224 h 2.624 q 0.256,0 0.448,0.224 0.224,0.192 0.224,0.48 0,0.128 -0.032,0.288 l -6.016,14.848 q -0.128,0.32 -0.384,0.576 -0.256,0.224 -0.768,0.224 z"
           style="text-align:center;text-anchor:middle"
           id="path1622" /><path
           d="m 346.51459,962.72715 q -3.552,0 -5.632,-2.048 -2.08,-2.048 -2.24,-5.824 -0.032,-0.32 -0.032,-0.8 0,-0.512 0.032,-0.8 0.128,-2.4 1.088,-4.16 0.992,-1.76 2.72,-2.688 1.728,-0.96 4.064,-0.96 2.592,0 4.352,1.088 1.76,1.056 2.656,2.976 0.896,1.888 0.896,4.384 v 0.672 q 0,0.32 -0.224,0.544 -0.224,0.224 -0.576,0.224 h -10.624 q 0,0 0,0.096 0,0.096 0,0.16 0.032,1.12 0.416,2.08 0.416,0.928 1.184,1.504 0.8,0.576 1.888,0.576 0.896,0 1.504,-0.256 0.608,-0.288 0.992,-0.64 0.384,-0.352 0.544,-0.576 0.288,-0.384 0.448,-0.448 0.192,-0.096 0.544,-0.096 h 2.752 q 0.32,0 0.512,0.192 0.224,0.192 0.192,0.48 -0.032,0.512 -0.544,1.248 -0.48,0.736 -1.408,1.44 -0.928,0.704 -2.336,1.184 -1.376,0.448 -3.168,0.448 z m -3.52,-10.08 h 7.072 v -0.096 q 0,-1.248 -0.416,-2.176 -0.416,-0.928 -1.216,-1.472 -0.8,-0.544 -1.92,-0.544 -1.12,0 -1.92,0.544 -0.8,0.544 -1.216,1.472 -0.384,0.928 -0.384,2.176 z"
           style="text-align:center;text-anchor:middle"
           id="path1624" /><path
           d="m 358.61058,962.40715 q -0.32,0 -0.544,-0.224 -0.224,-0.224 -0.224,-0.544 v -21.184 q 0,-0.32 0.224,-0.544 0.224,-0.224 0.544,-0.224 h 2.656 q 0.32,0 0.544,0.224 0.224,0.224 0.224,0.544 v 21.184 q 0,0.32 -0.224,0.544 -0.224,0.224 -0.544,0.224 z"
           style="text-align:center;text-anchor:middle"
           id="path1626" /></g><g
         aria-label="Assembly
Level"
         transform="matrix(0.26458333,0,0,0.26458333,35.483844,98.891305)"
         id="text5588"
         style="font-weight:500;font-size:32px;font-family:Rubik;-inkscape-font-specification:'Rubik Medium';white-space:pre;shape-inside:url(#rect5639);display:inline;stroke-width:0.755906"><path
           d="m 249.8581,922.40715 q -0.256,0 -0.48,-0.192 -0.192,-0.192 -0.192,-0.48 0,-0.128 0.064,-0.288 l 7.712,-20.64 q 0.096,-0.32 0.352,-0.544 0.288,-0.256 0.768,-0.256 h 3.488 q 0.48,0 0.736,0.256 0.256,0.224 0.384,0.544 l 7.712,20.64 q 0.032,0.16 0.032,0.288 0,0.288 -0.192,0.48 -0.192,0.192 -0.448,0.192 h -2.784 q -0.448,0 -0.672,-0.192 -0.192,-0.224 -0.256,-0.416 l -1.504,-3.904 h -9.504 l -1.504,3.904 q -0.064,0.192 -0.288,0.416 -0.192,0.192 -0.64,0.192 z m 6.336,-8.192 h 7.264 l -3.648,-9.888 z"
           style="text-align:center;text-anchor:middle"
           id="path1629" /><path
           d="m 279.33012,922.72715 q -1.92,0 -3.296,-0.448 -1.344,-0.448 -2.208,-1.12 -0.864,-0.672 -1.28,-1.344 -0.416,-0.672 -0.448,-1.12 -0.032,-0.352 0.192,-0.544 0.256,-0.224 0.544,-0.224 h 2.528 q 0.128,0 0.224,0.032 0.096,0.032 0.256,0.192 0.416,0.352 0.864,0.736 0.48,0.384 1.12,0.672 0.64,0.256 1.6,0.256 1.248,0 2.08,-0.48 0.864,-0.512 0.864,-1.44 0,-0.672 -0.384,-1.088 -0.352,-0.416 -1.344,-0.736 -0.992,-0.352 -2.816,-0.736 -1.792,-0.416 -2.976,-1.056 -1.184,-0.64 -1.76,-1.6 -0.576,-0.96 -0.576,-2.24 0,-1.248 0.736,-2.368 0.768,-1.152 2.24,-1.888 1.504,-0.736 3.712,-0.736 1.728,0 3.008,0.448 1.28,0.416 2.112,1.056 0.864,0.64 1.312,1.312 0.448,0.64 0.48,1.12 0.032,0.352 -0.192,0.576 -0.224,0.192 -0.512,0.192 h -2.368 q -0.16,0 -0.288,-0.064 -0.128,-0.064 -0.256,-0.16 -0.352,-0.32 -0.768,-0.672 -0.416,-0.352 -1.024,-0.608 -0.576,-0.288 -1.536,-0.288 -1.216,0 -1.856,0.544 -0.64,0.512 -0.64,1.312 0,0.544 0.288,0.96 0.32,0.384 1.248,0.736 0.928,0.352 2.816,0.736 2.144,0.384 3.392,1.152 1.28,0.736 1.792,1.728 0.544,0.96 0.544,2.144 0,1.44 -0.864,2.592 -0.832,1.152 -2.496,1.824 -1.632,0.64 -4.064,0.64 z"
           style="text-align:center;text-anchor:middle"
           id="path1631" /><path
           d="m 296.35411,922.72715 q -1.92,0 -3.296,-0.448 -1.344,-0.448 -2.208,-1.12 -0.864,-0.672 -1.28,-1.344 -0.416,-0.672 -0.448,-1.12 -0.032,-0.352 0.192,-0.544 0.256,-0.224 0.544,-0.224 h 2.528 q 0.128,0 0.224,0.032 0.096,0.032 0.256,0.192 0.416,0.352 0.864,0.736 0.48,0.384 1.12,0.672 0.64,0.256 1.6,0.256 1.248,0 2.08,-0.48 0.864,-0.512 0.864,-1.44 0,-0.672 -0.384,-1.088 -0.352,-0.416 -1.344,-0.736 -0.992,-0.352 -2.816,-0.736 -1.792,-0.416 -2.976,-1.056 -1.184,-0.64 -1.76,-1.6 -0.576,-0.96 -0.576,-2.24 0,-1.248 0.736,-2.368 0.768,-1.152 2.24,-1.888 1.504,-0.736 3.712,-0.736 1.728,0 3.008,0.448 1.28,0.416 2.112,1.056 0.864,0.64 1.312,1.312 0.448,0.64 0.48,1.12 0.032,0.352 -0.192,0.576 -0.224,0.192 -0.512,0.192 h -2.368 q -0.16,0 -0.288,-0.064 -0.128,-0.064 -0.256,-0.16 -0.352,-0.32 -0.768,-0.672 -0.416,-0.352 -1.024,-0.608 -0.576,-0.288 -1.536,-0.288 -1.216,0 -1.856,0.544 -0.64,0.512 -0.64,1.312 0,0.544 0.288,0.96 0.32,0.384 1.248,0.736 0.928,0.352 2.816,0.736 2.144,0.384 3.392,1.152 1.28,0.736 1.792,1.728 0.544,0.96 0.544,2.144 0,1.44 -0.864,2.592 -0.832,1.152 -2.496,1.824 -1.632,0.64 -4.064,0.64 z"
           style="text-align:center;text-anchor:middle"
           id="path1633" /><path
           d="m 314.2421,922.72715 q -3.552,0 -5.632,-2.048 -2.08,-2.048 -2.24,-5.824 -0.032,-0.32 -0.032,-0.8 0,-0.512 0.032,-0.8 0.128,-2.4 1.088,-4.16 0.992,-1.76 2.72,-2.688 1.728,-0.96 4.064,-0.96 2.592,0 4.352,1.088 1.76,1.056 2.656,2.976 0.896,1.888 0.896,4.384 v 0.672 q 0,0.32 -0.224,0.544 -0.224,0.224 -0.576,0.224 h -10.624 q 0,0 0,0.096 0,0.096 0,0.16 0.032,1.12 0.416,2.08 0.416,0.928 1.184,1.504 0.8,0.576 1.888,0.576 0.896,0 1.504,-0.256 0.608,-0.288 0.992,-0.64 0.384,-0.352 0.544,-0.576 0.288,-0.384 0.448,-0.448 0.192,-0.096 0.544,-0.096 h 2.752 q 0.32,0 0.512,0.192 0.224,0.192 0.192,0.48 -0.032,0.512 -0.544,1.248 -0.48,0.736 -1.408,1.44 -0.928,0.704 -2.336,1.184 -1.376,0.448 -3.168,0.448 z m -3.52,-10.08 h 7.072 v -0.096 q 0,-1.248 -0.416,-2.176 -0.416,-0.928 -1.216,-1.472 -0.8,-0.544 -1.92,-0.544 -1.12,0 -1.92,0.544 -0.8,0.544 -1.216,1.472 -0.384,0.928 -0.384,2.176 z"
           style="text-align:center;text-anchor:middle"
           id="path1635" /><path
           d="m 326.30609,922.40715 q -0.32,0 -0.544,-0.224 -0.224,-0.224 -0.224,-0.544 v -15.104 q 0,-0.32 0.224,-0.544 0.224,-0.224 0.544,-0.224 h 2.496 q 0.32,0 0.544,0.224 0.224,0.224 0.224,0.544 v 1.088 q 0.672,-0.896 1.792,-1.504 1.152,-0.64 2.72,-0.672 3.648,-0.064 5.088,2.848 0.736,-1.28 2.112,-2.048 1.408,-0.8 3.104,-0.8 1.664,0 3.008,0.768 1.376,0.768 2.144,2.336 0.8,1.536 0.8,3.904 v 9.184 q 0,0.32 -0.224,0.544 -0.224,0.224 -0.544,0.224 h -2.624 q -0.32,0 -0.544,-0.224 -0.224,-0.224 -0.224,-0.544 v -8.928 q 0,-1.44 -0.416,-2.272 -0.416,-0.864 -1.12,-1.216 -0.704,-0.352 -1.568,-0.352 -0.704,0 -1.408,0.352 -0.704,0.352 -1.152,1.216 -0.448,0.832 -0.448,2.272 v 8.928 q 0,0.32 -0.224,0.544 -0.224,0.224 -0.544,0.224 h -2.624 q -0.352,0 -0.576,-0.224 -0.192,-0.224 -0.192,-0.544 v -8.928 q 0,-1.44 -0.448,-2.272 -0.448,-0.864 -1.152,-1.216 -0.704,-0.352 -1.504,-0.352 -0.736,0 -1.44,0.384 -0.704,0.352 -1.152,1.184 -0.448,0.832 -0.448,2.272 v 8.928 q 0,0.32 -0.224,0.544 -0.224,0.224 -0.544,0.224 z"
           style="text-align:center;text-anchor:middle"
           id="path1637" /><path
           d="m 363.6181,922.72715 q -1.856,0 -3.104,-0.64 -1.216,-0.64 -2.016,-1.632 v 1.184 q 0,0.32 -0.224,0.544 -0.192,0.224 -0.544,0.224 h -2.528 q -0.32,0 -0.544,-0.224 -0.224,-0.224 -0.224,-0.544 v -21.184 q 0,-0.32 0.224,-0.544 0.224,-0.224 0.544,-0.224 h 2.72 q 0.352,0 0.544,0.224 0.224,0.224 0.224,0.544 v 7.104 q 0.8,-0.928 1.984,-1.504 1.216,-0.608 2.944,-0.608 1.696,0 2.944,0.576 1.248,0.576 2.08,1.632 0.864,1.024 1.312,2.4 0.448,1.376 0.48,2.976 0.032,0.576 0.032,1.056 0,0.448 -0.032,1.024 -0.064,1.664 -0.512,3.072 -0.448,1.376 -1.28,2.4 -0.832,1.024 -2.08,1.6 -1.248,0.544 -2.944,0.544 z m -1.184,-3.424 q 1.376,0 2.144,-0.576 0.768,-0.608 1.088,-1.568 0.352,-0.96 0.416,-2.112 0.064,-0.96 0,-1.92 -0.064,-1.152 -0.416,-2.112 -0.32,-0.96 -1.088,-1.536 -0.768,-0.608 -2.144,-0.608 -1.28,0 -2.08,0.576 -0.8,0.576 -1.216,1.472 -0.416,0.864 -0.448,1.824 -0.032,0.576 -0.032,1.248 0,0.64 0.032,1.216 0.064,0.992 0.416,1.952 0.384,0.928 1.184,1.536 0.832,0.608 2.144,0.608 z"
           style="text-align:center;text-anchor:middle"
           id="path1639" /><path
           d="m 374.81813,922.40715 q -0.32,0 -0.544,-0.224 -0.224,-0.224 -0.224,-0.544 v -21.184 q 0,-0.32 0.224,-0.544 0.224,-0.224 0.544,-0.224 h 2.656 q 0.32,0 0.544,0.224 0.224,0.224 0.224,0.544 v 21.184 q 0,0.32 -0.224,0.544 -0.224,0.224 -0.544,0.224 z"
           style="text-align:center;text-anchor:middle"
           id="path1641" /><path
           d="m 385.50611,928.48715 q -0.256,0 -0.448,-0.192 -0.192,-0.192 -0.192,-0.448 0,-0.128 0,-0.256 0.032,-0.096 0.128,-0.256 l 2.496,-5.92 -6.144,-14.496 q -0.128,-0.32 -0.128,-0.448 0.032,-0.288 0.224,-0.48 0.192,-0.224 0.48,-0.224 h 2.592 q 0.384,0 0.576,0.192 0.192,0.192 0.288,0.416 l 4.256,10.464 4.384,-10.464 q 0.096,-0.256 0.288,-0.416 0.192,-0.192 0.576,-0.192 h 2.56 q 0.256,0 0.448,0.192 0.224,0.192 0.224,0.448 0,0.192 -0.128,0.512 l -9.056,20.96 q -0.128,0.256 -0.32,0.416 -0.192,0.192 -0.576,0.192 z"
           style="text-align:center;text-anchor:middle"
           id="path1643" /><path
           d="m 286.57763,962.40715 q -0.32,0 -0.544,-0.224 -0.224,-0.224 -0.224,-0.544 v -20.864 q 0,-0.32 0.224,-0.544 0.224,-0.224 0.544,-0.224 h 2.976 q 0.32,0 0.544,0.224 0.224,0.224 0.224,0.544 v 17.824 h 10.144 q 0.352,0 0.576,0.224 0.224,0.224 0.224,0.576 v 2.24 q 0,0.32 -0.224,0.544 -0.224,0.224 -0.576,0.224 z"
           style="text-align:center;text-anchor:middle"
           id="path1645" /><path
           d="m 310.90662,962.72715 q -3.552,0 -5.632,-2.048 -2.08,-2.048 -2.24,-5.824 -0.032,-0.32 -0.032,-0.8 0,-0.512 0.032,-0.8 0.128,-2.4 1.088,-4.16 0.992,-1.76 2.72,-2.688 1.728,-0.96 4.064,-0.96 2.592,0 4.352,1.088 1.76,1.056 2.656,2.976 0.896,1.888 0.896,4.384 v 0.672 q 0,0.32 -0.224,0.544 -0.224,0.224 -0.576,0.224 h -10.624 q 0,0 0,0.096 0,0.096 0,0.16 0.032,1.12 0.416,2.08 0.416,0.928 1.184,1.504 0.8,0.576 1.888,0.576 0.896,0 1.504,-0.256 0.608,-0.288 0.992,-0.64 0.384,-0.352 0.544,-0.576 0.288,-0.384 0.448,-0.448 0.192,-0.096 0.544,-0.096 h 2.752 q 0.32,0 0.512,0.192 0.224,0.192 0.192,0.48 -0.032,0.512 -0.544,1.248 -0.48,0.736 -1.408,1.44 -0.928,0.704 -2.336,1.184 -1.376,0.448 -3.168,0.448 z m -3.52,-10.08 h 7.072 v -0.096 q 0,-1.248 -0.416,-2.176 -0.416,-0.928 -1.216,-1.472 -0.8,-0.544 -1.92,-0.544 -1.12,0 -1.92,0.544 -0.8,0.544 -1.216,1.472 -0.384,0.928 -0.384,2.176 z"
           style="text-align:center;text-anchor:middle"
           id="path1647" /><path
           d="m 327.4816,962.40715 q -0.512,0 -0.768,-0.224 -0.224,-0.256 -0.384,-0.576 l -5.984,-14.848 q -0.064,-0.16 -0.064,-0.288 0,-0.288 0.192,-0.48 0.224,-0.224 0.512,-0.224 h 2.592 q 0.384,0 0.576,0.224 0.192,0.192 0.256,0.384 l 4.256,11.232 4.256,-11.232 q 0.064,-0.192 0.256,-0.384 0.192,-0.224 0.576,-0.224 h 2.624 q 0.256,0 0.448,0.224 0.224,0.192 0.224,0.48 0,0.128 -0.032,0.288 l -6.016,14.848 q -0.128,0.32 -0.384,0.576 -0.256,0.224 -0.768,0.224 z"
           style="text-align:center;text-anchor:middle"
           id="path1649" /><path
           d="m 346.51459,962.72715 q -3.552,0 -5.632,-2.048 -2.08,-2.048 -2.24,-5.824 -0.032,-0.32 -0.032,-0.8 0,-0.512 0.032,-0.8 0.128,-2.4 1.088,-4.16 0.992,-1.76 2.72,-2.688 1.728,-0.96 4.064,-0.96 2.592,0 4.352,1.088 1.76,1.056 2.656,2.976 0.896,1.888 0.896,4.384 v 0.672 q 0,0.32 -0.224,0.544 -0.224,0.224 -0.576,0.224 h -10.624 q 0,0 0,0.096 0,0.096 0,0.16 0.032,1.12 0.416,2.08 0.416,0.928 1.184,1.504 0.8,0.576 1.888,0.576 0.896,0 1.504,-0.256 0.608,-0.288 0.992,-0.64 0.384,-0.352 0.544,-0.576 0.288,-0.384 0.448,-0.448 0.192,-0.096 0.544,-0.096 h 2.752 q 0.32,0 0.512,0.192 0.224,0.192 0.192,0.48 -0.032,0.512 -0.544,1.248 -0.48,0.736 -1.408,1.44 -0.928,0.704 -2.336,1.184 -1.376,0.448 -3.168,0.448 z m -3.52,-10.08 h 7.072 v -0.096 q 0,-1.248 -0.416,-2.176 -0.416,-0.928 -1.216,-1.472 -0.8,-0.544 -1.92,-0.544 -1.12,0 -1.92,0.544 -0.8,0.544 -1.216,1.472 -0.384,0.928 -0.384,2.176 z"
           style="text-align:center;text-anchor:middle"
           id="path1651" /><path
           d="m 358.61058,962.40715 q -0.32,0 -0.544,-0.224 -0.224,-0.224 -0.224,-0.544 v -21.184 q 0,-0.32 0.224,-0.544 0.224,-0.224 0.544,-0.224 h 2.656 q 0.32,0 0.544,0.224 0.224,0.224 0.224,0.544 v 21.184 q 0,0.32 -0.224,0.544 -0.224,0.224 -0.544,0.224 z"
           style="text-align:center;text-anchor:middle"
           id="path1653" /></g><g
         aria-label="Product
Level"
         transform="matrix(0.26458333,0,0,0.26458333,118.76507,98.891305)"
         id="text5598"
         style="font-weight:500;font-size:32px;font-family:Rubik;-inkscape-font-specification:'Rubik Medium';white-space:pre;shape-inside:url(#rect5641);display:inline;stroke-width:0.755906"><path
           d="m 264.69204,922.40715 q -0.32,0 -0.544,-0.224 -0.224,-0.224 -0.224,-0.544 v -20.832 q 0,-0.352 0.224,-0.576 0.224,-0.224 0.544,-0.224 h 8.576 q 2.496,0 4.352,0.8 1.856,0.768 2.88,2.368 1.024,1.568 1.024,3.936 0,2.4 -1.024,3.968 -1.024,1.536 -2.88,2.304 -1.856,0.768 -4.352,0.768 h -4.768 v 7.488 q 0,0.32 -0.224,0.544 -0.192,0.224 -0.544,0.224 z m 3.744,-11.808 h 4.672 q 1.856,0 2.848,-0.864 0.992,-0.896 0.992,-2.624 0,-1.6 -0.928,-2.56 -0.928,-0.992 -2.912,-0.992 h -4.672 z"
           style="text-align:center;text-anchor:middle"
           id="path1656" /><path
           d="m 285.39605,922.40715 q -0.32,0 -0.544,-0.224 -0.224,-0.224 -0.224,-0.544 v -15.072 q 0,-0.352 0.224,-0.576 0.224,-0.224 0.544,-0.224 h 2.592 q 0.32,0 0.544,0.224 0.256,0.224 0.256,0.576 v 1.312 q 0.736,-1.024 1.888,-1.568 1.184,-0.544 2.72,-0.544 h 1.312 q 0.352,0 0.544,0.224 0.224,0.224 0.224,0.544 v 2.304 q 0,0.32 -0.224,0.544 -0.192,0.224 -0.544,0.224 h -2.496 q -1.536,0 -2.4,0.864 -0.832,0.864 -0.832,2.368 v 8.8 q 0,0.32 -0.224,0.544 -0.224,0.224 -0.576,0.224 z"
           style="text-align:center;text-anchor:middle"
           id="path1658" /><path
           d="m 305.10408,922.72715 q -2.56,0 -4.32,-0.896 -1.728,-0.896 -2.656,-2.528 -0.896,-1.632 -1.024,-3.808 -0.032,-0.576 -0.032,-1.408 0,-0.832 0.032,-1.408 0.128,-2.208 1.056,-3.808 0.96,-1.632 2.688,-2.528 1.76,-0.896 4.256,-0.896 2.496,0 4.224,0.896 1.76,0.896 2.688,2.528 0.96,1.6 1.088,3.808 0.032,0.576 0.032,1.408 0,0.832 -0.032,1.408 -0.128,2.176 -1.056,3.808 -0.896,1.632 -2.656,2.528 -1.728,0.896 -4.288,0.896 z m 0,-3.168 q 1.696,0 2.624,-1.056 0.928,-1.088 1.024,-3.168 0.032,-0.48 0.032,-1.248 0,-0.768 -0.032,-1.248 -0.096,-2.048 -1.024,-3.136 -0.928,-1.088 -2.624,-1.088 -1.696,0 -2.624,1.088 -0.928,1.088 -1.024,3.136 -0.032,0.48 -0.032,1.248 0,0.768 0.032,1.248 0.096,2.08 1.024,3.168 0.928,1.056 2.624,1.056 z"
           style="text-align:center;text-anchor:middle"
           id="path1660" /><path
           d="m 322.86411,922.72715 q -1.664,0 -2.944,-0.544 -1.248,-0.576 -2.08,-1.6 -0.832,-1.024 -1.28,-2.4 -0.448,-1.408 -0.512,-3.072 -0.032,-0.576 -0.032,-1.024 0,-0.48 0.032,-1.056 0.064,-1.6 0.48,-2.976 0.448,-1.376 1.28,-2.4 0.864,-1.056 2.112,-1.632 1.28,-0.576 2.944,-0.576 1.728,0 2.912,0.608 1.216,0.576 2.016,1.504 v -7.104 q 0,-0.32 0.192,-0.544 0.224,-0.224 0.576,-0.224 h 2.72 q 0.32,0 0.544,0.224 0.224,0.224 0.224,0.544 v 21.184 q 0,0.32 -0.224,0.544 -0.224,0.224 -0.544,0.224 h -2.528 q -0.352,0 -0.576,-0.224 -0.192,-0.224 -0.192,-0.544 v -1.184 q -0.8,0.992 -2.048,1.632 -1.216,0.64 -3.072,0.64 z m 1.184,-3.424 q 1.344,0 2.144,-0.608 0.8,-0.608 1.184,-1.536 0.384,-0.96 0.416,-1.952 0.032,-0.576 0.032,-1.216 0,-0.672 -0.032,-1.248 -0.032,-0.96 -0.448,-1.824 -0.416,-0.896 -1.216,-1.472 -0.8,-0.576 -2.08,-0.576 -1.344,0 -2.144,0.608 -0.768,0.576 -1.12,1.536 -0.352,0.96 -0.416,2.112 -0.032,0.96 0,1.92 0.064,1.152 0.416,2.112 0.352,0.96 1.12,1.568 0.8,0.576 2.144,0.576 z"
           style="text-align:center;text-anchor:middle"
           id="path1662" /><path
           d="m 342.48014,922.72715 q -1.952,0 -3.392,-0.864 -1.408,-0.896 -2.176,-2.496 -0.768,-1.632 -0.768,-3.84 v -8.992 q 0,-0.32 0.224,-0.544 0.224,-0.224 0.544,-0.224 h 2.816 q 0.352,0 0.544,0.224 0.224,0.224 0.224,0.544 v 8.8 q 0,3.968 3.488,3.968 1.664,0 2.624,-1.056 0.992,-1.056 0.992,-2.912 v -8.8 q 0,-0.32 0.224,-0.544 0.224,-0.224 0.544,-0.224 h 2.816 q 0.32,0 0.544,0.224 0.224,0.224 0.224,0.544 v 15.104 q 0,0.32 -0.224,0.544 -0.224,0.224 -0.544,0.224 h -2.592 q -0.352,0 -0.576,-0.224 -0.192,-0.224 -0.192,-0.544 v -1.312 q -0.864,1.12 -2.144,1.76 -1.28,0.64 -3.2,0.64 z"
           style="text-align:center;text-anchor:middle"
           id="path1664" /><path
           d="m 363.37615,922.72715 q -2.304,0 -4.064,-0.864 -1.728,-0.864 -2.72,-2.496 -0.96,-1.664 -1.056,-4 -0.032,-0.48 -0.032,-1.248 0,-0.8 0.032,-1.312 0.096,-2.336 1.056,-3.968 0.992,-1.664 2.72,-2.528 1.76,-0.864 4.064,-0.864 2.048,0 3.488,0.576 1.44,0.576 2.368,1.44 0.928,0.864 1.376,1.824 0.48,0.928 0.512,1.696 0.032,0.352 -0.224,0.576 -0.224,0.192 -0.544,0.192 h -2.816 q -0.32,0 -0.512,-0.16 -0.16,-0.16 -0.32,-0.48 -0.48,-1.28 -1.28,-1.792 -0.768,-0.544 -1.984,-0.544 -1.6,0 -2.56,1.024 -0.928,0.992 -0.992,3.168 -0.064,1.216 0,2.24 0.064,2.208 0.992,3.2 0.96,0.992 2.56,0.992 1.248,0 2.016,-0.512 0.768,-0.544 1.248,-1.824 0.16,-0.32 0.32,-0.48 0.192,-0.16 0.512,-0.16 h 2.816 q 0.32,0 0.544,0.224 0.256,0.192 0.224,0.544 -0.032,0.576 -0.32,1.312 -0.256,0.704 -0.864,1.472 -0.576,0.736 -1.472,1.376 -0.896,0.608 -2.176,0.992 -1.248,0.384 -2.912,0.384 z"
           style="text-align:center;text-anchor:middle"
           id="path1666" /><path
           d="m 381.96812,922.40715 q -1.92,0 -3.232,-0.672 -1.312,-0.672 -1.952,-1.984 -0.64,-1.344 -0.64,-3.328 v -7.264 h -2.528 q -0.32,0 -0.544,-0.224 -0.224,-0.224 -0.224,-0.544 v -1.856 q 0,-0.32 0.224,-0.544 0.224,-0.224 0.544,-0.224 h 2.528 v -5.312 q 0,-0.32 0.192,-0.544 0.224,-0.224 0.576,-0.224 h 2.592 q 0.32,0 0.544,0.224 0.224,0.224 0.224,0.544 v 5.312 h 4 q 0.32,0 0.544,0.224 0.224,0.224 0.224,0.544 v 1.856 q 0,0.32 -0.224,0.544 -0.224,0.224 -0.544,0.224 h -4 v 6.944 q 0,1.312 0.448,2.048 0.48,0.736 1.632,0.736 h 2.208 q 0.32,0 0.544,0.224 0.224,0.224 0.224,0.544 v 1.984 q 0,0.32 -0.224,0.544 -0.224,0.224 -0.544,0.224 z"
           style="text-align:center;text-anchor:middle"
           id="path1668" /><path
           d="m 286.57763,962.40715 q -0.32,0 -0.544,-0.224 -0.224,-0.224 -0.224,-0.544 v -20.864 q 0,-0.32 0.224,-0.544 0.224,-0.224 0.544,-0.224 h 2.976 q 0.32,0 0.544,0.224 0.224,0.224 0.224,0.544 v 17.824 h 10.144 q 0.352,0 0.576,0.224 0.224,0.224 0.224,0.576 v 2.24 q 0,0.32 -0.224,0.544 -0.224,0.224 -0.576,0.224 z"
           style="text-align:center;text-anchor:middle"
           id="path1670" /><path
           d="m 310.90662,962.72715 q -3.552,0 -5.632,-2.048 -2.08,-2.048 -2.24,-5.824 -0.032,-0.32 -0.032,-0.8 0,-0.512 0.032,-0.8 0.128,-2.4 1.088,-4.16 0.992,-1.76 2.72,-2.688 1.728,-0.96 4.064,-0.96 2.592,0 4.352,1.088 1.76,1.056 2.656,2.976 0.896,1.888 0.896,4.384 v 0.672 q 0,0.32 -0.224,0.544 -0.224,0.224 -0.576,0.224 h -10.624 q 0,0 0,0.096 0,0.096 0,0.16 0.032,1.12 0.416,2.08 0.416,0.928 1.184,1.504 0.8,0.576 1.888,0.576 0.896,0 1.504,-0.256 0.608,-0.288 0.992,-0.64 0.384,-0.352 0.544,-0.576 0.288,-0.384 0.448,-0.448 0.192,-0.096 0.544,-0.096 h 2.752 q 0.32,0 0.512,0.192 0.224,0.192 0.192,0.48 -0.032,0.512 -0.544,1.248 -0.48,0.736 -1.408,1.44 -0.928,0.704 -2.336,1.184 -1.376,0.448 -3.168,0.448 z m -3.52,-10.08 h 7.072 v -0.096 q 0,-1.248 -0.416,-2.176 -0.416,-0.928 -1.216,-1.472 -0.8,-0.544 -1.92,-0.544 -1.12,0 -1.92,0.544 -0.8,0.544 -1.216,1.472 -0.384,0.928 -0.384,2.176 z"
           style="text-align:center;text-anchor:middle"
           id="path1672" /><path
           d="m 327.4816,962.40715 q -0.512,0 -0.768,-0.224 -0.224,-0.256 -0.384,-0.576 l -5.984,-14.848 q -0.064,-0.16 -0.064,-0.288 0,-0.288 0.192,-0.48 0.224,-0.224 0.512,-0.224 h 2.592 q 0.384,0 0.576,0.224 0.192,0.192 0.256,0.384 l 4.256,11.232 4.256,-11.232 q 0.064,-0.192 0.256,-0.384 0.192,-0.224 0.576,-0.224 h 2.624 q 0.256,0 0.448,0.224 0.224,0.192 0.224,0.48 0,0.128 -0.032,0.288 l -6.016,14.848 q -0.128,0.32 -0.384,0.576 -0.256,0.224 -0.768,0.224 z"
           style="text-align:center;text-anchor:middle"
           id="path1674" /><path
           d="m 346.51459,962.72715 q -3.552,0 -5.632,-2.048 -2.08,-2.048 -2.24,-5.824 -0.032,-0.32 -0.032,-0.8 0,-0.512 0.032,-0.8 0.128,-2.4 1.088,-4.16 0.992,-1.76 2.72,-2.688 1.728,-0.96 4.064,-0.96 2.592,0 4.352,1.088 1.76,1.056 2.656,2.976 0.896,1.888 0.896,4.384 v 0.672 q 0,0.32 -0.224,0.544 -0.224,0.224 -0.576,0.224 h -10.624 q 0,0 0,0.096 0,0.096 0,0.16 0.032,1.12 0.416,2.08 0.416,0.928 1.184,1.504 0.8,0.576 1.888,0.576 0.896,0 1.504,-0.256 0.608,-0.288 0.992,-0.64 0.384,-0.352 0.544,-0.576 0.288,-0.384 0.448,-0.448 0.192,-0.096 0.544,-0.096 h 2.752 q 0.32,0 0.512,0.192 0.224,0.192 0.192,0.48 -0.032,0.512 -0.544,1.248 -0.48,0.736 -1.408,1.44 -0.928,0.704 -2.336,1.184 -1.376,0.448 -3.168,0.448 z m -3.52,-10.08 h 7.072 v -0.096 q 0,-1.248 -0.416,-2.176 -0.416,-0.928 -1.216,-1.472 -0.8,-0.544 -1.92,-0.544 -1.12,0 -1.92,0.544 -0.8,0.544 -1.216,1.472 -0.384,0.928 -0.384,2.176 z"
           style="text-align:center;text-anchor:middle"
           id="path1676" /><path
           d="m 358.61058,962.40715 q -0.32,0 -0.544,-0.224 -0.224,-0.224 -0.224,-0.544 v -21.184 q 0,-0.32 0.224,-0.544 0.224,-0.224 0.544,-0.224 h 2.656 q 0.32,0 0.544,0.224 0.224,0.224 0.224,0.544 v 21.184 q 0,0.32 -0.224,0.544 -0.224,0.224 -0.544,0.224 z"
           style="text-align:center;text-anchor:middle"
           id="path1678" /></g><g
         aria-label="Impact Data
Level"
         transform="matrix(0.26458333,0,0,0.26458333,223.99921,98.891305)"
         id="text5608"
         style="font-weight:500;font-size:32px;font-family:Rubik;-inkscape-font-specification:'Rubik Medium';white-space:pre;shape-inside:url(#rect5643);display:inline;stroke-width:0.755906"><path
           d="m 232.85961,922.40715 q -0.32,0 -0.544,-0.224 -0.224,-0.224 -0.224,-0.544 v -20.864 q 0,-0.32 0.224,-0.544 0.224,-0.224 0.544,-0.224 h 3.008 q 0.352,0 0.544,0.224 0.224,0.224 0.224,0.544 v 20.864 q 0,0.32 -0.224,0.544 -0.192,0.224 -0.544,0.224 z"
           style="text-align:center;text-anchor:middle"
           id="path1681" /><path
           d="m 242.0436,922.40715 q -0.32,0 -0.544,-0.224 -0.224,-0.224 -0.224,-0.544 v -15.104 q 0,-0.32 0.224,-0.544 0.224,-0.224 0.544,-0.224 h 2.496 q 0.32,0 0.544,0.224 0.224,0.224 0.224,0.544 v 1.088 q 0.672,-0.896 1.792,-1.504 1.152,-0.64 2.72,-0.672 3.648,-0.064 5.088,2.848 0.736,-1.28 2.112,-2.048 1.408,-0.8 3.104,-0.8 1.664,0 3.008,0.768 1.376,0.768 2.144,2.336 0.8,1.536 0.8,3.904 v 9.184 q 0,0.32 -0.224,0.544 -0.224,0.224 -0.544,0.224 h -2.624 q -0.32,0 -0.544,-0.224 -0.224,-0.224 -0.224,-0.544 v -8.928 q 0,-1.44 -0.416,-2.272 -0.416,-0.864 -1.12,-1.216 -0.704,-0.352 -1.568,-0.352 -0.704,0 -1.408,0.352 -0.704,0.352 -1.152,1.216 -0.448,0.832 -0.448,2.272 v 8.928 q 0,0.32 -0.224,0.544 -0.224,0.224 -0.544,0.224 h -2.624 q -0.352,0 -0.576,-0.224 -0.192,-0.224 -0.192,-0.544 v -8.928 q 0,-1.44 -0.448,-2.272 -0.448,-0.864 -1.152,-1.216 -0.704,-0.352 -1.504,-0.352 -0.736,0 -1.44,0.384 -0.704,0.352 -1.152,1.184 -0.448,0.832 -0.448,2.272 v 8.928 q 0,0.32 -0.224,0.544 -0.224,0.224 -0.544,0.224 z"
           style="text-align:center;text-anchor:middle"
           id="path1683" /><path
           d="m 270.93962,928.48715 q -0.32,0 -0.544,-0.224 -0.224,-0.224 -0.224,-0.544 v -21.184 q 0,-0.32 0.224,-0.544 0.224,-0.224 0.544,-0.224 h 2.528 q 0.352,0 0.544,0.224 0.224,0.224 0.224,0.544 v 1.28 q 0.768,-1.024 2.016,-1.696 1.248,-0.672 3.104,-0.672 1.696,0 2.944,0.544 1.248,0.544 2.08,1.568 0.832,0.992 1.28,2.368 0.448,1.376 0.512,3.04 0.032,0.544 0.032,1.12 0,0.576 -0.032,1.152 -0.032,1.6 -0.48,2.976 -0.448,1.344 -1.312,2.368 -0.832,0.992 -2.08,1.568 -1.248,0.576 -2.944,0.576 -1.728,0 -2.944,-0.608 -1.216,-0.64 -1.984,-1.664 v 7.264 q 0,0.32 -0.224,0.544 -0.192,0.224 -0.544,0.224 z m 7.232,-9.184 q 1.376,0 2.144,-0.576 0.768,-0.608 1.088,-1.568 0.352,-0.96 0.416,-2.112 0.064,-0.96 0,-1.92 -0.064,-1.152 -0.416,-2.112 -0.32,-0.96 -1.088,-1.536 -0.768,-0.608 -2.144,-0.608 -1.312,0 -2.144,0.608 -0.8,0.608 -1.184,1.568 -0.352,0.928 -0.416,1.92 -0.032,0.576 -0.032,1.216 0,0.64 0.032,1.248 0.032,0.96 0.448,1.856 0.416,0.864 1.216,1.44 0.8,0.576 2.08,0.576 z"
           style="text-align:center;text-anchor:middle"
           id="path1685" /><path
           d="m 294.61963,922.72715 q -1.664,0 -3.008,-0.64 -1.344,-0.672 -2.144,-1.76 -0.768,-1.12 -0.768,-2.496 0,-2.24 1.792,-3.552 1.824,-1.344 4.8,-1.792 l 4.384,-0.64 v -0.672 q 0,-1.344 -0.672,-2.08 -0.672,-0.736 -2.304,-0.736 -1.152,0 -1.888,0.48 -0.704,0.448 -1.056,1.216 -0.256,0.416 -0.736,0.416 h -2.528 q -0.352,0 -0.544,-0.192 -0.16,-0.192 -0.16,-0.512 0.032,-0.512 0.416,-1.248 0.384,-0.736 1.216,-1.408 0.832,-0.704 2.144,-1.184 1.312,-0.48 3.168,-0.48 2.016,0 3.392,0.512 1.408,0.48 2.24,1.312 0.832,0.832 1.216,1.952 0.384,1.12 0.384,2.368 v 10.048 q 0,0.32 -0.224,0.544 -0.224,0.224 -0.544,0.224 h -2.592 q -0.352,0 -0.576,-0.224 -0.192,-0.224 -0.192,-0.544 v -1.248 q -0.416,0.608 -1.12,1.152 -0.704,0.512 -1.728,0.864 -0.992,0.32 -2.368,0.32 z m 1.088,-3.04 q 1.12,0 2.016,-0.48 0.928,-0.48 1.44,-1.472 0.544,-1.024 0.544,-2.56 v -0.672 l -3.2,0.512 q -1.888,0.288 -2.816,0.928 -0.928,0.64 -0.928,1.568 0,0.704 0.416,1.216 0.448,0.48 1.12,0.736 0.672,0.224 1.408,0.224 z"
           style="text-align:center;text-anchor:middle"
           id="path1687" /><path
           d="m 315.2596,922.72715 q -2.304,0 -4.064,-0.864 -1.728,-0.864 -2.72,-2.496 -0.96,-1.664 -1.056,-4 -0.032,-0.48 -0.032,-1.248 0,-0.8 0.032,-1.312 0.096,-2.336 1.056,-3.968 0.992,-1.664 2.72,-2.528 1.76,-0.864 4.064,-0.864 2.048,0 3.488,0.576 1.44,0.576 2.368,1.44 0.928,0.864 1.376,1.824 0.48,0.928 0.512,1.696 0.032,0.352 -0.224,0.576 -0.224,0.192 -0.544,0.192 h -2.816 q -0.32,0 -0.512,-0.16 -0.16,-0.16 -0.32,-0.48 -0.48,-1.28 -1.28,-1.792 -0.768,-0.544 -1.984,-0.544 -1.6,0 -2.56,1.024 -0.928,0.992 -0.992,3.168 -0.064,1.216 0,2.24 0.064,2.208 0.992,3.2 0.96,0.992 2.56,0.992 1.248,0 2.016,-0.512 0.768,-0.544 1.248,-1.824 0.16,-0.32 0.32,-0.48 0.192,-0.16 0.512,-0.16 h 2.816 q 0.32,0 0.544,0.224 0.256,0.192 0.224,0.544 -0.032,0.576 -0.32,1.312 -0.256,0.704 -0.864,1.472 -0.576,0.736 -1.472,1.376 -0.896,0.608 -2.176,0.992 -1.248,0.384 -2.912,0.384 z"
           style="text-align:center;text-anchor:middle"
           id="path1689" /><path
           d="m 333.85157,922.40715 q -1.92,0 -3.232,-0.672 -1.312,-0.672 -1.952,-1.984 -0.64,-1.344 -0.64,-3.328 v -7.264 h -2.528 q -0.32,0 -0.544,-0.224 -0.224,-0.224 -0.224,-0.544 v -1.856 q 0,-0.32 0.224,-0.544 0.224,-0.224 0.544,-0.224 h 2.528 v -5.312 q 0,-0.32 0.192,-0.544 0.224,-0.224 0.576,-0.224 h 2.592 q 0.32,0 0.544,0.224 0.224,0.224 0.224,0.544 v 5.312 h 4 q 0.32,0 0.544,0.224 0.224,0.224 0.224,0.544 v 1.856 q 0,0.32 -0.224,0.544 -0.224,0.224 -0.544,0.224 h -4 v 6.944 q 0,1.312 0.448,2.048 0.48,0.736 1.632,0.736 h 2.208 q 0.32,0 0.544,0.224 0.224,0.224 0.224,0.544 v 1.984 q 0,0.32 -0.224,0.544 -0.224,0.224 -0.544,0.224 z"
           style="text-align:center;text-anchor:middle"
           id="path1691" /><path
           d="m 348.5396,922.40715 q -0.32,0 -0.544,-0.224 -0.224,-0.224 -0.224,-0.544 v -20.832 q 0,-0.352 0.224,-0.576 0.224,-0.224 0.544,-0.224 h 7.808 q 3.232,0 5.312,0.992 2.112,0.992 3.168,2.944 1.088,1.952 1.12,4.768 0.064,1.408 0.064,2.496 0,1.088 -0.064,2.464 -0.064,2.976 -1.088,4.928 -1.024,1.92 -3.104,2.88 -2.048,0.928 -5.248,0.928 z m 3.68,-3.68 h 4.128 q 1.792,0 2.912,-0.512 1.12,-0.512 1.632,-1.632 0.544,-1.152 0.576,-3.008 0.032,-0.96 0.032,-1.664 0.032,-0.736 0,-1.44 0,-0.736 -0.032,-1.664 -0.064,-2.624 -1.312,-3.872 -1.248,-1.248 -3.968,-1.248 h -3.968 z"
           style="text-align:center;text-anchor:middle"
           id="path1693" /><path
           d="m 374.71558,922.72715 q -1.664,0 -3.008,-0.64 -1.344,-0.672 -2.144,-1.76 -0.768,-1.12 -0.768,-2.496 0,-2.24 1.792,-3.552 1.824,-1.344 4.8,-1.792 l 4.384,-0.64 v -0.672 q 0,-1.344 -0.672,-2.08 -0.672,-0.736 -2.304,-0.736 -1.152,0 -1.888,0.48 -0.704,0.448 -1.056,1.216 -0.256,0.416 -0.736,0.416 h -2.528 q -0.352,0 -0.544,-0.192 -0.16,-0.192 -0.16,-0.512 0.032,-0.512 0.416,-1.248 0.384,-0.736 1.216,-1.408 0.832,-0.704 2.144,-1.184 1.312,-0.48 3.168,-0.48 2.016,0 3.392,0.512 1.408,0.48 2.24,1.312 0.832,0.832 1.216,1.952 0.384,1.12 0.384,2.368 v 10.048 q 0,0.32 -0.224,0.544 -0.224,0.224 -0.544,0.224 h -2.592 q -0.352,0 -0.576,-0.224 -0.192,-0.224 -0.192,-0.544 v -1.248 q -0.416,0.608 -1.12,1.152 -0.704,0.512 -1.728,0.864 -0.992,0.32 -2.368,0.32 z m 1.088,-3.04 q 1.12,0 2.016,-0.48 0.928,-0.48 1.44,-1.472 0.544,-1.024 0.544,-2.56 v -0.672 l -3.2,0.512 q -1.888,0.288 -2.816,0.928 -0.928,0.64 -0.928,1.568 0,0.704 0.416,1.216 0.448,0.48 1.12,0.736 0.672,0.224 1.408,0.224 z"
           style="text-align:center;text-anchor:middle"
           id="path1695" /><path
           d="m 395.52858,922.40715 q -1.92,0 -3.232,-0.672 -1.312,-0.672 -1.952,-1.984 -0.64,-1.344 -0.64,-3.328 v -7.264 h -2.528 q -0.32,0 -0.544,-0.224 -0.224,-0.224 -0.224,-0.544 v -1.856 q 0,-0.32 0.224,-0.544 0.224,-0.224 0.544,-0.224 h 2.528 v -5.312 q 0,-0.32 0.192,-0.544 0.224,-0.224 0.576,-0.224 h 2.592 q 0.32,0 0.544,0.224 0.224,0.224 0.224,0.544 v 5.312 h 4 q 0.32,0 0.544,0.224 0.224,0.224 0.224,0.544 v 1.856 q 0,0.32 -0.224,0.544 -0.224,0.224 -0.544,0.224 h -4 v 6.944 q 0,1.312 0.448,2.048 0.48,0.736 1.632,0.736 h 2.208 q 0.32,0 0.544,0.224 0.224,0.224 0.224,0.544 v 1.984 q 0,0.32 -0.224,0.544 -0.224,0.224 -0.544,0.224 z"
           style="text-align:center;text-anchor:middle"
           id="path1697" /><path
           d="m 406.5686,922.72715 q -1.664,0 -3.008,-0.64 -1.344,-0.672 -2.144,-1.76 -0.768,-1.12 -0.768,-2.496 0,-2.24 1.792,-3.552 1.824,-1.344 4.8,-1.792 l 4.384,-0.64 v -0.672 q 0,-1.344 -0.672,-2.08 -0.672,-0.736 -2.304,-0.736 -1.152,0 -1.888,0.48 -0.704,0.448 -1.056,1.216 -0.256,0.416 -0.736,0.416 h -2.528 q -0.352,0 -0.544,-0.192 -0.16,-0.192 -0.16,-0.512 0.032,-0.512 0.416,-1.248 0.384,-0.736 1.216,-1.408 0.832,-0.704 2.144,-1.184 1.312,-0.48 3.168,-0.48 2.016,0 3.392,0.512 1.408,0.48 2.24,1.312 0.832,0.832 1.216,1.952 0.384,1.12 0.384,2.368 v 10.048 q 0,0.32 -0.224,0.544 -0.224,0.224 -0.544,0.224 h -2.592 q -0.352,0 -0.576,-0.224 -0.192,-0.224 -0.192,-0.544 v -1.248 q -0.416,0.608 -1.12,1.152 -0.704,0.512 -1.728,0.864 -0.992,0.32 -2.368,0.32 z m 1.088,-3.04 q 1.12,0 2.016,-0.48 0.928,-0.48 1.44,-1.472 0.544,-1.024 0.544,-2.56 v -0.672 l -3.2,0.512 q -1.888,0.288 -2.816,0.928 -0.928,0.64 -0.928,1.568 0,0.704 0.416,1.216 0.448,0.48 1.12,0.736 0.672,0.224 1.408,0.224 z"
           style="text-align:center;text-anchor:middle"
           id="path1699" /><path
           d="m 286.57763,962.40715 q -0.32,0 -0.544,-0.224 -0.224,-0.224 -0.224,-0.544 v -20.864 q 0,-0.32 0.224,-0.544 0.224,-0.224 0.544,-0.224 h 2.976 q 0.32,0 0.544,0.224 0.224,0.224 0.224,0.544 v 17.824 h 10.144 q 0.352,0 0.576,0.224 0.224,0.224 0.224,0.576 v 2.24 q 0,0.32 -0.224,0.544 -0.224,0.224 -0.576,0.224 z"
           style="text-align:center;text-anchor:middle"
           id="path1701" /><path
           d="m 310.90662,962.72715 q -3.552,0 -5.632,-2.048 -2.08,-2.048 -2.24,-5.824 -0.032,-0.32 -0.032,-0.8 0,-0.512 0.032,-0.8 0.128,-2.4 1.088,-4.16 0.992,-1.76 2.72,-2.688 1.728,-0.96 4.064,-0.96 2.592,0 4.352,1.088 1.76,1.056 2.656,2.976 0.896,1.888 0.896,4.384 v 0.672 q 0,0.32 -0.224,0.544 -0.224,0.224 -0.576,0.224 h -10.624 q 0,0 0,0.096 0,0.096 0,0.16 0.032,1.12 0.416,2.08 0.416,0.928 1.184,1.504 0.8,0.576 1.888,0.576 0.896,0 1.504,-0.256 0.608,-0.288 0.992,-0.64 0.384,-0.352 0.544,-0.576 0.288,-0.384 0.448,-0.448 0.192,-0.096 0.544,-0.096 h 2.752 q 0.32,0 0.512,0.192 0.224,0.192 0.192,0.48 -0.032,0.512 -0.544,1.248 -0.48,0.736 -1.408,1.44 -0.928,0.704 -2.336,1.184 -1.376,0.448 -3.168,0.448 z m -3.52,-10.08 h 7.072 v -0.096 q 0,-1.248 -0.416,-2.176 -0.416,-0.928 -1.216,-1.472 -0.8,-0.544 -1.92,-0.544 -1.12,0 -1.92,0.544 -0.8,0.544 -1.216,1.472 -0.384,0.928 -0.384,2.176 z"
           style="text-align:center;text-anchor:middle"
           id="path1703" /><path
           d="m 327.4816,962.40715 q -0.512,0 -0.768,-0.224 -0.224,-0.256 -0.384,-0.576 l -5.984,-14.848 q -0.064,-0.16 -0.064,-0.288 0,-0.288 0.192,-0.48 0.224,-0.224 0.512,-0.224 h 2.592 q 0.384,0 0.576,0.224 0.192,0.192 0.256,0.384 l 4.256,11.232 4.256,-11.232 q 0.064,-0.192 0.256,-0.384 0.192,-0.224 0.576,-0.224 h 2.624 q 0.256,0 0.448,0.224 0.224,0.192 0.224,0.48 0,0.128 -0.032,0.288 l -6.016,14.848 q -0.128,0.32 -0.384,0.576 -0.256,0.224 -0.768,0.224 z"
           style="text-align:center;text-anchor:middle"
           id="path1705" /><path
           d="m 346.51459,962.72715 q -3.552,0 -5.632,-2.048 -2.08,-2.048 -2.24,-5.824 -0.032,-0.32 -0.032,-0.8 0,-0.512 0.032,-0.8 0.128,-2.4 1.088,-4.16 0.992,-1.76 2.72,-2.688 1.728,-0.96 4.064,-0.96 2.592,0 4.352,1.088 1.76,1.056 2.656,2.976 0.896,1.888 0.896,4.384 v 0.672 q 0,0.32 -0.224,0.544 -0.224,0.224 -0.576,0.224 h -10.624 q 0,0 0,0.096 0,0.096 0,0.16 0.032,1.12 0.416,2.08 0.416,0.928 1.184,1.504 0.8,0.576 1.888,0.576 0.896,0 1.504,-0.256 0.608,-0.288 0.992,-0.64 0.384,-0.352 0.544,-0.576 0.288,-0.384 0.448,-0.448 0.192,-0.096 0.544,-0.096 h 2.752 q 0.32,0 0.512,0.192 0.224,0.192 0.192,0.48 -0.032,0.512 -0.544,1.248 -0.48,0.736 -1.408,1.44 -0.928,0.704 -2.336,1.184 -1.376,0.448 -3.168,0.448 z m -3.52,-10.08 h 7.072 v -0.096 q 0,-1.248 -0.416,-2.176 -0.416,-0.928 -1.216,-1.472 -0.8,-0.544 -1.92,-0.544 -1.12,0 -1.92,0.544 -0.8,0.544 -1.216,1.472 -0.384,0.928 -0.384,2.176 z"
           style="text-align:center;text-anchor:middle"
           id="path1707" /><path
           d="m 358.61058,962.40715 q -0.32,0 -0.544,-0.224 -0.224,-0.224 -0.224,-0.544 v -21.184 q 0,-0.32 0.224,-0.544 0.224,-0.224 0.544,-0.224 h 2.656 q 0.32,0 0.544,0.224 0.224,0.224 0.224,0.544 v 21.184 q 0,0.32 -0.224,0.544 -0.224,0.224 -0.544,0.224 z"
           style="text-align:center;text-anchor:middle"
           id="path1709" /></g></g></g></svg>
