<?xml version="1.0" encoding="UTF-8" standalone="no"?>
<!-- Created with Inkscape (http://www.inkscape.org/) -->

<svg
   width="352.035mm"
   height="150.0376mm"
   viewBox="0 0 352.03501 150.03759"
   version="1.1"
   id="svg5"
   xml:space="preserve"
   inkscape:version="1.2.2 (b0a8486541, 2022-12-01)"
   sodipodi:docname="lcax_pillars.svg"
   xmlns:inkscape="http://www.inkscape.org/namespaces/inkscape"
   xmlns:sodipodi="http://sodipodi.sourceforge.net/DTD/sodipodi-0.dtd"
   xmlns="http://www.w3.org/2000/svg"
   xmlns:svg="http://www.w3.org/2000/svg"><sodipodi:namedview
     id="namedview7"
     pagecolor="#ffffff"
     bordercolor="#000000"
     borderopacity="0.25"
     inkscape:showpageshadow="2"
     inkscape:pageopacity="0.0"
     inkscape:pagecheckerboard="0"
     inkscape:deskcolor="#d1d1d1"
     inkscape:document-units="mm"
     showgrid="false"
     inkscape:zoom="0.56800419"
     inkscape:cx="652.28392"
     inkscape:cy="300.17384"
     inkscape:window-width="1374"
     inkscape:window-height="831"
     inkscape:window-x="0"
     inkscape:window-y="0"
     inkscape:window-maximized="1"
     inkscape:current-layer="svg5" /><defs
     id="defs2" /><g
     style="fill:none;stroke:currentColor;stroke-width:2;stroke-linecap:round;stroke-linejoin:round"
     id="g9342"
     transform="matrix(2.173913,0,0,2.173913,8.1894915,27.021642)"><g
       id="g27132"
       inkscape:label="Color"
       transform="translate(9.4407001,9.5818)"><path
         stroke="none"
         d="M 0.0592999,-0.0818 H 24.0593 v 24 H 0.0592999 Z"
         fill="none"
         id="path27122"
         style="fill:#334397;fill-opacity:1;stroke:#334397;stroke-opacity:1" /><path
         d="m 14.0593,2.9182 v 4 a 1,1 0 0 0 1,1 h 4"
         id="path27124"
         style="stroke:#ffffff;stroke-width:1;stroke-dasharray:none;stroke-opacity:1" /><path
         d="M 17.0593,20.9182 H 7.0592999 a 2,2 0 0 1 -2,-2 v -14 a 2,2 0 0 1 2,-2 H 14.0593 l 5,5 v 11 a 2,2 0 0 1 -2,2 z"
         id="path27126"
         style="stroke:#ffffff;stroke-width:1;stroke-dasharray:none;stroke-opacity:1" /><path
         d="m 10.0593,12.9182 -1.0000001,2 1.0000001,2"
         id="path27128"
         style="stroke:#ffffff;stroke-width:1;stroke-dasharray:none;stroke-opacity:1" /><path
         d="m 14.0593,12.9182 1,2 -1,2"
         id="path27130"
         style="stroke:#ffffff;stroke-width:1;stroke-dasharray:none;stroke-opacity:1" /><circle
         style="fill:#334397;fill-opacity:1;stroke:#ffffff;stroke-width:0.992023;stroke-linecap:round;stroke-dasharray:none;stroke-opacity:1"
         id="path28275"
         cx="-2.1907001"
         cy="-2.3318"
         r="6.7539887" /><g
         aria-label="1."
         id="text36256"
         style="font-weight:500;font-size:8px;font-family:Rubik;-inkscape-font-specification:'Rubik Medium';text-align:center;text-anchor:middle;display:inline;fill:#973342;stroke:#ffffff;stroke-width:1"><path
           d="m -2.7381261,0.46820003 q -0.088,0 -0.144,-0.056 -0.048,-0.056 -0.048,-0.136 V -3.8678 l -1.216,0.936 q -0.072,0.048 -0.144,0.04 -0.072,-0.016 -0.128,-0.088 l -0.336,-0.432 q -0.048,-0.072 -0.04,-0.152 0.016,-0.08 0.088,-0.128 l 1.792,-1.384 q 0.048,-0.04 0.096,-0.048 0.048,-0.008 0.104,-0.008 h 0.704 q 0.08,0 0.136,0.056 0.056,0.056 0.056,0.136 v 5.21600003 q 0,0.08 -0.056,0.136 -0.056,0.056 -0.136,0.056 z"
           style="fill:#ffffff;stroke:none"
           id="path51683" /><path
           d="m -0.57813137,0.46820003 q -0.08,0 -0.136,-0.056 -0.056,-0.056 -0.056,-0.136 v -0.792 q 0,-0.088 0.056,-0.144 0.056,-0.056 0.136,-0.056 h 0.8 q 0.08,0 0.136,0.056 0.056,0.056 0.056,0.144 v 0.792 q 0,0.08 -0.056,0.136 -0.056,0.056 -0.136,0.056 z"
           style="fill:#ffffff;stroke:none"
           id="path51685" /></g></g></g><g
     style="fill:none;stroke:currentColor;stroke-width:2;stroke-linecap:round;stroke-linejoin:round"
     id="g9436"
     transform="matrix(2.1739131,0,0,2.1739131,268.08012,27.021639)"><g
       id="g37906"
       inkscape:label="Color"><path
         stroke="none"
         d="m 9.5,9.5 h 24 v 24 h -24 z"
         fill="none"
         id="path37884"
         style="fill:#7fa59a;fill-opacity:1;stroke:#7fa59a;stroke-opacity:1" /><path
         d="m 14.5,14.5 m 0,1 a 1,1 0 0 1 1,-1 h 12 a 1,1 0 0 1 1,1 v 12 a 1,1 0 0 1 -1,1 h -12 a 1,1 0 0 1 -1,-1 z"
         id="path37886"
         style="stroke:#ffffff;stroke-width:1;stroke-dasharray:none;stroke-opacity:1" /><path
         d="m 18.5,18.5 h 6 v 6 h -6 z"
         id="path37888"
         style="stroke:#ffffff;stroke-width:1;stroke-dasharray:none;stroke-opacity:1" /><path
         d="m 12.5,19.5 h 2"
         id="path37890"
         style="stroke:#ffffff;stroke-width:1;stroke-dasharray:none;stroke-opacity:1" /><path
         d="m 12.5,23.5 h 2"
         id="path37892"
         style="stroke:#ffffff;stroke-width:1;stroke-dasharray:none;stroke-opacity:1" /><path
         d="m 19.5,12.5 v 2"
         id="path37894"
         style="stroke:#ffffff;stroke-width:1;stroke-dasharray:none;stroke-opacity:1" /><path
         d="m 23.5,12.5 v 2"
         id="path37896"
         style="stroke:#ffffff;stroke-width:1;stroke-dasharray:none;stroke-opacity:1" /><path
         d="m 30.5,19.5 h -2"
         id="path37898"
         style="stroke:#ffffff;stroke-width:1;stroke-dasharray:none;stroke-opacity:1" /><path
         d="m 30.5,23.5 h -2"
         id="path37900"
         style="stroke:#ffffff;stroke-width:1;stroke-dasharray:none;stroke-opacity:1" /><path
         d="m 23.5,30.5 v -2"
         id="path37902"
         style="stroke:#ffffff;stroke-width:1;stroke-dasharray:none;stroke-opacity:1" /><path
         d="m 19.5,30.5 v -2"
         id="path37904"
         style="stroke:#ffffff;stroke-width:1;stroke-dasharray:none;stroke-opacity:1" /><ellipse
         style="display:inline;fill:#7fa59a;fill-opacity:1;stroke:#ffffff;stroke-width:0.992023;stroke-linecap:round;stroke-dasharray:none;stroke-opacity:1"
         id="path28275-7"
         cx="7.25"
         cy="7.25"
         rx="6.7539883"
         ry="6.7539887" /><g
         aria-label="4."
         id="text36256-5"
         style="font-weight:500;font-size:8px;font-family:Rubik;-inkscape-font-specification:'Rubik Medium';text-align:center;text-anchor:middle;display:inline;fill:#973342;stroke:#ffffff;stroke-width:1"><path
           d="m 6.8951184,10.05 q -0.08,0 -0.136,-0.056 -0.056,-0.056 -0.056,-0.136 V 8.834 h -2.536 q -0.088,0 -0.144,-0.056 -0.048,-0.056 -0.048,-0.136 V 8.098 q 0,-0.048 0.016,-0.112 0.024,-0.072 0.072,-0.128 l 2.36,-3.272 q 0.104,-0.136 0.296,-0.136 h 0.872 q 0.08,0 0.136,0.056 0.056,0.056 0.056,0.136 V 7.89 h 0.712 q 0.096,0 0.144,0.056 0.056,0.048 0.056,0.136 v 0.56 q 0,0.08 -0.056,0.136 -0.056,0.056 -0.136,0.056 h -0.72 v 1.024 q 0,0.08 -0.056,0.136 -0.056,0.056 -0.136,0.056 z m -1.808,-2.1279998 h 1.64 v -2.312 z"
           style="fill:#ffffff;stroke:none"
           id="path52070" /><path
           d="m 9.5328813,10.05 q -0.08,0 -0.136,-0.056 -0.056,-0.056 -0.056,-0.136 V 9.066 q 0,-0.088 0.056,-0.144 0.056,-0.056 0.136,-0.056 h 0.7999997 q 0.08,0 0.136,0.056 0.056,0.056 0.056,0.144 v 0.792 q 0,0.08 -0.056,0.136 -0.056,0.056 -0.136,0.056 z"
           style="fill:#ffffff;stroke:none"
           id="path52072" /></g></g></g><g
     style="fill:none;stroke:currentColor;stroke-width:2;stroke-linecap:round;stroke-linejoin:round"
     id="g9375"
     transform="matrix(2.173913,0,0,2.173913,181.4499,27.021642)"><g
       id="g36742"
       inkscape:label="Color"
       transform="translate(9.5,9.5)"><path
         stroke="none"
         d="M 0,0 H 24 V 24 H 0 Z"
         fill="none"
         id="path36734"
         style="fill:#958732;fill-opacity:1;stroke:#958732;stroke-opacity:1" /><path
         d="m 14,3 v 4 a 1,1 0 0 0 1,1 h 4"
         id="path36736"
         style="stroke:#ffffff;stroke-width:1;stroke-dasharray:none;stroke-opacity:1" /><path
         d="M 17,21 H 7 A 2,2 0 0 1 5,19 V 5 A 2,2 0 0 1 7,3 h 7 l 5,5 v 11 a 2,2 0 0 1 -2,2 z"
         id="path36738"
         style="stroke:#ffffff;stroke-width:1;stroke-dasharray:none;stroke-opacity:1" /><path
         d="m 9,15 2,2 4,-4"
         id="path36740"
         style="stroke:#ffffff;stroke-width:1;stroke-dasharray:none;stroke-opacity:1" /><ellipse
         style="display:inline;fill:#958732;fill-opacity:1;stroke:#ffffff;stroke-width:0.992023;stroke-linecap:round;stroke-dasharray:none;stroke-opacity:1"
         id="path28275-3"
         cx="-2.2500002"
         cy="-2.2499998"
         rx="6.7539883"
         ry="6.7539887" /><g
         aria-label="3."
         id="text36256-6"
         style="font-weight:500;font-size:8px;font-family:Rubik;-inkscape-font-specification:'Rubik Medium';text-align:center;text-anchor:middle;display:inline;fill:#973342;stroke:#ffffff;stroke-width:1"><path
           d="m -3.2619969,0.59000023 q -0.56,0 -0.968,-0.136 -0.408,-0.136 -0.68,-0.352 -0.264,-0.224 -0.4,-0.48 -0.136,-0.264 -0.144,-0.52 0,-0.072 0.048,-0.11200003 0.056,-0.048 0.128,-0.048 h 0.72 q 0.08,0 0.136,0.032 0.056,0.032 0.096,0.12800003 0.072,0.216 0.232,0.344 0.168,0.128 0.384,0.184 0.216,0.048 0.456,0.048 0.48,0 0.76,-0.224 0.288,-0.232 0.288,-0.65600003 0,-0.424 -0.264,-0.608 -0.264,-0.192 -0.736,-0.192 h -0.824 q -0.088,0 -0.144,-0.048 -0.056,-0.056 -0.056,-0.144 v -0.336 q 0,-0.08 0.032,-0.136 0.04,-0.064 0.08,-0.104 l 1.432,-1.4 h -2.288 q -0.088,0 -0.144,-0.056 -0.048,-0.056 -0.048,-0.136 v -0.528 q 0,-0.088 0.048,-0.144 0.056,-0.056 0.144,-0.056 h 3.432 q 0.088,0 0.144,0.056 0.056,0.056 0.056,0.144 v 0.48 q 0,0.072 -0.032,0.128 -0.032,0.056 -0.072,0.096 l -1.384,1.424 0.096,0.008 q 0.488,0.04 0.864,0.224 0.384,0.176 0.592,0.52 0.216,0.344 0.216,0.864 0,0.54400003 -0.288,0.93600003 -0.28,0.384 -0.776,0.592 -0.496,0.208 -1.136,0.208 z"
           style="fill:#ffffff;stroke:none"
           id="path52832" /><path
           d="m -0.03800361,0.51000023 q -0.08,0 -0.136,-0.056 -0.056,-0.056 -0.056,-0.136 v -0.792 q 0,-0.088 0.056,-0.144 0.056,-0.056 0.136,-0.056 h 0.8 q 0.08,0 0.136,0.056 0.056,0.056 0.056,0.144 v 0.792 q 0,0.08 -0.056,0.136 -0.056,0.056 -0.136,0.056 z"
           style="fill:#ffffff;stroke:none"
           id="path52834" /></g></g></g><g
     style="fill:none;stroke:currentColor;stroke-width:2;stroke-linecap:round;stroke-linejoin:round"
     id="g9473"
     transform="matrix(2.1739131,0,0,2.1739131,94.819698,27.021639)"><g
       id="g30002"
       inkscape:label="Color"
       style="display:inline"><path
         stroke="none"
         d="m 9.5,9.5 h 24 v 24 h -24 z"
         fill="none"
         id="path29992"
         inkscape:label="path569"
         style="fill:#973342;fill-opacity:1;stroke:#973342;stroke-opacity:1" /><path
         d="m 30.5,16.5 h -18"
         id="path29994"
         style="stroke:#ffffff;stroke-width:1;stroke-dasharray:none;stroke-opacity:1" /><path
         d="m 27.5,19.5 3,-3 -3,-3"
         id="path29996"
         style="stroke:#ffffff;stroke-width:1;stroke-dasharray:none;stroke-opacity:1" /><path
         d="m 15.5,29.5 -3,-3 3,-3"
         id="path29998"
         style="stroke:#ffffff;stroke-width:1;stroke-dasharray:none;stroke-opacity:1" /><path
         d="m 12.5,26.5 h 18"
         id="path30000"
         style="stroke:#ffffff;stroke-width:1;stroke-dasharray:none;stroke-opacity:1" /><ellipse
         style="display:inline;fill:#973342;fill-opacity:1;stroke:#ffffff;stroke-width:0.992023;stroke-linecap:round;stroke-dasharray:none;stroke-opacity:1"
         id="path28275-35"
         cx="7.25"
         cy="7.25"
         rx="6.7539883"
         ry="6.7539887" /><g
         aria-label="2."
         id="text36256-62"
         style="font-weight:500;font-size:8px;font-family:Rubik;-inkscape-font-specification:'Rubik Medium';text-align:center;text-anchor:middle;fill:#973342;stroke:#ffffff;stroke-width:1"><path
           d="m 4.314002,10.098 q -0.08,0 -0.136,-0.056 -0.056,-0.056 -0.056,-0.1360004 v -0.408 q 0,-0.072 0.032,-0.168 0.04,-0.104 0.168,-0.208 l 1.264,-1.256 q 0.528,-0.416 0.848,-0.704 0.328,-0.296 0.472,-0.536 0.152,-0.248 0.152,-0.488 0,-0.36 -0.2,-0.584 -0.192,-0.224 -0.616,-0.224 -0.28,0 -0.472,0.12 -0.192,0.112 -0.304,0.304 -0.104,0.192 -0.144,0.424 -0.016,0.104 -0.088,0.144 -0.072,0.04 -0.144,0.04 h -0.712 q -0.072,0 -0.12,-0.048 -0.048,-0.048 -0.048,-0.112 0.008,-0.344 0.144,-0.664 0.136,-0.328 0.392,-0.576 0.264,-0.256 0.64,-0.408 0.376,-0.152 0.848,-0.152 0.664,0 1.096,0.224 0.44,0.224 0.656,0.608 0.224,0.384 0.224,0.864 0,0.376 -0.144,0.696 -0.144,0.312 -0.416,0.608 -0.272,0.288 -0.656,0.592 l -1.136,1.152 h 2.28 q 0.088,0 0.136,0.056 0.056,0.048 0.056,0.136 v 0.568 q 0,0.08 -0.056,0.1360004 -0.048,0.056 -0.136,0.056 z"
           style="fill:#ffffff;stroke:none"
           id="path53580" /><path
           d="m 9.3859978,10.098 q -0.08,0 -0.136,-0.056 -0.056,-0.056 -0.056,-0.1360004 v -0.792 q 0,-0.088 0.056,-0.144 0.056,-0.056 0.136,-0.056 h 0.8000002 q 0.08,0 0.136,0.056 0.056,0.056 0.056,0.144 v 0.792 q 0,0.08 -0.056,0.1360004 -0.056,0.056 -0.136,0.056 z"
           style="fill:#ffffff;stroke:none"
           id="path53582" /></g></g></g><g
     aria-label="Data Structure"
     id="text9882"
     style="font-weight:500;font-size:11.2889px;font-family:Rubik;-inkscape-font-specification:'Rubik Medium';text-align:center;text-anchor:middle;opacity:1;fill:#e8e8e8;stroke-width:7.99999;stroke-linecap:round;stroke-linejoin:round"
     transform="translate(6.339414,-40.478361)"><path
       d="m -0.4392487,168.61859 q -0.112889,0 -0.19191131,-0.079 -0.0790223,-0.079 -0.0790223,-0.19191 v -7.34908 q 0,-0.12417 0.0790223,-0.2032 0.0790223,-0.079 0.19191131,-0.079 H 2.315243 q 1.1401789,0 1.8739575,0.34996 0.7450674,0.34995 1.1176011,1.03858 0.3838226,0.68862 0.3951115,1.68204 0.022578,0.49671 0.022578,0.88054 0,0.38382 -0.022578,0.86924 -0.022578,1.04987 -0.3838226,1.73849 -0.3612448,0.67734 -1.0950233,1.016 -0.7224897,0.32738 -1.8513797,0.32738 z m 1.29822354,-1.29822 H 2.315243 q 0.6321784,0 1.0272899,-0.18062 0.3951115,-0.18063 0.5757339,-0.57574 0.1919114,-0.4064 0.2032003,-1.06116 0.011289,-0.33866 0.011289,-0.58702 0.011289,-0.25964 0,-0.508 0,-0.25964 -0.011289,-0.58702 -0.022578,-0.92569 -0.462845,-1.36596 -0.4402671,-0.44027 -1.3998236,-0.44027 H 0.85897484 Z"
       style="fill:#020202;stroke-width:8"
       id="path865" /><path
       d="m 8.795062,168.73148 q -0.5870228,0 -1.0611567,-0.22578 -0.4741338,-0.23706 -0.7563563,-0.62089 -0.2709336,-0.39511 -0.2709336,-0.88053 0,-0.79022 0.6321784,-1.25307 0.6434673,-0.47413 1.6933351,-0.63218 l 1.5465791,-0.22578 v -0.23706 q 0,-0.47414 -0.237067,-0.73378 -0.237067,-0.25965 -0.8128005,-0.25965 -0.4064004,0 -0.6660451,0.16934 -0.2483558,0.15804 -0.3725337,0.42898 -0.090311,0.14675 -0.2596447,0.14675 H 7.3387938 q -0.1241779,0 -0.1919113,-0.0677 -0.056445,-0.0677 -0.056445,-0.18062 0.011289,-0.18063 0.1467557,-0.44027 0.1354668,-0.25965 0.4289782,-0.49671 0.2935114,-0.24836 0.7563564,-0.41769 0.4628449,-0.16934 1.1176011,-0.16934 0.7112006,0 1.1966236,0.18063 0.496711,0.16933 0.790223,0.46284 0.293511,0.29351 0.428978,0.68862 0.135467,0.39512 0.135467,0.83538 v 3.54472 q 0,0.11289 -0.07902,0.19191 -0.07902,0.079 -0.191912,0.079 h -0.914401 q -0.124178,0 -0.2032,-0.079 -0.06773,-0.079 -0.06773,-0.19191 v -0.44027 q -0.146756,0.21449 -0.395112,0.4064 -0.2483556,0.18062 -0.6096004,0.3048 -0.3499559,0.11289 -0.8353786,0.11289 z m 0.3838226,-1.07245 q 0.3951115,0 0.7112007,-0.16933 0.3273777,-0.16933 0.5080007,-0.51929 0.191911,-0.36124 0.191911,-0.90311 v -0.23707 l -1.1288899,0.18063 q -0.6660451,0.1016 -0.9934232,0.32737 -0.3273781,0.22578 -0.3273781,0.55316 0,0.24836 0.1467557,0.42898 0.1580446,0.16933 0.3951115,0.25964 0.2370669,0.079 0.4967116,0.079 z"
       style="fill:#020202;stroke-width:8"
       id="path867" /><path
       d="m 16.137433,168.61859 q -0.677334,0 -1.140179,-0.23707 -0.462845,-0.23706 -0.688623,-0.69991 -0.225778,-0.47413 -0.225778,-1.17404 v -2.56258 H 13.19103 q -0.112889,0 -0.191911,-0.079 -0.07902,-0.079 -0.07902,-0.19191 v -0.65475 q 0,-0.11289 0.07902,-0.19191 0.07902,-0.079 0.191911,-0.079 h 0.891823 v -1.87395 q 0,-0.11289 0.06773,-0.19192 0.07902,-0.079 0.2032,-0.079 h 0.914401 q 0.112889,0 0.191911,0.079 0.07902,0.079 0.07902,0.19192 v 1.87395 h 1.411113 q 0.112889,0 0.191911,0.079 0.07902,0.079 0.07902,0.19191 v 0.65475 q 0,0.11289 -0.07902,0.19191 -0.07902,0.079 -0.191911,0.079 h -1.411113 v 2.44969 q 0,0.46284 0.158045,0.72249 0.169334,0.25964 0.575734,0.25964 h 0.778934 q 0.112889,0 0.191911,0.079 0.07902,0.079 0.07902,0.19192 v 0.69991 q 0,0.11289 -0.07902,0.19191 -0.07902,0.079 -0.191911,0.079 z"
       style="fill:#020202;stroke-width:8"
       id="path869" /><path
       d="m 20.032113,168.73148 q -0.587023,0 -1.061157,-0.22578 -0.474134,-0.23706 -0.756356,-0.62089 -0.270934,-0.39511 -0.270934,-0.88053 0,-0.79022 0.632178,-1.25307 0.643468,-0.47413 1.693335,-0.63218 l 1.54658,-0.22578 v -0.23706 q 0,-0.47414 -0.237067,-0.73378 -0.237067,-0.25965 -0.812801,-0.25965 -0.4064,0 -0.666045,0.16934 -0.248356,0.15804 -0.372534,0.42898 -0.09031,0.14675 -0.259645,0.14675 h -0.891823 q -0.124178,0 -0.191911,-0.0677 -0.05644,-0.0677 -0.05644,-0.18062 0.01129,-0.18063 0.146755,-0.44027 0.135467,-0.25965 0.428978,-0.49671 0.293512,-0.24836 0.756357,-0.41769 0.462845,-0.16934 1.117601,-0.16934 0.711201,0 1.196623,0.18063 0.496712,0.16933 0.790223,0.46284 0.293512,0.29351 0.428979,0.68862 0.135466,0.39512 0.135466,0.83538 v 3.54472 q 0,0.11289 -0.07902,0.19191 -0.07902,0.079 -0.191911,0.079 h -0.914401 q -0.124178,0 -0.2032,-0.079 -0.06773,-0.079 -0.06773,-0.19191 v -0.44027 q -0.146755,0.21449 -0.395111,0.4064 -0.248356,0.18062 -0.609601,0.3048 -0.349956,0.11289 -0.835378,0.11289 z m 0.383822,-1.07245 q 0.395112,0 0.711201,-0.16933 0.327378,-0.16933 0.508,-0.51929 0.191912,-0.36124 0.191912,-0.90311 v -0.23707 l -1.12889,0.18063 q -0.666045,0.1016 -0.993424,0.32737 -0.327378,0.22578 -0.327378,0.55316 0,0.24836 0.146756,0.42898 0.158045,0.16933 0.395112,0.25964 0.237066,0.079 0.496711,0.079 z"
       style="fill:#020202;stroke-width:8"
       id="path871" /><path
       d="m 30.237271,168.73148 q -1.049868,0 -1.761069,-0.3048 -0.699911,-0.31609 -1.072445,-0.8128 -0.361245,-0.508 -0.383823,-1.06116 0,-0.1016 0.06773,-0.16933 0.06773,-0.0677 0.169333,-0.0677 h 1.004712 q 0.146756,0 0.214489,0.0677 0.07902,0.0564 0.135467,0.14675 0.06773,0.21449 0.259645,0.42898 0.191911,0.2032 0.519289,0.33867 0.338667,0.13547 0.846668,0.13547 0.812801,0 1.207912,-0.27094 0.406401,-0.27093 0.406401,-0.73378 0,-0.32737 -0.21449,-0.51928 -0.214489,-0.2032 -0.666045,-0.36125 -0.440267,-0.16933 -1.174045,-0.34996 -0.846668,-0.2032 -1.422402,-0.48542 -0.564445,-0.29351 -0.857956,-0.73378 -0.282223,-0.44026 -0.282223,-1.1176 0,-0.65475 0.349956,-1.16275 0.361245,-0.50801 1.016001,-0.80152 0.666045,-0.29351 1.580446,-0.29351 0.733779,0 1.298224,0.2032 0.564445,0.19191 0.936979,0.51929 0.372533,0.31609 0.564445,0.68862 0.2032,0.36125 0.214489,0.71121 0,0.0903 -0.06773,0.16933 -0.05644,0.0677 -0.169333,0.0677 h -1.049868 q -0.09031,0 -0.180622,-0.0452 -0.09031,-0.0452 -0.146756,-0.16934 -0.06773,-0.34995 -0.440267,-0.59831 -0.372534,-0.24835 -0.959557,-0.24835 -0.6096,0 -0.982134,0.22577 -0.372534,0.22578 -0.372534,0.69992 0,0.31608 0.180623,0.53057 0.191911,0.2032 0.598311,0.36125 0.41769,0.15804 1.095024,0.33867 0.959556,0.21448 1.569157,0.49671 0.609601,0.28222 0.891823,0.72249 0.282223,0.42898 0.282223,1.09502 0,0.74507 -0.406401,1.27565 -0.395111,0.51929 -1.117601,0.80151 -0.72249,0.28222 -1.682046,0.28222 z"
       style="fill:#020202;stroke-width:8"
       id="path873" /><path
       d="m 37.258967,168.61859 q -0.677334,0 -1.140178,-0.23707 -0.462845,-0.23706 -0.688623,-0.69991 -0.225778,-0.47413 -0.225778,-1.17404 v -2.56258 h -0.891824 q -0.112889,0 -0.191911,-0.079 -0.07902,-0.079 -0.07902,-0.19191 v -0.65475 q 0,-0.11289 0.07902,-0.19191 0.07902,-0.079 0.191911,-0.079 h 0.891824 v -1.87395 q 0,-0.11289 0.06773,-0.19192 0.07902,-0.079 0.2032,-0.079 h 0.914401 q 0.112889,0 0.191911,0.079 0.07902,0.079 0.07902,0.19192 v 1.87395 h 1.411112 q 0.112889,0 0.191912,0.079 0.07902,0.079 0.07902,0.19191 v 0.65475 q 0,0.11289 -0.07902,0.19191 -0.07902,0.079 -0.191912,0.079 h -1.411112 v 2.44969 q 0,0.46284 0.158044,0.72249 0.169334,0.25964 0.575734,0.25964 h 0.778934 q 0.112889,0 0.191912,0.079 0.07902,0.079 0.07902,0.19192 v 0.69991 q 0,0.11289 -0.07902,0.19191 -0.07902,0.079 -0.191912,0.079 z"
       style="fill:#020202;stroke-width:8"
       id="path875" /><path
       d="m 39.719958,168.61859 q -0.112889,0 -0.191911,-0.079 -0.07902,-0.079 -0.07902,-0.19191 v -5.31707 q 0,-0.12418 0.07902,-0.2032 0.07902,-0.079 0.191911,-0.079 h 0.914401 q 0.112889,0 0.191912,0.079 0.09031,0.079 0.09031,0.2032 v 0.46284 q 0.259645,-0.36124 0.666045,-0.55316 0.417689,-0.19191 0.959557,-0.19191 h 0.462844 q 0.124178,0 0.191912,0.079 0.07902,0.079 0.07902,0.19191 v 0.8128 q 0,0.11289 -0.07902,0.19191 -0.06773,0.079 -0.191912,0.079 h -0.880534 q -0.541867,0 -0.846667,0.3048 -0.293512,0.3048 -0.293512,0.83538 v 3.10445 q 0,0.11289 -0.07902,0.19191 -0.07902,0.079 -0.2032,0.079 z"
       style="fill:#020202;stroke-width:8"
       id="path877" /><path
       d="m 46.335253,168.73148 q -0.688623,0 -1.196624,-0.3048 -0.496712,-0.31609 -0.767645,-0.88053 -0.270934,-0.57574 -0.270934,-1.35467 v -3.17218 q 0,-0.11289 0.07902,-0.19191 0.07902,-0.079 0.191911,-0.079 h 0.993423 q 0.124178,0 0.191911,0.079 0.07902,0.079 0.07902,0.19191 v 3.10444 q 0,1.39983 1.23049,1.39983 0.587023,0 0.92569,-0.37254 0.349956,-0.37253 0.349956,-1.02729 v -3.10444 q 0,-0.11289 0.07902,-0.19191 0.07902,-0.079 0.191911,-0.079 h 0.993423 q 0.112889,0 0.191912,0.079 0.07902,0.079 0.07902,0.19191 v 5.32836 q 0,0.11289 -0.07902,0.19191 -0.07902,0.079 -0.191912,0.079 h -0.914401 q -0.124177,0 -0.2032,-0.079 -0.06773,-0.079 -0.06773,-0.19191 v -0.46285 q -0.3048,0.39511 -0.756356,0.62089 -0.451556,0.22578 -1.12889,0.22578 z"
       style="fill:#020202;stroke-width:8"
       id="path879" /><path
       d="m 53.706908,168.73148 q -0.812801,0 -1.433691,-0.3048 -0.6096,-0.3048 -0.959556,-0.88053 -0.338667,-0.58703 -0.372534,-1.41112 -0.01129,-0.16933 -0.01129,-0.44026 0,-0.28223 0.01129,-0.46285 0.03387,-0.82409 0.372534,-1.39982 0.349956,-0.58703 0.959556,-0.89183 0.62089,-0.3048 1.433691,-0.3048 0.722489,0 1.23049,0.2032 0.508,0.2032 0.835378,0.508 0.327379,0.30481 0.485423,0.64347 0.169334,0.32738 0.180623,0.59831 0.01129,0.12418 -0.07902,0.2032 -0.07902,0.0677 -0.191911,0.0677 h -0.993423 q -0.112889,0 -0.180623,-0.0564 -0.05644,-0.0564 -0.112889,-0.16933 -0.169333,-0.45156 -0.451556,-0.63218 -0.270933,-0.19191 -0.699912,-0.19191 -0.564445,0 -0.903112,0.36124 -0.327378,0.34996 -0.349956,1.11761 -0.02258,0.42897 0,0.79022 0.02258,0.77893 0.349956,1.12889 0.338667,0.34995 0.903112,0.34995 0.440268,0 0.711201,-0.18062 0.270934,-0.19191 0.440267,-0.64347 0.05645,-0.11288 0.112889,-0.16933 0.06773,-0.0564 0.180623,-0.0564 h 0.993423 q 0.112889,0 0.191911,0.079 0.09031,0.0677 0.07902,0.19191 -0.01129,0.2032 -0.112889,0.46285 -0.09031,0.24835 -0.304801,0.51928 -0.2032,0.25965 -0.519289,0.48543 -0.316089,0.21449 -0.767645,0.34995 -0.440268,0.13547 -1.02729,0.13547 z"
       style="fill:#020202;stroke-width:8"
       id="path881" /><path
       d="m 60.26575,168.61859 q -0.677334,0 -1.140179,-0.23707 -0.462845,-0.23706 -0.688623,-0.69991 -0.225778,-0.47413 -0.225778,-1.17404 v -2.56258 h -0.891823 q -0.112889,0 -0.191911,-0.079 -0.07902,-0.079 -0.07902,-0.19191 v -0.65475 q 0,-0.11289 0.07902,-0.19191 0.07902,-0.079 0.191911,-0.079 h 0.891823 v -1.87395 q 0,-0.11289 0.06773,-0.19192 0.07902,-0.079 0.2032,-0.079 h 0.914401 q 0.112889,0 0.191911,0.079 0.07902,0.079 0.07902,0.19192 v 1.87395 h 1.411113 q 0.112889,0 0.191911,0.079 0.07902,0.079 0.07902,0.19191 v 0.65475 q 0,0.11289 -0.07902,0.19191 -0.07902,0.079 -0.191911,0.079 h -1.411113 v 2.44969 q 0,0.46284 0.158045,0.72249 0.169333,0.25964 0.575734,0.25964 h 0.778934 q 0.112889,0 0.191911,0.079 0.07902,0.079 0.07902,0.19192 v 0.69991 q 0,0.11289 -0.07902,0.19191 -0.07902,0.079 -0.191911,0.079 z"
       style="fill:#020202;stroke-width:8"
       id="path883" /><path
       d="m 64.634561,168.73148 q -0.688623,0 -1.196623,-0.3048 -0.496712,-0.31609 -0.767645,-0.88053 -0.270934,-0.57574 -0.270934,-1.35467 v -3.17218 q 0,-0.11289 0.07902,-0.19191 0.07902,-0.079 0.191912,-0.079 h 0.993423 q 0.124178,0 0.191911,0.079 0.07902,0.079 0.07902,0.19191 v 3.10444 q 0,1.39983 1.230491,1.39983 0.587022,0 0.925689,-0.37254 0.349956,-0.37253 0.349956,-1.02729 v -3.10444 q 0,-0.11289 0.07902,-0.19191 0.07902,-0.079 0.191911,-0.079 h 0.993423 q 0.112889,0 0.191912,0.079 0.07902,0.079 0.07902,0.19191 v 5.32836 q 0,0.11289 -0.07902,0.19191 -0.07902,0.079 -0.191912,0.079 h -0.914401 q -0.124178,0 -0.2032,-0.079 -0.06773,-0.079 -0.06773,-0.19191 v -0.46285 q -0.304801,0.39511 -0.756357,0.62089 -0.451556,0.22578 -1.12889,0.22578 z"
       style="fill:#020202;stroke-width:8"
       id="path885" /><path
       d="m 69.737151,168.61859 q -0.112889,0 -0.191911,-0.079 -0.07902,-0.079 -0.07902,-0.19191 v -5.31707 q 0,-0.12418 0.07902,-0.2032 0.07902,-0.079 0.191911,-0.079 h 0.914401 q 0.112889,0 0.191911,0.079 0.09031,0.079 0.09031,0.2032 v 0.46284 q 0.259644,-0.36124 0.666045,-0.55316 0.417689,-0.19191 0.959556,-0.19191 h 0.462845 q 0.124178,0 0.191912,0.079 0.07902,0.079 0.07902,0.19191 v 0.8128 q 0,0.11289 -0.07902,0.19191 -0.06773,0.079 -0.191912,0.079 h -0.880534 q -0.541867,0 -0.846667,0.3048 -0.293512,0.3048 -0.293512,0.83538 v 3.10445 q 0,0.11289 -0.07902,0.19191 -0.07902,0.079 -0.2032,0.079 z"
       style="fill:#020202;stroke-width:8"
       id="path887" /><path
       d="m 76.621976,168.73148 q -1.253068,0 -1.986846,-0.72249 -0.733779,-0.72249 -0.790223,-2.05458 -0.01129,-0.11289 -0.01129,-0.28222 0,-0.18062 0.01129,-0.28222 0.04515,-0.84667 0.383822,-1.46756 0.349956,-0.62089 0.959557,-0.94827 0.6096,-0.33867 1.43369,-0.33867 0.914401,0 1.53529,0.38383 0.62089,0.37253 0.936979,1.04986 0.316089,0.66605 0.316089,1.54658 v 0.23707 q 0,0.11289 -0.07902,0.19191 -0.07902,0.079 -0.2032,0.079 h -3.747915 q 0,0 0,0.0339 0,0.0339 0,0.0564 0.01129,0.39511 0.146756,0.73377 0.146755,0.32738 0.417689,0.53058 0.282222,0.2032 0.666045,0.2032 0.316089,0 0.530578,-0.0903 0.21449,-0.1016 0.349956,-0.22578 0.135467,-0.12417 0.191912,-0.2032 0.1016,-0.13546 0.158044,-0.15804 0.06773,-0.0339 0.191912,-0.0339 h 0.970845 q 0.112889,0 0.180622,0.0677 0.07902,0.0677 0.06773,0.16933 -0.01129,0.18062 -0.191912,0.44027 -0.169333,0.25964 -0.496711,0.508 -0.327378,0.24835 -0.82409,0.41769 -0.485423,0.15804 -1.117601,0.15804 z m -1.241779,-3.556 h 2.494847 v -0.0339 q 0,-0.44027 -0.146756,-0.76765 -0.146755,-0.32737 -0.428978,-0.51928 -0.282222,-0.19192 -0.677334,-0.19192 -0.395112,0 -0.677334,0.19192 -0.282223,0.19191 -0.428978,0.51928 -0.135467,0.32738 -0.135467,0.76765 z"
       style="fill:#020202;stroke-width:8"
       id="path889" /></g><g
     aria-label="Conversion"
     id="text9882-9"
     style="font-weight:500;font-size:11.2889px;font-family:Rubik;-inkscape-font-specification:'Rubik Medium';text-align:center;text-anchor:middle;fill:#e8e8e8;stroke-width:7.99999;stroke-linecap:round;stroke-linejoin:round"
     transform="translate(6.339414,-40.478361)"><path
       d="m 99.219051,168.8218 q -1.049868,0 -1.783647,-0.36125 -0.722489,-0.37253 -1.106312,-1.04987 -0.383822,-0.68862 -0.428978,-1.64817 -0.01129,-0.46285 -0.01129,-0.99343 0,-0.53058 0.01129,-1.016 0.04516,-0.94827 0.428978,-1.63689 0.395112,-0.68862 1.117601,-1.04987 0.733779,-0.37253 1.772358,-0.37253 0.767645,0 1.377249,0.2032 0.6096,0.2032 1.03858,0.56444 0.42897,0.34996 0.66604,0.82409 0.23707,0.47414 0.24836,1.02729 0.0113,0.1016 -0.0677,0.16934 -0.0677,0.0677 -0.16933,0.0677 h -1.07245 q -0.12417,0 -0.2032,-0.0564 -0.079,-0.0677 -0.11289,-0.21449 -0.18062,-0.74507 -0.62088,-1.016 -0.440272,-0.27094 -1.095028,-0.27094 -0.756357,0 -1.207913,0.42898 -0.451556,0.41769 -0.485422,1.38854 -0.03387,0.92569 0,1.89653 0.03387,0.97085 0.485422,1.39982 0.451556,0.41769 1.207913,0.41769 0.654756,0 1.095028,-0.27093 0.44026,-0.28222 0.62088,-1.016 0.0339,-0.15805 0.11289,-0.21449 0.079,-0.0564 0.2032,-0.0564 h 1.07245 q 0.1016,0 0.16933,0.0677 0.079,0.0677 0.0677,0.16933 -0.0113,0.55316 -0.24836,1.02729 -0.23707,0.47414 -0.66604,0.83538 -0.42898,0.34996 -1.03858,0.55316 -0.609604,0.2032 -1.377249,0.2032 z"
       style="fill:#020202;stroke-width:8"
       id="path892" /><path
       d="m 106.35364,168.8218 q -0.90312,0 -1.52401,-0.31609 -0.6096,-0.31609 -0.93697,-0.89183 -0.31609,-0.57573 -0.36125,-1.34337 -0.0113,-0.2032 -0.0113,-0.49672 0,-0.29351 0.0113,-0.49671 0.0452,-0.77893 0.37253,-1.34338 0.33867,-0.57573 0.94827,-0.89182 0.62089,-0.31609 1.50143,-0.31609 0.88053,0 1.49013,0.31609 0.62089,0.31609 0.94827,0.89182 0.33867,0.56445 0.38382,1.34338 0.0113,0.2032 0.0113,0.49671 0,0.29352 -0.0113,0.49672 -0.0452,0.76764 -0.37253,1.34337 -0.31609,0.57574 -0.93698,0.89183 -0.6096,0.31609 -1.51271,0.31609 z m 0,-1.1176 q 0.59831,0 0.92569,-0.37254 0.32737,-0.38382 0.36124,-1.1176 0.0113,-0.16933 0.0113,-0.44027 0,-0.27093 -0.0113,-0.44026 -0.0339,-0.72249 -0.36124,-1.10632 -0.32738,-0.38382 -0.92569,-0.38382 -0.59832,0 -0.92569,0.38382 -0.32738,0.38383 -0.36125,1.10632 -0.0113,0.16933 -0.0113,0.44026 0,0.27094 0.0113,0.44027 0.0339,0.73378 0.36125,1.1176 0.32737,0.37254 0.92569,0.37254 z"
       style="fill:#020202;stroke-width:8"
       id="path894" /><path
       d="m 110.71116,168.70891 q -0.11289,0 -0.19191,-0.079 -0.079,-0.079 -0.079,-0.19192 v -5.32836 q 0,-0.11289 0.079,-0.19191 0.079,-0.079 0.19191,-0.079 h 0.92569 q 0.11289,0 0.19191,0.079 0.079,0.079 0.079,0.19191 v 0.46285 q 0.29351,-0.36125 0.74506,-0.59831 0.46285,-0.24836 1.14018,-0.24836 0.68862,0 1.19663,0.31609 0.508,0.3048 0.77893,0.86925 0.28222,0.56444 0.28222,1.35466 v 3.17218 q 0,0.11289 -0.079,0.19192 -0.079,0.079 -0.19191,0.079 h -0.99342 q -0.11289,0 -0.19192,-0.079 -0.079,-0.079 -0.079,-0.19192 v -3.10444 q 0,-0.65476 -0.32738,-1.02729 -0.31609,-0.37254 -0.92569,-0.37254 -0.58702,0 -0.93698,0.37254 -0.34995,0.37253 -0.34995,1.02729 v 3.10444 q 0,0.11289 -0.079,0.19192 -0.079,0.079 -0.19191,0.079 z"
       style="fill:#020202;stroke-width:8"
       id="path896" /><path
       d="m 119.38528,168.70891 q -0.18062,0 -0.27094,-0.079 -0.079,-0.0903 -0.13546,-0.2032 l -2.11103,-5.23805 q -0.0226,-0.0564 -0.0226,-0.1016 0,-0.1016 0.0677,-0.16934 0.079,-0.079 0.18062,-0.079 h 0.9144 q 0.13547,0 0.2032,0.079 0.0677,0.0677 0.0903,0.13547 l 1.50143,3.9624 1.50142,-3.9624 q 0.0226,-0.0677 0.0903,-0.13547 0.0677,-0.079 0.2032,-0.079 h 0.92569 q 0.0903,0 0.15805,0.079 0.079,0.0677 0.079,0.16934 0,0.0452 -0.0113,0.1016 l -2.12231,5.23805 q -0.0452,0.11288 -0.13547,0.2032 -0.0903,0.079 -0.27093,0.079 z"
       style="fill:#020202;stroke-width:8"
       id="path898" /><path
       d="m 126.0997,168.8218 q -1.25307,0 -1.98685,-0.72249 -0.73377,-0.72249 -0.79022,-2.05458 -0.0113,-0.11289 -0.0113,-0.28222 0,-0.18063 0.0113,-0.28223 0.0452,-0.84666 0.38382,-1.46755 0.34996,-0.62089 0.95956,-0.94827 0.6096,-0.33867 1.43369,-0.33867 0.9144,0 1.53529,0.38382 0.62089,0.37254 0.93698,1.04987 0.31609,0.66605 0.31609,1.54658 v 0.23707 q 0,0.11289 -0.079,0.19191 -0.079,0.079 -0.2032,0.079 h -3.74792 q 0,0 0,0.0339 0,0.0339 0,0.0564 0.0113,0.39511 0.14676,0.73378 0.14675,0.32738 0.41769,0.53058 0.28222,0.2032 0.66604,0.2032 0.31609,0 0.53058,-0.0903 0.21449,-0.1016 0.34996,-0.22578 0.13546,-0.12418 0.19191,-0.2032 0.1016,-0.13547 0.15804,-0.15804 0.0677,-0.0339 0.19191,-0.0339 h 0.97085 q 0.11289,0 0.18062,0.0677 0.079,0.0677 0.0677,0.16934 -0.0113,0.18062 -0.19191,0.44026 -0.16933,0.25965 -0.49671,0.508 -0.32738,0.24836 -0.82409,0.41769 -0.48542,0.15805 -1.1176,0.15805 z m -1.24178,-3.55601 h 2.49485 v -0.0339 q 0,-0.44027 -0.14676,-0.76765 -0.14675,-0.32738 -0.42898,-0.51929 -0.28222,-0.19191 -0.67733,-0.19191 -0.39511,0 -0.67733,0.19191 -0.28223,0.19191 -0.42898,0.51929 -0.13547,0.32738 -0.13547,0.76765 z"
       style="fill:#020202;stroke-width:8"
       id="path900" /><path
       d="m 130.35561,168.70891 q -0.11289,0 -0.19191,-0.079 -0.079,-0.079 -0.079,-0.19192 v -5.31707 q 0,-0.12418 0.079,-0.2032 0.079,-0.079 0.19191,-0.079 h 0.9144 q 0.11289,0 0.19192,0.079 0.0903,0.079 0.0903,0.2032 v 0.46285 q 0.25964,-0.36125 0.66604,-0.55316 0.41769,-0.19191 0.95956,-0.19191 h 0.46284 q 0.12418,0 0.19191,0.079 0.079,0.079 0.079,0.19191 v 0.8128 q 0,0.11289 -0.079,0.19192 -0.0677,0.079 -0.19191,0.079 h -0.88053 q -0.54187,0 -0.84667,0.3048 -0.29351,0.3048 -0.29351,0.83538 v 3.10444 q 0,0.11289 -0.079,0.19192 -0.079,0.079 -0.2032,0.079 z"
       style="fill:#020202;stroke-width:8"
       id="path902" /><path
       d="m 137.01606,168.8218 q -0.67733,0 -1.16275,-0.15805 -0.47414,-0.15804 -0.77894,-0.39511 -0.3048,-0.23707 -0.45155,-0.47413 -0.14676,-0.23707 -0.15805,-0.39511 -0.0113,-0.12418 0.0677,-0.19192 0.0903,-0.079 0.19192,-0.079 h 0.89182 q 0.0452,0 0.079,0.0113 0.0339,0.0113 0.0903,0.0677 0.14676,0.12418 0.3048,0.25965 0.16934,0.13547 0.39511,0.23707 0.22578,0.0903 0.56445,0.0903 0.44027,0 0.73378,-0.16934 0.3048,-0.18062 0.3048,-0.508 0,-0.23706 -0.13547,-0.38382 -0.12418,-0.14676 -0.47413,-0.25964 -0.34996,-0.12418 -0.99343,-0.25965 -0.63217,-0.14675 -1.04986,-0.37253 -0.41769,-0.22578 -0.62089,-0.56445 -0.2032,-0.33866 -0.2032,-0.79022 0,-0.44027 0.25964,-0.83538 0.27094,-0.4064 0.79022,-0.66604 0.53058,-0.25965 1.30952,-0.25965 0.6096,0 1.06115,0.15805 0.45156,0.14675 0.74507,0.37253 0.3048,0.22578 0.46285,0.46284 0.15804,0.22578 0.16933,0.39512 0.0113,0.12417 -0.0677,0.2032 -0.079,0.0677 -0.18063,0.0677 h -0.83537 q -0.0565,0 -0.1016,-0.0226 -0.0452,-0.0226 -0.0903,-0.0564 -0.12417,-0.11289 -0.27093,-0.23707 -0.14676,-0.12418 -0.36124,-0.21449 -0.2032,-0.1016 -0.54187,-0.1016 -0.42898,0 -0.65476,0.19191 -0.22578,0.18062 -0.22578,0.46285 0,0.19191 0.1016,0.33866 0.11289,0.13547 0.44027,0.25965 0.32738,0.12418 0.99342,0.25964 0.75636,0.13547 1.19663,0.4064 0.45155,0.25965 0.63218,0.6096 0.19191,0.33867 0.19191,0.75636 0,0.508 -0.3048,0.9144 -0.29351,0.4064 -0.88054,0.64347 -0.57573,0.22578 -1.43369,0.22578 z"
       style="fill:#020202;stroke-width:8"
       id="path904" /><path
       d="m 141.06877,168.70891 q -0.11289,0 -0.19191,-0.079 -0.079,-0.079 -0.079,-0.19192 v -5.32836 q 0,-0.11289 0.079,-0.19191 0.079,-0.079 0.19191,-0.079 h 0.93698 q 0.12418,0 0.19191,0.079 0.079,0.079 0.079,0.19191 v 5.32836 q 0,0.11289 -0.079,0.19192 -0.0677,0.079 -0.19191,0.079 z m -0.0452,-6.84108 q -0.12418,0 -0.2032,-0.0677 -0.0677,-0.079 -0.0677,-0.2032 v -0.8128 q 0,-0.11289 0.0677,-0.19191 0.079,-0.079 0.2032,-0.079 h 1.02729 q 0.12417,0 0.2032,0.079 0.079,0.079 0.079,0.19191 v 0.8128 q 0,0.12418 -0.079,0.2032 -0.079,0.0677 -0.2032,0.0677 z"
       style="fill:#020202;stroke-width:8"
       id="path906" /><path
       d="m 146.37455,168.8218 q -0.90311,0 -1.524,-0.31609 -0.6096,-0.31609 -0.93698,-0.89183 -0.31608,-0.57573 -0.36124,-1.34337 -0.0113,-0.2032 -0.0113,-0.49672 0,-0.29351 0.0113,-0.49671 0.0452,-0.77893 0.37253,-1.34338 0.33867,-0.57573 0.94827,-0.89182 0.62089,-0.31609 1.50142,-0.31609 0.88054,0 1.49014,0.31609 0.62089,0.31609 0.94827,0.89182 0.33866,0.56445 0.38382,1.34338 0.0113,0.2032 0.0113,0.49671 0,0.29352 -0.0113,0.49672 -0.0452,0.76764 -0.37253,1.34337 -0.31609,0.57574 -0.93698,0.89183 -0.6096,0.31609 -1.51272,0.31609 z m 0,-1.1176 q 0.59832,0 0.92569,-0.37254 0.32738,-0.38382 0.36125,-1.1176 0.0113,-0.16933 0.0113,-0.44027 0,-0.27093 -0.0113,-0.44026 -0.0339,-0.72249 -0.36125,-1.10632 -0.32737,-0.38382 -0.92569,-0.38382 -0.59831,0 -0.92569,0.38382 -0.32737,0.38383 -0.36124,1.10632 -0.0113,0.16933 -0.0113,0.44026 0,0.27094 0.0113,0.44027 0.0339,0.73378 0.36124,1.1176 0.32738,0.37254 0.92569,0.37254 z"
       style="fill:#020202;stroke-width:8"
       id="path908" /><path
       d="m 150.73208,168.70891 q -0.11289,0 -0.19191,-0.079 -0.079,-0.079 -0.079,-0.19192 v -5.32836 q 0,-0.11289 0.079,-0.19191 0.079,-0.079 0.19191,-0.079 h 0.92569 q 0.11289,0 0.19191,0.079 0.079,0.079 0.079,0.19191 v 0.46285 q 0.29351,-0.36125 0.74506,-0.59831 0.46285,-0.24836 1.14018,-0.24836 0.68862,0 1.19663,0.31609 0.508,0.3048 0.77893,0.86925 0.28222,0.56444 0.28222,1.35466 v 3.17218 q 0,0.11289 -0.079,0.19192 -0.079,0.079 -0.19191,0.079 h -0.99343 q -0.11288,0 -0.19191,-0.079 -0.079,-0.079 -0.079,-0.19192 v -3.10444 q 0,-0.65476 -0.32738,-1.02729 -0.31609,-0.37254 -0.92569,-0.37254 -0.58702,0 -0.93698,0.37254 -0.34995,0.37253 -0.34995,1.02729 v 3.10444 q 0,0.11289 -0.079,0.19192 -0.079,0.079 -0.19191,0.079 z"
       style="fill:#020202;stroke-width:8"
       id="path910" /></g><g
     aria-label="Validation"
     id="text9882-2"
     style="font-weight:500;font-size:11.2889px;font-family:Rubik;-inkscape-font-specification:'Rubik Medium';text-align:center;text-anchor:middle;fill:#e8e8e8;stroke-width:7.99999;stroke-linecap:round;stroke-linejoin:round"
     transform="translate(6.339414,-40.478361)"><path
       d="m 188.8611,168.70891 q -0.18062,0 -0.28222,-0.0903 -0.1016,-0.0903 -0.14675,-0.22578 l -2.41583,-7.24748 q -0.0226,-0.0564 -0.0226,-0.1016 0,-0.1016 0.0677,-0.16933 0.0677,-0.0677 0.16933,-0.0677 h 0.99342 q 0.15805,0 0.23707,0.0903 0.0903,0.079 0.11289,0.15804 l 1.90782,5.81379 1.89654,-5.81379 q 0.0339,-0.079 0.11289,-0.15804 0.0903,-0.0903 0.24835,-0.0903 h 0.99343 q 0.0903,0 0.15804,0.0677 0.079,0.0677 0.079,0.16933 0,0.0452 -0.0226,0.1016 l -2.41583,7.24748 q -0.0452,0.13547 -0.14676,0.22578 -0.1016,0.0903 -0.28222,0.0903 z"
       style="fill:#020202;stroke-width:8"
       id="path913" /><path
       d="m 195.08304,168.8218 q -0.58702,0 -1.06115,-0.22578 -0.47414,-0.23707 -0.75636,-0.62089 -0.27093,-0.39511 -0.27093,-0.88053 0,-0.79023 0.63218,-1.25307 0.64346,-0.47414 1.69333,-0.63218 l 1.54658,-0.22578 v -0.23707 q 0,-0.47413 -0.23707,-0.73377 -0.23706,-0.25965 -0.8128,-0.25965 -0.4064,0 -0.66604,0.16933 -0.24836,0.15805 -0.37254,0.42898 -0.0903,0.14676 -0.25964,0.14676 h -0.89182 q -0.12418,0 -0.19192,-0.0677 -0.0564,-0.0677 -0.0564,-0.18062 0.0113,-0.18062 0.14676,-0.44026 0.13546,-0.25965 0.42897,-0.49672 0.29352,-0.24835 0.75636,-0.41769 0.46285,-0.16933 1.1176,-0.16933 0.7112,0 1.19663,0.18062 0.49671,0.16934 0.79022,0.46285 0.29351,0.29351 0.42898,0.68862 0.13546,0.39511 0.13546,0.83538 v 3.54471 q 0,0.11289 -0.079,0.19192 -0.079,0.079 -0.19191,0.079 h -0.9144 q -0.12418,0 -0.2032,-0.079 -0.0677,-0.079 -0.0677,-0.19192 v -0.44026 q -0.14676,0.21449 -0.39512,0.4064 -0.24835,0.18062 -0.6096,0.3048 -0.34995,0.11289 -0.83538,0.11289 z m 0.38383,-1.07245 q 0.39511,0 0.7112,-0.16933 0.32738,-0.16934 0.508,-0.51929 0.19191,-0.36125 0.19191,-0.90311 v -0.23707 l -1.12889,0.18062 q -0.66605,0.1016 -0.99342,0.32738 -0.32738,0.22578 -0.32738,0.55316 0,0.24835 0.14675,0.42897 0.15805,0.16934 0.39512,0.25965 0.23706,0.079 0.49671,0.079 z"
       style="fill:#020202;stroke-width:8"
       id="path915" /><path
       d="m 200.1066,168.70891 q -0.11289,0 -0.19192,-0.079 -0.079,-0.079 -0.079,-0.19192 v -7.47325 q 0,-0.11289 0.079,-0.19191 0.079,-0.079 0.19192,-0.079 h 0.93697 q 0.11289,0 0.19192,0.079 0.079,0.079 0.079,0.19191 v 7.47325 q 0,0.11289 -0.079,0.19192 -0.079,0.079 -0.19192,0.079 z"
       style="fill:#020202;stroke-width:8"
       id="path917" /><path
       d="m 203.08686,168.70891 q -0.11289,0 -0.19191,-0.079 -0.079,-0.079 -0.079,-0.19192 v -5.32836 q 0,-0.11289 0.079,-0.19191 0.079,-0.079 0.19191,-0.079 h 0.93698 q 0.12417,0 0.19191,0.079 0.079,0.079 0.079,0.19191 v 5.32836 q 0,0.11289 -0.079,0.19192 -0.0677,0.079 -0.19191,0.079 z m -0.0452,-6.84108 q -0.12418,0 -0.2032,-0.0677 -0.0677,-0.079 -0.0677,-0.2032 v -0.8128 q 0,-0.11289 0.0677,-0.19191 0.079,-0.079 0.2032,-0.079 h 1.02729 q 0.12418,0 0.2032,0.079 0.079,0.079 0.079,0.19191 v 0.8128 q 0,0.12418 -0.079,0.2032 -0.079,0.0677 -0.2032,0.0677 z"
       style="fill:#020202;stroke-width:8"
       id="path919" /><path
       d="m 207.97495,168.8218 q -0.58702,0 -1.03858,-0.19191 -0.44026,-0.2032 -0.73378,-0.56445 -0.29351,-0.36124 -0.45155,-0.84667 -0.15805,-0.49671 -0.18062,-1.08373 -0.0113,-0.2032 -0.0113,-0.36125 0,-0.16933 0.0113,-0.37253 0.0226,-0.56444 0.16933,-1.04987 0.15804,-0.48542 0.45156,-0.84666 0.3048,-0.37254 0.74506,-0.57574 0.45156,-0.2032 1.03858,-0.2032 0.6096,0 1.02729,0.21449 0.42898,0.2032 0.7112,0.53058 v -2.50614 q 0,-0.11289 0.0677,-0.19191 0.079,-0.079 0.2032,-0.079 h 0.95955 q 0.11289,0 0.19191,0.079 0.079,0.079 0.079,0.19191 v 7.47325 q 0,0.11289 -0.079,0.19192 -0.079,0.079 -0.19191,0.079 h -0.89182 q -0.12418,0 -0.2032,-0.079 -0.0677,-0.079 -0.0677,-0.19192 v -0.41768 q -0.28223,0.34995 -0.72249,0.57573 -0.42898,0.22578 -1.08374,0.22578 z m 0.41769,-1.20792 q 0.47413,0 0.75636,-0.21448 0.28222,-0.21449 0.41769,-0.54187 0.13546,-0.33867 0.14675,-0.68862 0.0113,-0.2032 0.0113,-0.42898 0,-0.23707 -0.0113,-0.44027 -0.0113,-0.33867 -0.15804,-0.64347 -0.14676,-0.31609 -0.42898,-0.51929 -0.28222,-0.2032 -0.73378,-0.2032 -0.47413,0 -0.75636,0.21449 -0.27093,0.2032 -0.39511,0.54187 -0.12417,0.33867 -0.14675,0.74507 -0.0113,0.33866 0,0.67733 0.0226,0.4064 0.14675,0.74507 0.12418,0.33867 0.39511,0.55315 0.28223,0.2032 0.75636,0.2032 z"
       style="fill:#020202;stroke-width:8"
       id="path921" /><path
       d="m 214.42092,168.8218 q -0.58702,0 -1.06115,-0.22578 -0.47414,-0.23707 -0.75636,-0.62089 -0.27093,-0.39511 -0.27093,-0.88053 0,-0.79023 0.63217,-1.25307 0.64347,-0.47414 1.69334,-0.63218 l 1.54658,-0.22578 v -0.23707 q 0,-0.47413 -0.23707,-0.73377 -0.23706,-0.25965 -0.8128,-0.25965 -0.4064,0 -0.66604,0.16933 -0.24836,0.15805 -0.37254,0.42898 -0.0903,0.14676 -0.25964,0.14676 h -0.89183 q -0.12417,0 -0.19191,-0.0677 -0.0564,-0.0677 -0.0564,-0.18062 0.0113,-0.18062 0.14675,-0.44026 0.13547,-0.25965 0.42898,-0.49672 0.29351,-0.24835 0.75636,-0.41769 0.46284,-0.16933 1.1176,-0.16933 0.7112,0 1.19662,0.18062 0.49672,0.16934 0.79023,0.46285 0.29351,0.29351 0.42898,0.68862 0.13546,0.39511 0.13546,0.83538 v 3.54471 q 0,0.11289 -0.079,0.19192 -0.079,0.079 -0.19191,0.079 h -0.9144 q -0.12418,0 -0.2032,-0.079 -0.0677,-0.079 -0.0677,-0.19192 v -0.44026 q -0.14675,0.21449 -0.39511,0.4064 -0.24835,0.18062 -0.6096,0.3048 -0.34995,0.11289 -0.83538,0.11289 z m 0.38383,-1.07245 q 0.39511,0 0.7112,-0.16933 0.32737,-0.16934 0.508,-0.51929 0.19191,-0.36125 0.19191,-0.90311 v -0.23707 l -1.12889,0.18062 q -0.66605,0.1016 -0.99343,0.32738 -0.32737,0.22578 -0.32737,0.55316 0,0.24835 0.14675,0.42897 0.15805,0.16934 0.39511,0.25965 0.23707,0.079 0.49672,0.079 z"
       style="fill:#020202;stroke-width:8"
       id="path923" /><path
       d="m 221.76329,168.70891 q -0.67733,0 -1.14017,-0.23707 -0.46285,-0.23707 -0.68863,-0.69991 -0.22578,-0.47413 -0.22578,-1.17405 v -2.56258 h -0.89182 q -0.11289,0 -0.19191,-0.079 -0.079,-0.079 -0.079,-0.19191 v -0.65476 q 0,-0.11289 0.079,-0.19191 0.079,-0.079 0.19191,-0.079 h 0.89182 v -1.87396 q 0,-0.11289 0.0677,-0.19191 0.079,-0.079 0.2032,-0.079 h 0.9144 q 0.11289,0 0.19191,0.079 0.079,0.079 0.079,0.19191 v 1.87396 h 1.41112 q 0.11288,0 0.19191,0.079 0.079,0.079 0.079,0.19191 v 0.65476 q 0,0.11289 -0.079,0.19191 -0.079,0.079 -0.19191,0.079 h -1.41112 v 2.44969 q 0,0.46285 0.15805,0.72249 0.16933,0.25965 0.57573,0.25965 h 0.77894 q 0.11288,0 0.19191,0.079 0.079,0.079 0.079,0.19191 v 0.69991 q 0,0.11289 -0.079,0.19192 -0.079,0.079 -0.19191,0.079 z"
       style="fill:#020202;stroke-width:8"
       id="path925" /><path
       d="m 224.22429,168.70891 q -0.11289,0 -0.19192,-0.079 -0.079,-0.079 -0.079,-0.19192 v -5.32836 q 0,-0.11289 0.079,-0.19191 0.079,-0.079 0.19192,-0.079 h 0.93697 q 0.12418,0 0.19192,0.079 0.079,0.079 0.079,0.19191 v 5.32836 q 0,0.11289 -0.079,0.19192 -0.0677,0.079 -0.19192,0.079 z m -0.0452,-6.84108 q -0.12418,0 -0.2032,-0.0677 -0.0677,-0.079 -0.0677,-0.2032 v -0.8128 q 0,-0.11289 0.0677,-0.19191 0.079,-0.079 0.2032,-0.079 h 1.02729 q 0.12418,0 0.2032,0.079 0.079,0.079 0.079,0.19191 v 0.8128 q 0,0.12418 -0.079,0.2032 -0.079,0.0677 -0.2032,0.0677 z"
       style="fill:#020202;stroke-width:8"
       id="path927" /><path
       d="m 229.53007,168.8218 q -0.90312,0 -1.52401,-0.31609 -0.6096,-0.31609 -0.93697,-0.89183 -0.31609,-0.57573 -0.36125,-1.34337 -0.0113,-0.2032 -0.0113,-0.49672 0,-0.29351 0.0113,-0.49671 0.0452,-0.77893 0.37253,-1.34338 0.33867,-0.57573 0.94827,-0.89182 0.62089,-0.31609 1.50143,-0.31609 0.88053,0 1.49013,0.31609 0.62089,0.31609 0.94827,0.89182 0.33867,0.56445 0.38382,1.34338 0.0113,0.2032 0.0113,0.49671 0,0.29352 -0.0113,0.49672 -0.0452,0.76764 -0.37253,1.34337 -0.31609,0.57574 -0.93698,0.89183 -0.6096,0.31609 -1.51271,0.31609 z m 0,-1.1176 q 0.59831,0 0.92569,-0.37254 0.32737,-0.38382 0.36124,-1.1176 0.0113,-0.16933 0.0113,-0.44027 0,-0.27093 -0.0113,-0.44026 -0.0339,-0.72249 -0.36124,-1.10632 -0.32738,-0.38382 -0.92569,-0.38382 -0.59832,0 -0.92569,0.38382 -0.32738,0.38383 -0.36125,1.10632 -0.0113,0.16933 -0.0113,0.44026 0,0.27094 0.0113,0.44027 0.0339,0.73378 0.36125,1.1176 0.32737,0.37254 0.92569,0.37254 z"
       style="fill:#020202;stroke-width:8"
       id="path929" /><path
       d="m 233.88759,168.70891 q -0.11289,0 -0.19191,-0.079 -0.079,-0.079 -0.079,-0.19192 v -5.32836 q 0,-0.11289 0.079,-0.19191 0.079,-0.079 0.19191,-0.079 h 0.92569 q 0.11289,0 0.19191,0.079 0.079,0.079 0.079,0.19191 v 0.46285 q 0.29351,-0.36125 0.74506,-0.59831 0.46285,-0.24836 1.14018,-0.24836 0.68863,0 1.19663,0.31609 0.508,0.3048 0.77893,0.86925 0.28222,0.56444 0.28222,1.35466 v 3.17218 q 0,0.11289 -0.079,0.19192 -0.079,0.079 -0.19191,0.079 h -0.99342 q -0.11289,0 -0.19192,-0.079 -0.079,-0.079 -0.079,-0.19192 v -3.10444 q 0,-0.65476 -0.32738,-1.02729 -0.31609,-0.37254 -0.92569,-0.37254 -0.58702,0 -0.93697,0.37254 -0.34996,0.37253 -0.34996,1.02729 v 3.10444 q 0,0.11289 -0.079,0.19192 -0.079,0.079 -0.19191,0.079 z"
       style="fill:#020202;stroke-width:8"
       id="path931" /></g><g
     aria-label="Calculation"
     id="text9882-0"
     style="font-weight:500;font-size:11.2889px;font-family:Rubik;-inkscape-font-specification:'Rubik Medium';text-align:center;text-anchor:middle;fill:#e8e8e8;stroke-width:7.99999;stroke-linecap:round;stroke-linejoin:round"
     transform="translate(6.339414,-40.478361)"><path
       d="m 272.43856,168.8218 q -1.04987,0 -1.78364,-0.36125 -0.72249,-0.37253 -1.10632,-1.04987 -0.38382,-0.68862 -0.42897,-1.64817 -0.0113,-0.46285 -0.0113,-0.99343 0,-0.53058 0.0113,-1.016 0.0452,-0.94827 0.42897,-1.63689 0.39511,-0.68862 1.1176,-1.04987 0.73378,-0.37253 1.77236,-0.37253 0.76765,0 1.37725,0.2032 0.6096,0.2032 1.03858,0.56444 0.42897,0.34996 0.66604,0.82409 0.23707,0.47414 0.24836,1.02729 0.0113,0.1016 -0.0677,0.16934 -0.0677,0.0677 -0.16933,0.0677 h -1.07245 q -0.12417,0 -0.2032,-0.0564 -0.079,-0.0677 -0.11288,-0.21449 -0.18063,-0.74507 -0.62089,-1.016 -0.44027,-0.27094 -1.09503,-0.27094 -0.75635,0 -1.20791,0.42898 -0.45156,0.41769 -0.48542,1.38854 -0.0339,0.92569 0,1.89653 0.0339,0.97085 0.48542,1.39982 0.45156,0.41769 1.20791,0.41769 0.65476,0 1.09503,-0.27093 0.44026,-0.28222 0.62089,-1.016 0.0339,-0.15805 0.11288,-0.21449 0.079,-0.0564 0.2032,-0.0564 h 1.07245 q 0.1016,0 0.16933,0.0677 0.079,0.0677 0.0677,0.16933 -0.0113,0.55316 -0.24836,1.02729 -0.23707,0.47414 -0.66604,0.83538 -0.42898,0.34996 -1.03858,0.55316 -0.6096,0.2032 -1.37725,0.2032 z"
       style="fill:#020202;stroke-width:8"
       id="path934" /><path
       d="m 278.68132,168.8218 q -0.58702,0 -1.06115,-0.22578 -0.47414,-0.23707 -0.75636,-0.62089 -0.27093,-0.39511 -0.27093,-0.88053 0,-0.79023 0.63218,-1.25307 0.64346,-0.47414 1.69333,-0.63218 l 1.54658,-0.22578 v -0.23707 q 0,-0.47413 -0.23707,-0.73377 -0.23706,-0.25965 -0.8128,-0.25965 -0.4064,0 -0.66604,0.16933 -0.24836,0.15805 -0.37254,0.42898 -0.0903,0.14676 -0.25964,0.14676 h -0.89182 q -0.12418,0 -0.19192,-0.0677 -0.0564,-0.0677 -0.0564,-0.18062 0.0113,-0.18062 0.14676,-0.44026 0.13546,-0.25965 0.42897,-0.49672 0.29352,-0.24835 0.75636,-0.41769 0.46285,-0.16933 1.1176,-0.16933 0.7112,0 1.19662,0.18062 0.49672,0.16934 0.79023,0.46285 0.29351,0.29351 0.42898,0.68862 0.13546,0.39511 0.13546,0.83538 v 3.54471 q 0,0.11289 -0.079,0.19192 -0.079,0.079 -0.19191,0.079 h -0.9144 q -0.12418,0 -0.2032,-0.079 -0.0677,-0.079 -0.0677,-0.19192 v -0.44026 q -0.14675,0.21449 -0.39511,0.4064 -0.24835,0.18062 -0.6096,0.3048 -0.34995,0.11289 -0.83538,0.11289 z m 0.38383,-1.07245 q 0.39511,0 0.7112,-0.16933 0.32738,-0.16934 0.508,-0.51929 0.19191,-0.36125 0.19191,-0.90311 v -0.23707 l -1.12889,0.18062 q -0.66605,0.1016 -0.99342,0.32738 -0.32738,0.22578 -0.32738,0.55316 0,0.24835 0.14675,0.42897 0.15805,0.16934 0.39512,0.25965 0.23706,0.079 0.49671,0.079 z"
       style="fill:#020202;stroke-width:8"
       id="path936" /><path
       d="m 283.70487,168.70891 q -0.11288,0 -0.19191,-0.079 -0.079,-0.079 -0.079,-0.19192 v -7.47325 q 0,-0.11289 0.079,-0.19191 0.079,-0.079 0.19191,-0.079 h 0.93698 q 0.11289,0 0.19192,0.079 0.079,0.079 0.079,0.19191 v 7.47325 q 0,0.11289 -0.079,0.19192 -0.079,0.079 -0.19192,0.079 z"
       style="fill:#020202;stroke-width:8"
       id="path938" /><path
       d="m 288.95421,168.8218 q -0.8128,0 -1.43369,-0.3048 -0.6096,-0.3048 -0.95956,-0.88054 -0.33867,-0.58702 -0.37253,-1.41111 -0.0113,-0.16933 -0.0113,-0.44027 0,-0.28222 0.0113,-0.46284 0.0339,-0.82409 0.37253,-1.39983 0.34996,-0.58702 0.95956,-0.89182 0.62089,-0.3048 1.43369,-0.3048 0.72249,0 1.23049,0.2032 0.508,0.2032 0.83538,0.508 0.32737,0.3048 0.48542,0.64347 0.16933,0.32738 0.18062,0.59831 0.0113,0.12418 -0.079,0.2032 -0.079,0.0677 -0.19191,0.0677 h -0.99343 q -0.11288,0 -0.18062,-0.0564 -0.0564,-0.0564 -0.11289,-0.16933 -0.16933,-0.45156 -0.45155,-0.63218 -0.27094,-0.19191 -0.69991,-0.19191 -0.56445,0 -0.90312,0.36124 -0.32737,0.34996 -0.34995,1.1176 -0.0226,0.42898 0,0.79023 0.0226,0.77893 0.34995,1.12889 0.33867,0.34995 0.90312,0.34995 0.44026,0 0.7112,-0.18062 0.27093,-0.19191 0.44026,-0.64347 0.0565,-0.11289 0.11289,-0.16933 0.0677,-0.0564 0.18062,-0.0564 h 0.99343 q 0.11289,0 0.19191,0.079 0.0903,0.0677 0.079,0.19191 -0.0113,0.2032 -0.11289,0.46284 -0.0903,0.24836 -0.3048,0.51929 -0.2032,0.25965 -0.51929,0.48542 -0.31609,0.21449 -0.76764,0.34996 -0.44027,0.13547 -1.02729,0.13547 z"
       style="fill:#020202;stroke-width:8"
       id="path940" /><path
       d="m 295.03891,168.8218 q -0.68862,0 -1.19662,-0.3048 -0.49671,-0.31609 -0.76764,-0.88054 -0.27094,-0.57573 -0.27094,-1.35467 v -3.17218 q 0,-0.11289 0.079,-0.19191 0.079,-0.079 0.19192,-0.079 h 0.99342 q 0.12418,0 0.19191,0.079 0.079,0.079 0.079,0.19191 v 3.10445 q 0,1.39982 1.23049,1.39982 0.58703,0 0.92569,-0.37253 0.34996,-0.37253 0.34996,-1.02729 v -3.10445 q 0,-0.11289 0.079,-0.19191 0.079,-0.079 0.19191,-0.079 h 0.99342 q 0.11289,0 0.19192,0.079 0.079,0.079 0.079,0.19191 v 5.32836 q 0,0.11289 -0.079,0.19192 -0.079,0.079 -0.19192,0.079 h -0.9144 q -0.12417,0 -0.2032,-0.079 -0.0677,-0.079 -0.0677,-0.19192 v -0.46284 q -0.3048,0.39511 -0.75636,0.62089 -0.45155,0.22578 -1.12889,0.22578 z"
       style="fill:#020202;stroke-width:8"
       id="path942" /><path
       d="m 300.15279,168.70891 q -0.11289,0 -0.19191,-0.079 -0.079,-0.079 -0.079,-0.19192 v -7.47325 q 0,-0.11289 0.079,-0.19191 0.079,-0.079 0.19191,-0.079 h 0.93698 q 0.11289,0 0.19191,0.079 0.079,0.079 0.079,0.19191 v 7.47325 q 0,0.11289 -0.079,0.19192 -0.079,0.079 -0.19191,0.079 z"
       style="fill:#020202;stroke-width:8"
       id="path944" /><path
       d="m 304.56674,168.8218 q -0.58702,0 -1.06116,-0.22578 -0.47413,-0.23707 -0.75635,-0.62089 -0.27094,-0.39511 -0.27094,-0.88053 0,-0.79023 0.63218,-1.25307 0.64347,-0.47414 1.69334,-0.63218 l 1.54658,-0.22578 v -0.23707 q 0,-0.47413 -0.23707,-0.73377 -0.23707,-0.25965 -0.8128,-0.25965 -0.4064,0 -0.66605,0.16933 -0.24835,0.15805 -0.37253,0.42898 -0.0903,0.14676 -0.25964,0.14676 h -0.89183 q -0.12418,0 -0.19191,-0.0677 -0.0564,-0.0677 -0.0564,-0.18062 0.0113,-0.18062 0.14675,-0.44026 0.13547,-0.25965 0.42898,-0.49672 0.29351,-0.24835 0.75636,-0.41769 0.46284,-0.16933 1.1176,-0.16933 0.7112,0 1.19662,0.18062 0.49671,0.16934 0.79022,0.46285 0.29352,0.29351 0.42898,0.68862 0.13547,0.39511 0.13547,0.83538 v 3.54471 q 0,0.11289 -0.079,0.19192 -0.079,0.079 -0.19191,0.079 h -0.9144 q -0.12418,0 -0.2032,-0.079 -0.0677,-0.079 -0.0677,-0.19192 v -0.44026 q -0.14675,0.21449 -0.39511,0.4064 -0.24836,0.18062 -0.6096,0.3048 -0.34996,0.11289 -0.83538,0.11289 z m 0.38382,-1.07245 q 0.39512,0 0.7112,-0.16933 0.32738,-0.16934 0.508,-0.51929 0.19192,-0.36125 0.19192,-0.90311 v -0.23707 l -1.12889,0.18062 q -0.66605,0.1016 -0.99343,0.32738 -0.32738,0.22578 -0.32738,0.55316 0,0.24835 0.14676,0.42897 0.15805,0.16934 0.39511,0.25965 0.23707,0.079 0.49671,0.079 z"
       style="fill:#020202;stroke-width:8"
       id="path946" /><path
       d="m 311.90911,168.70891 q -0.67733,0 -1.14018,-0.23707 -0.46284,-0.23707 -0.68862,-0.69991 -0.22578,-0.47413 -0.22578,-1.17405 v -2.56258 h -0.89182 q -0.11289,0 -0.19191,-0.079 -0.079,-0.079 -0.079,-0.19191 v -0.65476 q 0,-0.11289 0.079,-0.19191 0.079,-0.079 0.19191,-0.079 h 0.89182 v -1.87396 q 0,-0.11289 0.0677,-0.19191 0.079,-0.079 0.2032,-0.079 h 0.9144 q 0.11289,0 0.19191,0.079 0.079,0.079 0.079,0.19191 v 1.87396 h 1.41111 q 0.11289,0 0.19191,0.079 0.079,0.079 0.079,0.19191 v 0.65476 q 0,0.11289 -0.079,0.19191 -0.079,0.079 -0.19191,0.079 h -1.41111 v 2.44969 q 0,0.46285 0.15805,0.72249 0.16933,0.25965 0.57573,0.25965 h 0.77893 q 0.11289,0 0.19191,0.079 0.079,0.079 0.079,0.19191 v 0.69991 q 0,0.11289 -0.079,0.19192 -0.079,0.079 -0.19191,0.079 z"
       style="fill:#020202;stroke-width:8"
       id="path948" /><path
       d="m 314.3701,168.70891 q -0.11289,0 -0.19191,-0.079 -0.079,-0.079 -0.079,-0.19192 v -5.32836 q 0,-0.11289 0.079,-0.19191 0.079,-0.079 0.19191,-0.079 h 0.93698 q 0.12418,0 0.19191,0.079 0.079,0.079 0.079,0.19191 v 5.32836 q 0,0.11289 -0.079,0.19192 -0.0677,0.079 -0.19191,0.079 z m -0.0451,-6.84108 q -0.12418,0 -0.2032,-0.0677 -0.0677,-0.079 -0.0677,-0.2032 v -0.8128 q 0,-0.11289 0.0677,-0.19191 0.079,-0.079 0.2032,-0.079 h 1.02729 q 0.12418,0 0.2032,0.079 0.079,0.079 0.079,0.19191 v 0.8128 q 0,0.12418 -0.079,0.2032 -0.079,0.0677 -0.2032,0.0677 z"
       style="fill:#020202;stroke-width:8"
       id="path950" /><path
       d="m 319.67589,168.8218 q -0.90311,0 -1.524,-0.31609 -0.6096,-0.31609 -0.93698,-0.89183 -0.31609,-0.57573 -0.36125,-1.34337 -0.0113,-0.2032 -0.0113,-0.49672 0,-0.29351 0.0113,-0.49671 0.0452,-0.77893 0.37254,-1.34338 0.33866,-0.57573 0.94826,-0.89182 0.62089,-0.31609 1.50143,-0.31609 0.88053,0 1.49013,0.31609 0.62089,0.31609 0.94827,0.89182 0.33867,0.56445 0.38382,1.34338 0.0113,0.2032 0.0113,0.49671 0,0.29352 -0.0113,0.49672 -0.0451,0.76764 -0.37253,1.34337 -0.31609,0.57574 -0.93698,0.89183 -0.6096,0.31609 -1.51271,0.31609 z m 0,-1.1176 q 0.59831,0 0.92569,-0.37254 0.32738,-0.38382 0.36124,-1.1176 0.0113,-0.16933 0.0113,-0.44027 0,-0.27093 -0.0113,-0.44026 -0.0339,-0.72249 -0.36124,-1.10632 -0.32738,-0.38382 -0.92569,-0.38382 -0.59831,0 -0.92569,0.38382 -0.32738,0.38383 -0.36125,1.10632 -0.0113,0.16933 -0.0113,0.44026 0,0.27094 0.0113,0.44027 0.0339,0.73378 0.36125,1.1176 0.32738,0.37254 0.92569,0.37254 z"
       style="fill:#020202;stroke-width:8"
       id="path952" /><path
       d="m 324.03341,168.70891 q -0.11289,0 -0.19191,-0.079 -0.079,-0.079 -0.079,-0.19192 v -5.32836 q 0,-0.11289 0.079,-0.19191 0.079,-0.079 0.19191,-0.079 h 0.92569 q 0.11289,0 0.19191,0.079 0.079,0.079 0.079,0.19191 v 0.46285 q 0.29352,-0.36125 0.74507,-0.59831 0.46285,-0.24836 1.14018,-0.24836 0.68862,0 1.19662,0.31609 0.508,0.3048 0.77894,0.86925 0.28222,0.56444 0.28222,1.35466 v 3.17218 q 0,0.11289 -0.079,0.19192 -0.079,0.079 -0.19191,0.079 h -0.99343 q -0.11289,0 -0.19191,-0.079 -0.079,-0.079 -0.079,-0.19192 v -3.10444 q 0,-0.65476 -0.32738,-1.02729 -0.31609,-0.37254 -0.92569,-0.37254 -0.58702,0 -0.93698,0.37254 -0.34995,0.37253 -0.34995,1.02729 v 3.10444 q 0,0.11289 -0.079,0.19192 -0.079,0.079 -0.19192,0.079 z"
       style="fill:#020202;stroke-width:8"
       id="path954" /></g></svg>
