<?xml version="1.0" encoding="UTF-8" standalone="no"?>
<!-- Created with Inkscape (http://www.inkscape.org/) -->

<svg
   width="200"
   height="200"
   viewBox="0 0 52.916665 52.916666"
   version="1.1"
   id="svg5"
   inkscape:version="1.2.2 (b0a8486541, 2022-12-01)"
   sodipodi:docname="lcax.svg"
   xmlns:inkscape="http://www.inkscape.org/namespaces/inkscape"
   xmlns:sodipodi="http://sodipodi.sourceforge.net/DTD/sodipodi-0.dtd"
   xmlns="http://www.w3.org/2000/svg"
   xmlns:svg="http://www.w3.org/2000/svg">
  <sodipodi:namedview
     id="namedview7"
     pagecolor="#ffffff"
     bordercolor="#000000"
     borderopacity="0.25"
     inkscape:showpageshadow="2"
     inkscape:pageopacity="0.0"
     inkscape:pagecheckerboard="0"
     inkscape:deskcolor="#d1d1d1"
     inkscape:document-units="mm"
     showgrid="false"
     inkscape:zoom="1.5893144"
     inkscape:cx="93.436514"
     inkscape:cy="126.78423"
     inkscape:window-width="1374"
     inkscape:window-height="831"
     inkscape:window-x="0"
     inkscape:window-y="0"
     inkscape:window-maximized="1"
     inkscape:current-layer="layer1" />
  <defs
     id="defs2">
    <rect
       x="0"
       y="70.020855"
       width="200"
       height="88.840389"
       id="rect186" />
  </defs>
  <g
     inkscape:label="Layer 1"
     inkscape:groupmode="layer"
     id="layer1">
    <g
       aria-label="LCAx"
       transform="matrix(0.26458333,0,0,0.26458333,-0.53340573,-0.74146059)"
       id="text184"
       style="font-size:74.6667px;line-height:1;-inkscape-font-specification:sans-serif;text-align:center;text-anchor:middle;white-space:pre;shape-inside:url(#rect186);fill:#ffffff;stroke:#2e2e2e;stroke-width:4;stroke-linecap:round;stroke-linejoin:round">
      <path
         d="m 10.57263,128.93572 q -0.8213334,0 -1.3440004,-0.52267 -0.5226669,-0.52267 -0.5226669,-1.344 V 78.535694 q 0,-0.821334 0.5226669,-1.344001 0.522667,-0.522667 1.3440004,-0.522667 h 9.856005 q 0.746667,0 1.269334,0.522667 0.597334,0.522667 0.597334,1.344001 v 39.125356 h 22.549344 q 0.821333,0 1.344,0.59733 0.597334,0.52267 0.597334,1.344 v 7.46667 q 0,0.82133 -0.597334,1.344 -0.522667,0.52267 -1.344,0.52267 z"
         style="font-weight:bold;font-family:Rubik;-inkscape-font-specification:'Rubik Bold';fill:#020202;stroke:none"
         id="path1006" />
      <path
         d="m 74.076732,129.68238 q -7.093337,0 -12.170673,-2.31466 -5.002669,-2.31467 -7.840004,-6.79467 -2.762668,-4.48 -3.061334,-11.12534 -0.07467,-3.06134 -0.07467,-6.57067 0,-3.509336 0.07467,-6.720004 0.298666,-6.496004 3.136001,-10.976006 2.837335,-4.554669 7.914671,-6.869336 5.077335,-2.389335 12.021339,-2.389335 4.928002,0 9.109337,1.269334 4.181336,1.194667 7.317337,3.584002 3.136002,2.314668 4.853336,5.674669 1.792001,3.285335 1.866667,7.46667 0.07467,0.672001 -0.448,1.120001 -0.448,0.448 -1.12,0.448 H 85.575404 q -0.970667,0 -1.493334,-0.373333 -0.522667,-0.448001 -0.896001,-1.568001 -1.045334,-3.957335 -3.434668,-5.376003 -2.314668,-1.493334 -5.749336,-1.493334 -4.106669,0 -6.496003,2.314668 -2.389335,2.240001 -2.613335,7.541337 -0.224,6.122671 0,12.544011 0.224,5.30133 2.613335,7.616 2.389334,2.24 6.496003,2.24 3.434668,0 5.824003,-1.49333 2.389334,-1.49334 3.360001,-5.37601 0.298667,-1.12 0.821334,-1.49333 0.597334,-0.448 1.568001,-0.448 h 10.080005 q 0.672,0 1.12,0.448 0.522667,0.448 0.448,1.12 -0.07467,4.18133 -1.866667,7.54134 -1.717334,3.28533 -4.853336,5.67467 -3.136001,2.31466 -7.317337,3.584 -4.181335,1.19466 -9.109337,1.19466 z"
         style="font-weight:bold;font-family:Rubik;-inkscape-font-specification:'Rubik Bold';fill:#020202;stroke:none"
         id="path1008" />
      <path
         d="m 101.3954,128.93572 q -0.59733,0 -1.12,-0.448 -0.447997,-0.52267 -0.447997,-1.12 0,-0.37334 0.07467,-0.672 l 17.54667,-47.936026 q 0.22401,-0.821334 0.89601,-1.418667 0.74666,-0.672001 2.016,-0.672001 h 11.05067 q 1.26933,0 1.94133,0.672001 0.74667,0.597333 0.97067,1.418667 l 17.47201,47.936026 q 0.14933,0.29866 0.14933,0.672 0,0.59733 -0.52267,1.12 -0.448,0.448 -1.12,0.448 h -9.184 q -1.12,0 -1.71733,-0.52267 -0.52267,-0.59733 -0.672,-1.04533 l -2.91201,-7.61601 h -19.93601 l -2.83733,7.61601 q -0.14933,0.448 -0.672,1.04533 -0.52267,0.52267 -1.792,0.52267 z m 17.54668,-19.93601 h 13.88801 l -7.01867,-19.712011 z"
         style="font-weight:bold;font-family:Rubik;-inkscape-font-specification:'Rubik Bold';fill:#020202;stroke:none"
         id="path1010" />
      <path
         d="m 155.45406,128.93572 q -0.672,0 -1.19466,-0.448 -0.448,-0.52267 -0.448,-1.19467 0,-0.224 0.0747,-0.52267 0.0747,-0.37333 0.29867,-0.672 l 12.46934,-17.09867 -11.34934,-16.053343 q -0.224,-0.298666 -0.37333,-0.597333 -0.0747,-0.298667 -0.0747,-0.597334 0,-0.672 0.52267,-1.12 0.52266,-0.522667 1.19466,-0.522667 h 9.10934 q 0.97067,0 1.41867,0.448 0.52267,0.448 0.74667,0.821334 l 6.944,9.632003 6.86934,-9.557337 q 0.29866,-0.373333 0.74666,-0.821333 0.52267,-0.522667 1.49334,-0.522667 h 8.736 q 0.672,0 1.12,0.522667 0.52267,0.448 0.52267,1.12 0,0.298667 -0.0747,0.597334 -0.0747,0.298667 -0.29866,0.597333 l -11.64801,16.053343 12.61867,17.09867 q 0.29867,0.29867 0.37334,0.59734 0.0747,0.29866 0.0747,0.59733 0,0.672 -0.52266,1.19467 -0.448,0.448 -1.19467,0.448 h -9.48267 q -0.896,0 -1.344,-0.37334 -0.448,-0.448 -0.74667,-0.82133 l -7.54134,-10.22934 -7.616,10.22934 q -0.29867,0.29867 -0.74667,0.74667 -0.448,0.448 -1.41866,0.448 z"
         style="font-weight:bold;font-family:Rubik;-inkscape-font-specification:'Rubik Bold';fill:#020202;stroke:none"
         id="path1012" />
    </g>
  </g>
</svg>
