<?xml version="1.0" encoding="UTF-8" standalone="no"?>
<!-- Created with Inkscape (http://www.inkscape.org/) -->

<svg
   width="352.035mm"
   height="150.0376mm"
   viewBox="0 0 352.03501 150.03759"
   version="1.1"
   id="svg5"
   xml:space="preserve"
   inkscape:version="1.2.2 (b0a8486541, 2022-12-01)"
   sodipodi:docname="lcax_pillars.svg"
   xmlns:inkscape="http://www.inkscape.org/namespaces/inkscape"
   xmlns:sodipodi="http://sodipodi.sourceforge.net/DTD/sodipodi-0.dtd"
   xmlns="http://www.w3.org/2000/svg"
   xmlns:svg="http://www.w3.org/2000/svg"><sodipodi:namedview
     id="namedview7"
     pagecolor="#ffffff"
     bordercolor="#000000"
     borderopacity="0.25"
     inkscape:showpageshadow="2"
     inkscape:pageopacity="0.0"
     inkscape:pagecheckerboard="0"
     inkscape:deskcolor="#d1d1d1"
     inkscape:document-units="mm"
     showgrid="false"
     inkscape:zoom="0.56800419"
     inkscape:cx="650.52336"
     inkscape:cy="298.41329"
     inkscape:window-width="1374"
     inkscape:window-height="831"
     inkscape:window-x="0"
     inkscape:window-y="0"
     inkscape:window-maximized="1"
     inkscape:current-layer="layer1" /><defs
     id="defs2" /><g
     inkscape:label="Layer 1"
     inkscape:groupmode="layer"
     id="layer1"
     transform="translate(6.3394141,-40.47836)"><g
       style="fill:none;stroke:currentColor;stroke-width:2;stroke-linecap:round;stroke-linejoin:round"
       id="g9342"
       transform="matrix(2.173913,0,0,2.173913,1.8500774,67.500001)"><g
         id="layer13"
         inkscape:label="B/W"
         transform="translate(9.4407001,9.5818)"><path
           stroke="none"
           d="M 0,0 H 24 V 24 H 0 Z"
           fill="none"
           id="path212" /><path
           d="m 14,3 v 4 a 1,1 0 0 0 1,1 h 4"
           id="path214"
           style="stroke-width:1;stroke-dasharray:none" /><path
           d="M 17,21 H 7 A 2,2 0 0 1 5,19 V 5 A 2,2 0 0 1 7,3 h 7 l 5,5 v 11 a 2,2 0 0 1 -2,2 z"
           id="path216"
           style="stroke-width:1;stroke-dasharray:none" /><path
           d="m 10,13 -1,2 1,2"
           id="path218"
           style="stroke-width:1;stroke-dasharray:none" /><path
           d="m 14,13 1,2 -1,2"
           id="path220"
           style="stroke-width:1;stroke-dasharray:none" /></g><g
         id="g27132"
         inkscape:label="Color"
         transform="translate(9.4407001,9.5818)"><path
           stroke="none"
           d="M 0.0592999,-0.0818 H 24.0593 v 24 H 0.0592999 Z"
           fill="none"
           id="path27122"
           style="fill:#334397;fill-opacity:1;stroke:#334397;stroke-opacity:1" /><path
           d="m 14.0593,2.9182 v 4 a 1,1 0 0 0 1,1 h 4"
           id="path27124"
           style="stroke:#ffffff;stroke-width:1;stroke-dasharray:none;stroke-opacity:1" /><path
           d="M 17.0593,20.9182 H 7.0592999 a 2,2 0 0 1 -2,-2 v -14 a 2,2 0 0 1 2,-2 H 14.0593 l 5,5 v 11 a 2,2 0 0 1 -2,2 z"
           id="path27126"
           style="stroke:#ffffff;stroke-width:1;stroke-dasharray:none;stroke-opacity:1" /><path
           d="m 10.0593,12.9182 -1.0000001,2 1.0000001,2"
           id="path27128"
           style="stroke:#ffffff;stroke-width:1;stroke-dasharray:none;stroke-opacity:1" /><path
           d="m 14.0593,12.9182 1,2 -1,2"
           id="path27130"
           style="stroke:#ffffff;stroke-width:1;stroke-dasharray:none;stroke-opacity:1" /><circle
           style="fill:#334397;fill-opacity:1;stroke:#ffffff;stroke-width:0.992023;stroke-linecap:round;stroke-dasharray:none;stroke-opacity:1"
           id="path28275"
           cx="-2.1907001"
           cy="-2.3318"
           r="6.7539887" /><g
           aria-label="1."
           id="text36256"
           style="font-weight:500;font-size:8px;font-family:Rubik;-inkscape-font-specification:'Rubik Medium';text-align:center;text-anchor:middle;display:inline;fill:#973342;stroke:#ffffff;stroke-width:1"><path
             d="m -2.7381261,0.46820003 q -0.088,0 -0.144,-0.056 -0.048,-0.056 -0.048,-0.136 V -3.8678 l -1.216,0.936 q -0.072,0.048 -0.144,0.04 -0.072,-0.016 -0.128,-0.088 l -0.336,-0.432 q -0.048,-0.072 -0.04,-0.152 0.016,-0.08 0.088,-0.128 l 1.792,-1.384 q 0.048,-0.04 0.096,-0.048 0.048,-0.008 0.104,-0.008 h 0.704 q 0.08,0 0.136,0.056 0.056,0.056 0.056,0.136 v 5.21600003 q 0,0.08 -0.056,0.136 -0.056,0.056 -0.136,0.056 z"
             style="fill:#ffffff;stroke:none"
             id="path51683" /><path
             d="m -0.57813137,0.46820003 q -0.08,0 -0.136,-0.056 -0.056,-0.056 -0.056,-0.136 v -0.792 q 0,-0.088 0.056,-0.144 0.056,-0.056 0.136,-0.056 h 0.8 q 0.08,0 0.136,0.056 0.056,0.056 0.056,0.144 v 0.792 q 0,0.08 -0.056,0.136 -0.056,0.056 -0.136,0.056 z"
             style="fill:#ffffff;stroke:none"
             id="path51685" /></g></g></g><g
       style="fill:none;stroke:currentColor;stroke-width:2;stroke-linecap:round;stroke-linejoin:round"
       id="g9375"
       transform="matrix(2.173913,0,0,2.173913,175.11049,67.500001)"><g
         id="layer16"
         inkscape:label="B/W"
         style="display:none"><path
           stroke="none"
           d="M 0,0 H 24 V 24 H 0 Z"
           fill="none"
           id="path392" /><path
           d="m 14,3 v 4 a 1,1 0 0 0 1,1 h 4"
           id="path394"
           style="stroke-width:1;stroke-dasharray:none" /><path
           d="M 17,21 H 7 A 2,2 0 0 1 5,19 V 5 A 2,2 0 0 1 7,3 h 7 l 5,5 v 11 a 2,2 0 0 1 -2,2 z"
           id="path396"
           style="stroke-width:1;stroke-dasharray:none" /><path
           d="m 9,15 2,2 4,-4"
           id="path398"
           style="stroke-width:1;stroke-dasharray:none" /></g><g
         id="g36742"
         inkscape:label="Color"
         transform="translate(9.5,9.5)"><path
           stroke="none"
           d="M 0,0 H 24 V 24 H 0 Z"
           fill="none"
           id="path36734"
           style="fill:#958732;fill-opacity:1;stroke:#958732;stroke-opacity:1" /><path
           d="m 14,3 v 4 a 1,1 0 0 0 1,1 h 4"
           id="path36736"
           style="stroke:#ffffff;stroke-width:1;stroke-dasharray:none;stroke-opacity:1" /><path
           d="M 17,21 H 7 A 2,2 0 0 1 5,19 V 5 A 2,2 0 0 1 7,3 h 7 l 5,5 v 11 a 2,2 0 0 1 -2,2 z"
           id="path36738"
           style="stroke:#ffffff;stroke-width:1;stroke-dasharray:none;stroke-opacity:1" /><path
           d="m 9,15 2,2 4,-4"
           id="path36740"
           style="stroke:#ffffff;stroke-width:1;stroke-dasharray:none;stroke-opacity:1" /><ellipse
           style="display:inline;fill:#958732;fill-opacity:1;stroke:#ffffff;stroke-width:0.992023;stroke-linecap:round;stroke-dasharray:none;stroke-opacity:1"
           id="path28275-3"
           cx="-2.2500002"
           cy="-2.2499998"
           rx="6.7539883"
           ry="6.7539887" /><g
           aria-label="3."
           id="text36256-6"
           style="font-weight:500;font-size:8px;font-family:Rubik;-inkscape-font-specification:'Rubik Medium';text-align:center;text-anchor:middle;display:inline;fill:#973342;stroke:#ffffff;stroke-width:1"><path
             d="m -3.2619969,0.59000023 q -0.56,0 -0.968,-0.136 -0.408,-0.136 -0.68,-0.352 -0.264,-0.224 -0.4,-0.48 -0.136,-0.264 -0.144,-0.52 0,-0.072 0.048,-0.11200003 0.056,-0.048 0.128,-0.048 h 0.72 q 0.08,0 0.136,0.032 0.056,0.032 0.096,0.12800003 0.072,0.216 0.232,0.344 0.168,0.128 0.384,0.184 0.216,0.048 0.456,0.048 0.48,0 0.76,-0.224 0.288,-0.232 0.288,-0.65600003 0,-0.424 -0.264,-0.608 -0.264,-0.192 -0.736,-0.192 h -0.824 q -0.088,0 -0.144,-0.048 -0.056,-0.056 -0.056,-0.144 v -0.336 q 0,-0.08 0.032,-0.136 0.04,-0.064 0.08,-0.104 l 1.432,-1.4 h -2.288 q -0.088,0 -0.144,-0.056 -0.048,-0.056 -0.048,-0.136 v -0.528 q 0,-0.088 0.048,-0.144 0.056,-0.056 0.144,-0.056 h 3.432 q 0.088,0 0.144,0.056 0.056,0.056 0.056,0.144 v 0.48 q 0,0.072 -0.032,0.128 -0.032,0.056 -0.072,0.096 l -1.384,1.424 0.096,0.008 q 0.488,0.04 0.864,0.224 0.384,0.176 0.592,0.52 0.216,0.344 0.216,0.864 0,0.54400003 -0.288,0.93600003 -0.28,0.384 -0.776,0.592 -0.496,0.208 -1.136,0.208 z"
             style="fill:#ffffff;stroke:none"
             id="path52832" /><path
             d="m -0.03800361,0.51000023 q -0.08,0 -0.136,-0.056 -0.056,-0.056 -0.056,-0.136 v -0.792 q 0,-0.088 0.056,-0.144 0.056,-0.056 0.136,-0.056 h 0.8 q 0.08,0 0.136,0.056 0.056,0.056 0.056,0.144 v 0.792 q 0,0.08 -0.056,0.136 -0.056,0.056 -0.136,0.056 z"
             style="fill:#ffffff;stroke:none"
             id="path52834" /></g></g></g><g
       style="fill:none;stroke:currentColor;stroke-width:2;stroke-linecap:round;stroke-linejoin:round"
       id="g9436"
       transform="matrix(2.1739131,0,0,2.1739131,261.7407,67.499999)"><g
         id="layer17"
         inkscape:label="B/W"
         style="display:none"><path
           stroke="none"
           d="M 0,0 H 24 V 24 H 0 Z"
           fill="none"
           id="path760" /><path
           d="M 5,5 M 5,6 A 1,1 0 0 1 6,5 h 12 a 1,1 0 0 1 1,1 v 12 a 1,1 0 0 1 -1,1 H 6 A 1,1 0 0 1 5,18 Z"
           id="path762"
           style="stroke-width:1;stroke-dasharray:none" /><path
           d="m 9,9 h 6 v 6 H 9 Z"
           id="path764"
           style="stroke-width:1;stroke-dasharray:none" /><path
           d="M 3,10 H 5"
           id="path766"
           style="stroke-width:1;stroke-dasharray:none" /><path
           d="M 3,14 H 5"
           id="path768"
           style="stroke-width:1;stroke-dasharray:none" /><path
           d="M 10,3 V 5"
           id="path770"
           style="stroke-width:1;stroke-dasharray:none" /><path
           d="M 14,3 V 5"
           id="path772"
           style="stroke-width:1;stroke-dasharray:none" /><path
           d="M 21,10 H 19"
           id="path774"
           style="stroke-width:1;stroke-dasharray:none" /><path
           d="M 21,14 H 19"
           id="path776"
           style="stroke-width:1;stroke-dasharray:none" /><path
           d="M 14,21 V 19"
           id="path778"
           style="stroke-width:1;stroke-dasharray:none" /><path
           d="M 10,21 V 19"
           id="path780"
           style="stroke-width:1;stroke-dasharray:none" /></g><g
         id="g37906"
         inkscape:label="Color"><path
           stroke="none"
           d="m 9.5,9.5 h 24 v 24 h -24 z"
           fill="none"
           id="path37884"
           style="fill:#7fa59a;fill-opacity:1;stroke:#7fa59a;stroke-opacity:1" /><path
           d="m 14.5,14.5 m 0,1 a 1,1 0 0 1 1,-1 h 12 a 1,1 0 0 1 1,1 v 12 a 1,1 0 0 1 -1,1 h -12 a 1,1 0 0 1 -1,-1 z"
           id="path37886"
           style="stroke:#ffffff;stroke-width:1;stroke-dasharray:none;stroke-opacity:1" /><path
           d="m 18.5,18.5 h 6 v 6 h -6 z"
           id="path37888"
           style="stroke:#ffffff;stroke-width:1;stroke-dasharray:none;stroke-opacity:1" /><path
           d="m 12.5,19.5 h 2"
           id="path37890"
           style="stroke:#ffffff;stroke-width:1;stroke-dasharray:none;stroke-opacity:1" /><path
           d="m 12.5,23.5 h 2"
           id="path37892"
           style="stroke:#ffffff;stroke-width:1;stroke-dasharray:none;stroke-opacity:1" /><path
           d="m 19.5,12.5 v 2"
           id="path37894"
           style="stroke:#ffffff;stroke-width:1;stroke-dasharray:none;stroke-opacity:1" /><path
           d="m 23.5,12.5 v 2"
           id="path37896"
           style="stroke:#ffffff;stroke-width:1;stroke-dasharray:none;stroke-opacity:1" /><path
           d="m 30.5,19.5 h -2"
           id="path37898"
           style="stroke:#ffffff;stroke-width:1;stroke-dasharray:none;stroke-opacity:1" /><path
           d="m 30.5,23.5 h -2"
           id="path37900"
           style="stroke:#ffffff;stroke-width:1;stroke-dasharray:none;stroke-opacity:1" /><path
           d="m 23.5,30.5 v -2"
           id="path37902"
           style="stroke:#ffffff;stroke-width:1;stroke-dasharray:none;stroke-opacity:1" /><path
           d="m 19.5,30.5 v -2"
           id="path37904"
           style="stroke:#ffffff;stroke-width:1;stroke-dasharray:none;stroke-opacity:1" /><ellipse
           style="display:inline;fill:#7fa59a;fill-opacity:1;stroke:#ffffff;stroke-width:0.992023;stroke-linecap:round;stroke-dasharray:none;stroke-opacity:1"
           id="path28275-7"
           cx="7.25"
           cy="7.25"
           rx="6.7539883"
           ry="6.7539887" /><g
           aria-label="4."
           id="text36256-5"
           style="font-weight:500;font-size:8px;font-family:Rubik;-inkscape-font-specification:'Rubik Medium';text-align:center;text-anchor:middle;display:inline;fill:#973342;stroke:#ffffff;stroke-width:1"><path
             d="m 6.8951184,10.05 q -0.08,0 -0.136,-0.056 -0.056,-0.056 -0.056,-0.136 V 8.834 h -2.536 q -0.088,0 -0.144,-0.056 -0.048,-0.056 -0.048,-0.136 V 8.098 q 0,-0.048 0.016,-0.112 0.024,-0.072 0.072,-0.128 l 2.36,-3.272 q 0.104,-0.136 0.296,-0.136 h 0.872 q 0.08,0 0.136,0.056 0.056,0.056 0.056,0.136 V 7.89 h 0.712 q 0.096,0 0.144,0.056 0.056,0.048 0.056,0.136 v 0.56 q 0,0.08 -0.056,0.136 -0.056,0.056 -0.136,0.056 h -0.72 v 1.024 q 0,0.08 -0.056,0.136 -0.056,0.056 -0.136,0.056 z m -1.808,-2.1279998 h 1.64 v -2.312 z"
             style="fill:#ffffff;stroke:none"
             id="path52070" /><path
             d="m 9.5328813,10.05 q -0.08,0 -0.136,-0.056 -0.056,-0.056 -0.056,-0.136 V 9.066 q 0,-0.088 0.056,-0.144 0.056,-0.056 0.136,-0.056 h 0.7999997 q 0.08,0 0.136,0.056 0.056,0.056 0.056,0.144 v 0.792 q 0,0.08 -0.056,0.136 -0.056,0.056 -0.136,0.056 z"
             style="fill:#ffffff;stroke:none"
             id="path52072" /></g></g></g><g
       style="fill:none;stroke:currentColor;stroke-width:2;stroke-linecap:round;stroke-linejoin:round"
       id="g9473"
       transform="matrix(2.1739131,0,0,2.1739131,88.480284,67.499999)"><g
         id="layer14"
         inkscape:label="B/W"
         style="display:none"><path
           stroke="none"
           d="M 0,0 H 24 V 24 H 0 Z"
           fill="none"
           id="path569"
           inkscape:label="path569" /><path
           d="M 21,7 H 3"
           id="path571"
           style="stroke-width:1;stroke-dasharray:none" /><path
           d="M 18,10 21,7 18,4"
           id="path573"
           style="stroke-width:1;stroke-dasharray:none" /><path
           d="M 6,20 3,17 6,14"
           id="path575"
           style="stroke-width:1;stroke-dasharray:none" /><path
           d="M 3,17 H 21"
           id="path577"
           style="stroke-width:1;stroke-dasharray:none" /></g><g
         id="g30002"
         inkscape:label="Color"
         style="display:inline"><path
           stroke="none"
           d="m 9.5,9.5 h 24 v 24 h -24 z"
           fill="none"
           id="path29992"
           inkscape:label="path569"
           style="fill:#973342;fill-opacity:1;stroke:#973342;stroke-opacity:1" /><path
           d="m 30.5,16.5 h -18"
           id="path29994"
           style="stroke:#ffffff;stroke-width:1;stroke-dasharray:none;stroke-opacity:1" /><path
           d="m 27.5,19.5 3,-3 -3,-3"
           id="path29996"
           style="stroke:#ffffff;stroke-width:1;stroke-dasharray:none;stroke-opacity:1" /><path
           d="m 15.5,29.5 -3,-3 3,-3"
           id="path29998"
           style="stroke:#ffffff;stroke-width:1;stroke-dasharray:none;stroke-opacity:1" /><path
           d="m 12.5,26.5 h 18"
           id="path30000"
           style="stroke:#ffffff;stroke-width:1;stroke-dasharray:none;stroke-opacity:1" /><ellipse
           style="display:inline;fill:#973342;fill-opacity:1;stroke:#ffffff;stroke-width:0.992023;stroke-linecap:round;stroke-dasharray:none;stroke-opacity:1"
           id="path28275-35"
           cx="7.25"
           cy="7.25"
           rx="6.7539883"
           ry="6.7539887" /><g
           aria-label="2."
           id="text36256-62"
           style="font-weight:500;font-size:8px;font-family:Rubik;-inkscape-font-specification:'Rubik Medium';text-align:center;text-anchor:middle;fill:#973342;stroke:#ffffff;stroke-width:1"><path
             d="m 4.314002,10.098 q -0.08,0 -0.136,-0.056 -0.056,-0.056 -0.056,-0.1360004 v -0.408 q 0,-0.072 0.032,-0.168 0.04,-0.104 0.168,-0.208 l 1.264,-1.256 q 0.528,-0.416 0.848,-0.704 0.328,-0.296 0.472,-0.536 0.152,-0.248 0.152,-0.488 0,-0.36 -0.2,-0.584 -0.192,-0.224 -0.616,-0.224 -0.28,0 -0.472,0.12 -0.192,0.112 -0.304,0.304 -0.104,0.192 -0.144,0.424 -0.016,0.104 -0.088,0.144 -0.072,0.04 -0.144,0.04 h -0.712 q -0.072,0 -0.12,-0.048 -0.048,-0.048 -0.048,-0.112 0.008,-0.344 0.144,-0.664 0.136,-0.328 0.392,-0.576 0.264,-0.256 0.64,-0.408 0.376,-0.152 0.848,-0.152 0.664,0 1.096,0.224 0.44,0.224 0.656,0.608 0.224,0.384 0.224,0.864 0,0.376 -0.144,0.696 -0.144,0.312 -0.416,0.608 -0.272,0.288 -0.656,0.592 l -1.136,1.152 h 2.28 q 0.088,0 0.136,0.056 0.056,0.048 0.056,0.136 v 0.568 q 0,0.08 -0.056,0.1360004 -0.048,0.056 -0.136,0.056 z"
             style="fill:#ffffff;stroke:none"
             id="path53580" /><path
             d="m 9.3859978,10.098 q -0.08,0 -0.136,-0.056 -0.056,-0.056 -0.056,-0.1360004 v -0.792 q 0,-0.088 0.056,-0.144 0.056,-0.056 0.136,-0.056 h 0.8000002 q 0.08,0 0.136,0.056 0.056,0.056 0.056,0.144 v 0.792 q 0,0.08 -0.056,0.1360004 -0.056,0.056 -0.136,0.056 z"
             style="fill:#ffffff;stroke:none"
             id="path53582" /></g></g></g><text
       xml:space="preserve"
       style="font-weight:500;font-size:11.2889px;font-family:Rubik;-inkscape-font-specification:'Rubik Medium';text-align:center;text-anchor:middle;opacity:1;fill:#e8e8e8;stroke-width:7.99999;stroke-linecap:round;stroke-linejoin:round"
       x="39.135586"
       y="168.61859"
       id="text9882"><tspan
         sodipodi:role="line"
         id="tspan9880"
         style="font-size:11.2889px;fill:#020202;fill-opacity:1;stroke-width:8"
         x="39.135586"
         y="168.61859">Data Structure</tspan></text><text
       xml:space="preserve"
       style="font-weight:500;font-size:11.2889px;font-family:Rubik;-inkscape-font-specification:'Rubik Medium';text-align:center;text-anchor:middle;fill:#e8e8e8;stroke-width:7.99999;stroke-linecap:round;stroke-linejoin:round"
       x="126.02544"
       y="168.70891"
       id="text9882-9"><tspan
         sodipodi:role="line"
         id="tspan9880-1"
         style="font-size:11.2889px;fill:#020202;fill-opacity:1;stroke-width:8"
         x="126.02544"
         y="168.70891">Conversion</tspan></text><text
       xml:space="preserve"
       style="font-weight:500;font-size:11.2889px;font-family:Rubik;-inkscape-font-specification:'Rubik Medium';text-align:center;text-anchor:middle;fill:#e8e8e8;stroke-width:7.99999;stroke-linecap:round;stroke-linejoin:round"
       x="212.79675"
       y="168.70891"
       id="text9882-2"><tspan
         sodipodi:role="line"
         id="tspan9880-7"
         style="font-size:11.2889px;fill:#020202;fill-opacity:1;stroke-width:8"
         x="212.79675"
         y="168.70891">Validation</tspan></text><text
       xml:space="preserve"
       style="font-weight:500;font-size:11.2889px;font-family:Rubik;-inkscape-font-specification:'Rubik Medium';text-align:center;text-anchor:middle;fill:#e8e8e8;stroke-width:7.99999;stroke-linecap:round;stroke-linejoin:round"
       x="299.28586"
       y="168.70891"
       id="text9882-0"><tspan
         sodipodi:role="line"
         id="tspan9880-9"
         style="font-size:11.2889px;fill:#020202;fill-opacity:1;stroke-width:8"
         x="299.28586"
         y="168.70891">Calculation</tspan></text></g></svg>
